<?xml version="1.0" encoding="utf-8"?>
<!-- Generator: Adobe Illustrator 23.0.1, SVG Export Plug-In . SVG Version: 6.00 Build 0)  -->
<svg version="1.1" id="Слой_1" xmlns="http://www.w3.org/2000/svg" xmlns:xlink="http://www.w3.org/1999/xlink" x="0px" y="0px"
	 viewBox="0 0 643 652" style="enable-background:new 0 0 643 652;" xml:space="preserve">
<style type="text/css">
	.st0{fill-rule:evenodd;clip-rule:evenodd;fill:#008DD2;}
</style>
<path class="st0" d="M322.74,625.92C153.37,625.84,16.32,488.53,16.41,319.26C16.5,150.87,153.12,13,323.05,13.18
	c169.22,0.17,306.15,137.49,305.99,306.75C628.87,488.87,491.61,626,322.74,625.92z M26.38,319.37
	C26.23,482.93,158.73,615.76,322.49,615.9c164.5,0.15,296.39-133.34,296.53-295.84C619.16,156.17,486.83,23.39,323.05,23.2
	C159.32,23,26.53,155.57,26.38,319.37z"/>
<path class="st0" d="M347.1,478.06c-39.91,0-79.83,0-119.74-0.01c-1.6,0-3.2-0.06-4.79-0.19c-9.18-0.72-14.47-6.07-14.92-15.29
	c-0.21-4.23-0.12-8.48-0.11-12.72c0.04-35.27,0.08-70.55,0.12-105.82c0-1.6,0.05-3.21-0.14-4.79c-0.42-3.52-2.1-5.11-5.63-5.35
	c-1.43-0.1-2.88,0.08-4.31,0.08c-8.95-0.02-17.92,0.26-26.85-0.16c-9.29-0.44-14.66-6.43-14.89-15.79
	c-0.1-4.32-0.04-8.64-0.04-12.96c0-45.99-0.01-91.99,0.04-137.98c0-2.45,0.27-4.97,0.86-7.34c1.22-4.98,4.51-8.27,9.39-9.68
	c2.42-0.7,5.02-1.01,7.55-1.06c8.4-0.13,16.8-0.07,25.2-0.07c71.99,0,143.98,0,215.97,0.03c2.47,0,4.97,0.13,7.4,0.51
	c7.13,1.12,11.22,5.26,12.38,12.4c0.29,1.81,0.49,3.66,0.49,5.49c0.02,9.68,0.06,19.36-0.09,29.03c-0.08,5.38,1.74,9.53,6.23,12.7
	c10.07,7.11,14.97,17.03,15.06,29.28c0.03,4.39-0.44,8.78-0.58,13.17c-0.15,4.63-0.25,9.27-0.24,13.91
	c0.02,7.2,0.16,14.39,0.25,21.59c0,0.08,0,0.16,0,0.24c0.07,4.68,1.49,5.81,6.17,5.71c4.14-0.09,8.34-0.12,12.41,0.52
	c7.17,1.13,11.58,6.14,12.22,13.41c0.31,3.5,0.3,7.03,0.3,10.54c0.02,47.11,0.02,94.23,0,141.34c0,1.68-0.12,3.36-0.28,5.03
	c-0.8,8.08-5.84,13.14-13.93,13.94c-1.99,0.2-3.99,0.26-5.99,0.26C426.77,478.06,386.94,478.06,347.1,478.06z M333.05,200.29
	c0,0.04,0,0.07,0,0.11c-1.68,0-3.36,0-5.04,0c-23.11-0.02-46.22-0.06-69.34-0.05c-1.66,0-3.36,0.15-4.98,0.49
	c-2.31,0.48-3.82,2.03-4.31,4.34c-0.33,1.55-0.5,3.16-0.5,4.74c-0.03,34.31,0.01,68.62-0.06,102.93c-0.01,4.38,1.56,7.59,5.04,10.25
	c29.24,22.31,58.43,44.69,87.63,67.05c0.76,0.58,1.54,1.14,2.36,1.65c2.26,1.42,4.54,1.37,6.77-0.06c1.01-0.65,1.96-1.38,2.91-2.11
	c17.88-13.73,35.75-27.49,53.65-41.2c11.11-8.51,22.27-16.95,33.42-25.4c2.17-1.64,3.93-3.58,4.46-6.31
	c0.29-1.48,0.34-3.02,0.34-4.53c-0.01-21.99-0.05-43.99-0.1-65.98c-0.01-2.72,0.02-5.44-0.15-8.15c-0.28-4.37-1.88-5.96-6.2-6.44
	c-0.56-0.06-1.12-0.07-1.68-0.1c-2.71-0.14-5.44-0.23-8.15-0.43c-8.08-0.62-13.54-5.69-14.51-13.73c-0.38-3.16-0.23-6.38-0.27-9.58
	c-0.02-1.12,0.18-2.24,0.13-3.35c-0.1-2.19-1.1-3.41-3.24-3.86c-1.08-0.23-2.22-0.25-3.34-0.25
	C382.96,200.29,358,200.29,333.05,200.29z M469.32,467.36c-0.9-0.92-1.48-1.52-2.08-2.11c-16.17-15.95-32.35-31.89-48.52-47.85
	c-11.04-10.9-22.04-21.85-33.07-32.75c-3.12-3.08-4.67-3.16-8.1-0.56c-0.13,0.1-0.25,0.2-0.38,0.29
	c-8.02,6.23-16.04,12.46-24.07,18.67c-0.75,0.58-1.56,1.12-2.41,1.56c-2.28,1.19-4.62,1.21-6.91,0.05c-0.92-0.47-1.8-1.05-2.62-1.68
	c-7.84-6.07-15.66-12.16-23.49-18.24c-0.57-0.44-1.15-0.86-1.76-1.25c-2.14-1.35-4.25-1.27-6.23,0.3c-1.06,0.84-2.04,1.8-3,2.76
	c-23.16,23.1-46.31,46.21-69.48,69.31c-2.09,2.09-4.32,4.05-6.41,6.14c-1.51,1.51-2.91,3.13-3.88,5.36
	C307.7,467.36,388.25,467.36,469.32,467.36z M218.26,460.24c0.83-0.74,1.42-1.22,1.96-1.75c26.78-26.72,53.56-53.44,80.33-80.16
	c0.51-0.51,1.03-1.01,1.47-1.58c1.46-1.89,1.32-3.02-0.57-4.44c-1.6-1.2-3.26-2.31-4.85-3.52c-7.18-5.48-14.35-10.99-21.52-16.49
	c-17.89-13.72-35.79-27.44-53.67-41.17c-0.94-0.72-1.86-1.22-3.15-0.57C218.26,360.3,218.26,410.07,218.26,460.24z M475.6,309.39
	c-0.81,0.56-1.34,0.89-1.84,1.27c-26.57,20.25-53.15,40.51-79.72,60.77c-3.48,2.66-3.55,3.71-0.45,6.79
	c7.21,7.15,14.49,14.23,21.63,21.45c19.39,19.62,38.72,39.29,58.08,58.94c0.64,0.65,1.3,1.28,2.3,2.27
	C475.6,410.16,475.6,360,475.6,309.39z M413.61,159.92c-3.06-0.54-234.39-0.41-236.23,0.17c20.14,15.37,40.17,30.65,60.24,45.96
	c1.15-2.84,2.04-5.42,3.21-7.85c2.01-4.15,5.31-6.82,9.92-7.47c3.07-0.43,6.2-0.63,9.31-0.64c29.92-0.06,59.83-0.08,89.75-0.07
	c7.12,0,14.23,0.1,21.35,0.2c2.1,0.03,3.86-0.65,5.52-1.92c11.74-9,23.51-17.97,35.27-26.95
	C412.49,160.93,412.99,160.45,413.61,159.92z M166.92,315.49c0.74-0.65,1.23-1.03,1.66-1.46c2.72-2.71,5.43-5.43,8.13-8.16
	c16.51-16.64,32.85-33.44,50.13-49.31c1.35-1.24,2.58-2.62,3.8-4c6.64-7.49,9.35-16.19,8.17-26.16c-0.58-4.88-2.4-8.89-6.69-11.59
	c-1.55-0.98-2.97-2.17-4.43-3.28c-19.42-14.77-38.83-29.54-58.25-44.3c-0.74-0.56-1.49-1.09-2.52-1.84
	C166.92,215.56,166.92,265.28,166.92,315.49z M238.29,261.47c-21.02,20.82-41.68,41.29-62.7,62.12c0.93,0.07,1.29,0.13,1.66,0.13
	c6.96-0.01,13.91-0.02,20.87-0.05c0.96,0,1.92-0.09,2.87-0.22c4.16-0.58,5.35-1.75,6.01-5.86c0.1-0.63,0.13-1.27,0.17-1.91
	c0.14-2.39,0.25-4.79,0.39-7.18c0.53-9.22,6.42-15.12,15.62-15.51c3.43-0.15,6.87-0.05,10.31-0.06c0.8,0,1.61,0.06,2.39-0.06
	c1.66-0.23,2.36-1,2.56-2.66c0.07-0.55,0.06-1.12,0.06-1.68c-0.01-8.15-0.03-16.31-0.06-24.46
	C238.44,263.38,238.37,262.7,238.29,261.47z M424.14,165.29c-0.82,0.58-1.33,0.91-1.82,1.29c-9.81,7.54-19.62,15.08-29.42,22.63
	c-0.04,0.03-0.04,0.15-0.03,0.22c0.01,0.08,0.06,0.15,0.12,0.28c10.3,0.85,20.7-0.54,31.15,1.19
	C424.14,182.33,424.14,174.06,424.14,165.29z M437.08,220.16c-7.64-8.09-9.61-9.75-11.93-10.1c0,2.08-0.18,4.17,0.04,6.21
	c0.33,2.96,1.81,4.26,4.78,4.29C432.2,220.59,434.42,220.33,437.08,220.16z M238.11,310.04c0.16-1.19,0.31-1.96,0.36-2.74
	c0.15-2.84-0.85-4.04-3.69-4.12c-1.88-0.05-3.76,0.19-5.64,0.3C231.85,306.01,234.22,308.74,238.11,310.04z M456.85,310.32
	c2.97-2.2,5.48-4.07,8.46-6.28c-2.91-0.55-5.25-0.76-7.62-0.54c-1.19,0.11-1.67,0.92-1.57,2
	C456.26,306.91,456.54,308.31,456.85,310.32z"/>
<path class="st0" d="M347.34,323.86c-24.32,0-48.64,0-72.96-0.01c-1.36,0-2.73-0.02-4.07-0.21c-3.4-0.49-5.3-2.34-5.89-5.71
	c-0.2-1.17-0.2-2.39-0.2-3.59c-0.01-21.04-0.01-42.08,0.02-63.12c0-1.51,0.14-3.04,0.41-4.52c0.55-2.95,2.51-4.61,5.38-5.03
	c2.05-0.3,4.14-0.37,6.21-0.37c30.08,0.05,60.16,0.16,90.24,0.19c17.84,0.02,35.68-0.08,53.52-0.11c1.36,0,2.72,0.05,4.07,0.22
	c3.32,0.43,5.16,2.22,5.68,5.53c0.15,0.94,0.16,1.91,0.16,2.87c0.03,21.76,0.05,43.52,0.06,65.28c0,6.37-2.07,8.52-8.49,8.54
	c-14.48,0.03-28.96-0.05-43.44-0.07c-10.24-0.01-20.48,0-30.72,0C347.34,323.8,347.34,323.83,347.34,323.86z M419.42,308.59
	c0-0.92,0-1.63,0-2.33c0.02-16.48,0.04-32.96,0.06-49.43c0-0.72,0-1.44-0.09-2.16c-0.22-1.77-0.95-2.54-2.74-2.8
	c-0.86-0.13-1.75-0.09-2.63-0.09c-44.88-0.01-89.75-0.02-134.62-0.03c-3.55,0-4.6,0.97-4.61,4.52c-0.01,17.44,0.01,34.88,0.04,52.31
	c0,0.49,0.15,0.98,0.29,1.82c1.83-1.61,3.47-2.9,4.93-4.36c11.52-11.44,23.01-22.92,34.51-34.38c0.74-0.73,1.47-1.48,2.28-2.13
	c3.3-2.65,6.1-2.58,9.24,0.19c0.3,0.26,0.58,0.55,0.86,0.83c3.98,4.05,7.96,8.1,11.95,12.14c2.35,2.38,3.72,2.42,6.08,0.06
	c5.49-5.48,10.94-11.01,16.42-16.49c0.96-0.96,1.95-1.91,3.05-2.69c2.1-1.49,4.38-1.56,6.51-0.14c1.38,0.92,2.65,2.06,3.83,3.24
	c13.17,13.18,26.32,26.39,39.48,39.59C415.6,307.61,417.08,308.61,419.42,308.59z M406.82,313.15c-0.78-0.85-1.13-1.27-1.52-1.65
	c-6.5-6.4-12.96-12.83-19.52-19.17c-3.29-3.17-6.45-6.43-9.26-10.04c-1.27-1.62-2.75-3.14-4.37-4.42c-2.74-2.15-5.62-2.14-8.41-0.08
	c-1.34,0.99-2.51,2.23-3.65,3.45c-2.73,2.91-5.4,5.88-8.09,8.83c-0.27,0.29-0.55,0.59-0.78,0.91c-1.11,1.58-1.03,2.91,0.28,4.32
	c0.38,0.41,0.84,0.74,1.27,1.1c2.57,2.13,2.69,3.26,0.59,5.76c-0.21,0.24-0.42,0.48-0.64,0.72c-3.12,3.46-4.62,3.5-7.87,0.25
	c-6.33-6.33-12.68-12.66-19.01-18.99c-0.91-0.9-1.76-1.87-2.71-2.72c-1.26-1.12-2.07-1.14-3.43-0.19c-0.46,0.32-0.86,0.71-1.27,1.1
	c-9.71,9.29-19.42,18.58-29.12,27.88c-0.44,0.42-0.82,0.92-1.13,1.27c0.5,1.94,1.91,1.65,3.17,1.65c37.67,0,75.35,0,113.02,0
	C404.99,313.15,405.62,313.15,406.82,313.15z"/>
</svg>
