<?xml version="1.0" encoding="utf-8"?>
<!-- Generator: Adobe Illustrator 23.0.1, SVG Export Plug-In . SVG Version: 6.00 Build 0)  -->
<svg version="1.1" id="Слой_1" xmlns="http://www.w3.org/2000/svg" xmlns:xlink="http://www.w3.org/1999/xlink" x="0px" y="0px"
	 viewBox="0 0 643 652" style="enable-background:new 0 0 643 652;" xml:space="preserve">
<style type="text/css">
	.st0{fill-rule:evenodd;clip-rule:evenodd;fill:#008DD2;}
</style>
<path class="st0" d="M322.95,625.92c-169.42,0-306.48-137.11-306.53-306.47C16.38,150.78,153.24,13.2,322.86,13.13
	c169.13-0.07,306.74,136.91,306.67,306.59C629.46,488.91,492.28,625.92,322.95,625.92z M26.38,319.51
	c0.15,163.88,132.85,296.55,296.48,296.43c163.63-0.12,296.24-132.89,296.15-296.49C618.91,155.71,486.29,23.13,322.68,23.2
	C158.99,23.27,26.23,156.03,26.38,319.51z"/>
<path class="st0" d="M334.19,298.29c11.92,0,23.83,0,35.75,0.01c1.04,0,2.09-0.02,3.11,0.16c1.73,0.3,2.89,1.31,3.16,3.14
	c0.08,0.55,0.22,1.11,0.23,1.66c0.05,5.11-1.94,5.76-5.42,5.71c-5.76-0.09-11.52-0.06-17.28-0.07c-4.85-0.01-5.91,1.34-4.63,6
	c3.61,13.09,5.32,26.46,5.88,40c0.04,1.11,0.21,2.23,0.47,3.31c0.42,1.73,1.62,2.73,3.37,2.98c0.95,0.13,1.91,0.16,2.87,0.16
	c11.52,0,23.03,0,34.55-0.01c0.72,0,1.44,0.01,2.16-0.04c3.07-0.24,4.26-1.66,3.85-4.76c-0.4-3.01-0.88-6.01-1.38-9.01
	c-0.92-5.52-2.07-10.98-3.96-16.28c-1.18-3.32-0.44-4.86,2.71-6.36c0.86-0.41,1.75-0.8,2.67-1.07c2.32-0.67,3.48-0.11,4.2,2.23
	c1.3,4.19,2.71,8.38,3.65,12.66c8.94,40.83-0.61,77.26-27.08,109.19c-18.21,21.96-41.68,35.78-69.64,41.7
	c-12.2,2.59-24.54,3.27-36.98,2.25c-26.95-2.21-50.94-11.82-71.57-29.3c-22.94-19.44-36.95-44.16-42.43-73.72
	c-2.03-10.92-2.58-21.94-1.7-32.97c1.97-24.4,10.6-46.32,25.62-65.61c18.31-23.51,41.9-39.1,70.87-46.37
	c12.76-3.2,25.71-4.01,38.81-2.95c1.19,0.1,2.4,0.1,3.59,0.24c2.06,0.25,3.08,1.22,3.09,3.26c0,1.58-0.18,3.2-0.59,4.72
	c-0.53,1.95-1.73,2.71-3.74,2.68c-0.95-0.02-1.9-0.24-2.84-0.36c-1.84-0.24-2.93,0.47-3.3,2.29c-0.16,0.77-0.14,1.59-0.14,2.39
	c-0.01,12.24-0.02,24.47-0.02,36.71c0,0.48-0.01,0.96,0.02,1.44c0.18,2.44,1.26,3.63,3.7,3.92c1.11,0.13,2.24,0.09,3.35,0.09
	C310.83,298.29,322.51,298.28,334.19,298.29C334.19,298.29,334.19,298.29,334.19,298.29z M255.38,361.2c0,0.03,0,0.06,0,0.1
	c7.04,0,14.08,0.02,21.11-0.01c3.64-0.01,4.89-1.28,5-4.9c0.01-0.24,0-0.48,0-0.72c-0.02-13.68-0.03-27.35-0.06-41.03
	c-0.01-4.44-1.32-5.74-5.71-5.76c-0.4,0-0.8,0.01-1.2,0.01c-7.6,0.01-15.2,0.03-22.79,0.04c-3.52,0-7.04-0.06-10.56-0.03
	c-2.45,0.02-4.34,0.99-5.2,3.45c-0.21,0.6-0.37,1.22-0.54,1.84c-2.82,10.36-4.61,20.91-5.62,31.59c-0.35,3.74-0.56,7.5-0.62,11.25
	c-0.05,2.84,1.29,4.04,4.11,4.17c0.64,0.03,1.28,0,1.92,0C241.95,361.2,248.66,361.2,255.38,361.2z M318.56,361.25
	c0,0.01,0,0.02,0,0.02c6.64,0,13.28-0.03,19.92,0.01c5.09,0.03,6.16-0.94,5.93-5.96c-0.51-10.72-1.8-21.35-4.11-31.83
	c-0.76-3.43-1.57-6.86-2.56-10.23c-0.91-3.12-2.59-4.27-5.79-4.39c-0.48-0.02-0.96-0.01-1.44-0.01c-10.64,0-21.28-0.01-31.92,0
	c-0.88,0-1.77-0.02-2.63,0.11c-2.47,0.39-3.63,1.66-3.87,4.15c-0.05,0.56-0.05,1.12-0.05,1.68c0.01,13.44,0.02,26.88,0.04,40.32
	c0.01,4.93,1.36,6.18,6.33,6.15C305.12,361.22,311.84,361.25,318.56,361.25z M281.48,398.32c-0.02,0-0.04,0-0.05,0
	c0-6.71,0-13.43,0-20.14c0-0.8,0.02-1.6-0.08-2.39c-0.32-2.53-1.32-3.5-3.83-3.79c-0.55-0.06-1.12-0.07-1.67-0.07
	c-13.58-0.04-27.17-0.07-40.75-0.11c-5.02-0.02-6.12,1.05-5.91,6.03c0.46,10.88,1.8,21.65,4.14,32.28
	c0.76,3.43,1.67,6.82,2.58,10.21c0.69,2.54,2.4,3.88,5.07,3.93c0.48,0.01,0.96,0.01,1.44,0.01c11.03-0.01,22.06-0.02,33.08-0.03
	c0.72,0,1.44,0,2.15-0.07c2.47-0.26,3.52-1.31,3.79-3.81c0.08-0.71,0.04-1.44,0.04-2.16C281.48,411.59,281.48,404.96,281.48,398.32z
	 M292.03,397.87c0.02,0,0.04,0,0.06,0c0,6.64,0,13.28,0,19.91c0,5.29,1.38,6.57,6.74,6.55c10.39-0.03,20.79,0,31.18,0
	c1.04,0,2.08-0.06,3.1-0.18c2.01-0.22,3.39-1.35,4.18-3.17c0.38-0.87,0.68-1.79,0.93-2.71c2.16-7.96,3.68-16.04,4.66-24.22
	c0.66-5.47,1.14-10.97,1.46-16.48c0.25-4.3-1.4-5.77-5.71-5.71c-5.2,0.07-10.39,0.13-15.59,0.14c-2.96,0.01-5.91-0.1-8.87-0.12
	c-5.2-0.04-10.4-0.03-15.59-0.1c-5.23-0.07-6.56,1.22-6.56,6.41C292.04,384.76,292.03,391.31,292.03,397.87z M205.71,424.29
	c0,0.01,0,0.01,0,0.02c4.8,0,9.6,0.04,14.39-0.01c4.18-0.05,5.09-1.22,4.31-5.34c-1.19-6.28-2.38-12.56-3.6-18.83
	c-1.06-5.43-1.89-10.85-1.35-16.43c0.17-1.73-0.05-3.52-0.3-5.25c-0.6-4.21-3.23-6.75-7.44-7.2c-1.58-0.17-3.2-0.16-4.79-0.06
	c-3.03,0.18-6.05,0.66-9.08,0.69c-7.04,0.09-14.07-0.02-21.11-0.03c-0.95,0-1.93,0.02-2.86,0.2c-1.83,0.36-2.57,1.27-2.67,3.14
	c-0.03,0.63,0.02,1.28,0.11,1.91c0.41,2.77,0.8,5.54,1.29,8.29c2.09,11.79,5.59,23.11,11.04,33.82c1.87,3.66,4.56,5.26,8.63,5.11
	C196.75,424.17,201.23,424.29,205.71,424.29z M194.04,361.22c0,0.06,0,0.12,0,0.17c6.23,0,12.47,0.01,18.7,0
	c4.02-0.01,5.64-1.57,5.89-5.61c0.02-0.32,0.02-0.64,0.03-0.96c0.3-13.55,2-26.91,5.54-40.02c0.19-0.69,0.33-1.4,0.41-2.12
	c0.25-2.18-0.42-3.17-2.55-3.56c-1.01-0.19-2.06-0.2-3.1-0.2c-8.95-0.03-17.91,0.07-26.85-0.1c-3.94-0.08-6.62,1.46-8.26,4.91
	c-1.71,3.61-3.51,7.18-4.97,10.89c-3.92,9.94-6.02,20.34-7.49,30.89c-0.61,4.4,0.49,5.73,4.91,5.72
	C182.21,361.21,188.13,361.22,194.04,361.22z M379.34,371.96c0-0.06,0-0.12,0-0.17c-5.68,0-11.35,0.08-17.03-0.02
	c-5.7-0.1-7.12,1.29-7.48,7.05c-0.43,6.86-0.82,13.74-1.77,20.53c-0.9,6.47-2.45,12.86-3.8,19.27c-0.94,4.47-0.14,5.57,4.35,5.59
	c9.52,0.05,19.04,0.03,28.55,0.13c3.23,0.03,5.55-1.23,7.03-4.06c1.11-2.13,2.23-4.25,3.23-6.42c4.72-10.33,7.42-21.24,9.12-32.43
	c0.26-1.74,0.54-3.48,0.67-5.23c0.2-2.72-0.77-3.86-3.45-4.15c-1.03-0.11-2.08-0.07-3.11-0.07
	C390.21,371.95,384.77,371.96,379.34,371.96z M281.1,269.98c0.11-0.01,0.22-0.02,0.33-0.02c0-2.88,0.04-5.76-0.01-8.63
	c-0.03-1.76-0.13-3.52-0.33-5.26c-0.37-3.36-1.69-4.12-4.87-2.85c-0.89,0.35-1.74,0.81-2.59,1.24c-8.12,4.1-14.45,10.2-19.59,17.61
	c-4.48,6.46-8.05,13.42-11.36,20.53c-0.3,0.65-0.57,1.33-0.76,2.02c-0.56,2-0.09,2.85,1.89,3.34c0.77,0.19,1.58,0.28,2.37,0.31
	c1.68,0.06,3.36,0.02,5.04,0.07c5.43,0.15,10.86,0.31,16.28,0.5c2.07,0.07,4.15,0.41,6.21,0.31c5.41-0.26,8.16-2.99,8.59-8.36
	c0.07-0.87,0.02-1.76-0.03-2.63C281.89,282.09,281.5,276.04,281.1,269.98z M281.55,458.13c-0.02,0-0.05,0-0.07,0
	c0-5.99,0.01-11.99,0-17.98c-0.01-3.8-1.24-5.18-4.94-5.21c-10.23-0.08-20.45-0.12-30.68-0.09c-4.13,0.01-5.17,1.55-3.35,5.23
	c2.82,5.73,5.72,11.42,8.9,16.95c2.88,4.99,6.55,9.45,10.69,13.49c3.98,3.89,8.45,7.08,13.64,9.16c4.13,1.65,5.82,0.43,5.82-4.06
	C281.55,469.79,281.55,463.96,281.55,458.13z M292.06,457.35c0.02,0,0.04,0,0.07,0c0,5.6-0.04,11.19,0.02,16.79
	c0.02,1.51,0.18,3.04,0.51,4.51c0.37,1.67,1.4,2.25,3.04,1.77c1.22-0.35,2.4-0.87,3.54-1.43c8.83-4.36,15.67-10.92,21.13-19.03
	c4.48-6.66,7.86-13.89,11.03-21.24c0.16-0.37,0.31-0.74,0.39-1.13c0.29-1.33-0.22-2.21-1.56-2.47c-0.93-0.18-1.91-0.19-2.86-0.19
	c-9.91-0.06-19.82-0.1-29.74-0.13c-0.79,0-1.6,0.06-2.38,0.2c-1.85,0.35-2.8,1.34-3.09,3.17c-0.11,0.71-0.09,1.43-0.09,2.15
	C292.06,446,292.06,451.67,292.06,457.35z M323.36,476.08c11.32-3.99,21.74-9.26,31.31-16.18c9.51-6.87,23.02-20.58,24.57-25.01
	c-0.93,0-1.8,0-2.67,0c-7.92,0-15.83,0-23.75-0.01c-1.52,0-3.04-0.1-4.56-0.07c-2.11,0.04-3.64,1.05-4.54,2.98
	c-0.37,0.8-0.72,1.6-1.05,2.42c-4.61,11.38-9.94,22.35-18.05,31.74C323.72,472.98,323.08,474.18,323.36,476.08z M250.09,258.17
	c-0.54,0-0.7-0.03-0.84,0.01c-0.54,0.16-1.07,0.33-1.6,0.51c-20.34,6.74-37.18,18.51-50.66,35.14c-0.78,0.96-2.06,1.95-1.49,3.3
	c0.64,1.49,2.3,1.16,3.62,1.16c8.47,0.03,16.94,0.03,25.41,0.02c3.62,0,4.4-0.55,5.68-3.91c4.63-12.16,10.8-23.49,18.38-34.06
	C249.05,259.69,249.49,259.03,250.09,258.17z M249.75,475c-0.2-0.51-0.24-0.67-0.33-0.8c-8.17-11.35-14.76-23.56-19.69-36.65
	c-0.69-1.84-1.93-2.5-3.87-2.49c-10.08,0.05-20.16,0.01-30.23,0.02c-0.49,0-0.98,0.15-1.68,0.26
	C208.55,454.33,226.61,467.93,249.75,475z"/>
<path class="st0" d="M402.48,156.71c25.03,0,50.06-0.01,75.09,0.02c2.15,0,4.32,0.15,6.45,0.46c7.37,1.05,11.93,5.64,12.98,13.01
	c0.29,2.05,0.44,4.14,0.44,6.21c0.03,32.31,0.02,64.62,0,96.93c0,1.75-0.13,3.52-0.33,5.26c-0.97,8.79-6.22,13.88-15.11,14.38
	c-5.11,0.29-10.23,0.25-15.35,0.24c-12.24-0.02-24.47-0.12-36.71-0.15c-1.67,0-3.35,0.09-5.02,0.27c-3.82,0.41-6.9,2.26-9.58,4.97
	c-7.77,7.83-15.59,15.62-23.4,23.41c-0.56,0.56-1.15,1.12-1.78,1.6c-3.16,2.39-7.3,0.99-8.29-2.87c-0.31-1.22-0.38-2.53-0.39-3.8
	c-0.05-4.88-0.03-9.76-0.06-14.63c-0.01-1.12-0.04-2.25-0.22-3.35c-0.56-3.5-1.98-4.87-5.52-5.19c-2.39-0.22-4.79-0.32-7.18-0.32
	c-13.6-0.04-27.19-0.02-40.79-0.04c-1.92,0-3.86,0.02-5.75-0.23c-8.64-1.17-13.56-6.51-14.02-15.25c-0.18-3.35-0.11-6.72-0.11-10.07
	c-0.02-30.31-0.04-60.62-0.01-90.93c0-2.47,0.09-4.98,0.54-7.39c1.32-6.92,5.79-11.09,12.79-12.07c2.36-0.33,4.78-0.43,7.17-0.44
	C353.06,156.7,377.77,156.71,402.48,156.71z M326.92,280.83c0.27,1.92,1.62,1.77,2.92,1.76c13.03-0.01,26.07-0.04,39.1-0.01
	c5.83,0.01,11.67,0.04,17.5,0.27c3.92,0.15,5.24,1.61,5.48,5.52c0.15,2.39,0.12,4.79,0.14,7.19c0.02,2.72,0.03,5.44,0,8.16
	c-0.01,0.83,0.24,1.51,1.06,1.61c0.53,0.07,1.13-0.25,1.66-0.48c0.27-0.12,0.45-0.44,0.67-0.67c5.02-5.27,10.21-10.38,15.01-15.84
	c3.74-4.26,8.16-5.94,13.75-5.88c17.35,0.18,34.7,0.11,52.05,0.13c0.76,0,1.52-0.08,2.66-0.15c-0.8-0.86-1.31-1.44-1.85-1.98
	c-5.71-5.71-11.44-11.4-17.15-17.11c-11.31-11.3-22.61-22.62-33.93-33.92c-2.77-2.77-4.17-2.88-7.21-0.4
	c-1.79,1.46-3.4,3.15-5.12,4.69c-1.73,1.54-3.39,3.19-5.28,4.5c-3.73,2.58-7.65,2.6-11.43,0.05c-1.51-1.02-2.89-2.27-4.24-3.5
	c-1.3-1.18-2.47-2.51-3.74-3.72c-0.98-0.93-1.98-1.88-3.08-2.66c-2.25-1.61-3.74-1.53-5.85,0.2c-0.68,0.55-1.29,1.19-1.91,1.82
	c-16.46,16.66-32.89,33.37-50.09,49.28C327.61,280.06,327.25,280.49,326.92,280.83z M330.1,167.72c0.05,1.66,1.21,2.23,2.1,2.97
	c21.84,18.01,43.69,36,65.53,54.01c4.23,3.49,5.43,3.52,9.74-0.01c22.48-18.48,44.96-36.97,67.44-55.47
	c0.46-0.38,0.86-0.82,1.57-1.49C427.44,167.72,378.86,167.72,330.1,167.72z M486.34,273.16c0-32.79,0-65.45,0-98.07
	c-1.3-0.44-2.15,0.14-2.95,0.84c-0.78,0.68-1.55,1.38-2.36,2.04c-15.16,12.4-30.33,24.79-45.48,37.2c-0.86,0.71-1.67,1.49-2.4,2.33
	c-1.01,1.16-1.09,2.5-0.18,3.74c0.75,1.02,1.61,1.99,2.51,2.88c5.11,5.07,10.28,10.07,15.36,15.16
	c10.9,10.92,21.75,21.88,32.63,32.82C484.23,272.86,485.01,273.54,486.34,273.16z M319.12,173.84c0,33.81,0,66.99,0.01,100.18
	c0,0.05,0.09,0.11,0.15,0.15c0.07,0.03,0.15,0.04,0.22,0.06c0.13,0.13,0.26,0.26,0.39,0.4c0.41-0.6,0.73-1.28,1.23-1.78
	c16.53-16.61,33.08-33.2,49.62-49.79c3.41-3.42,3.35-4.29-0.41-7.36c-16.28-13.31-32.56-26.63-48.84-39.94
	C320.84,175.2,320.18,174.68,319.12,173.84z"/>
</svg>
