<?xml version="1.0" encoding="utf-8"?>
<!-- Generator: Adobe Illustrator 23.0.1, SVG Export Plug-In . SVG Version: 6.00 Build 0)  -->
<svg version="1.1" id="Слой_1" xmlns="http://www.w3.org/2000/svg" xmlns:xlink="http://www.w3.org/1999/xlink" x="0px" y="0px"
	 viewBox="0 0 643 652" style="enable-background:new 0 0 643 652;" xml:space="preserve">
<style type="text/css">
	.st0{fill-rule:evenodd;clip-rule:evenodd;fill:#008DD2;}
</style>
<path class="st0" d="M322.6,625.92C154.12,625.96,16.32,489.43,16.34,319.5C16.37,149.41,154.39,13.13,322.67,13.12
	c168.65-0.01,306.44,136.71,306.37,306.55C628.97,488.92,491.83,625.93,322.6,625.92z M26.38,319.54
	c0.22,163.92,132.89,296.55,296.51,296.4c163.64-0.15,296.23-132.91,296.12-296.52C618.9,155.68,486.26,23.22,322.65,23.16
	C160.03,23.1,26.44,155.08,26.38,319.54z"/>
<path class="st0" d="M345.97,509.86c-44.88,0-89.76,0.01-134.64-0.01c-2.47,0-4.96-0.1-7.42-0.36c-2.9-0.31-4.11-1.58-4.49-4.41
	c-0.19-1.42-0.34-2.86-0.34-4.3c0.03-44.88,0.08-89.76,0.11-134.64c0-2.24,0.02-4.49-0.18-6.71c-0.27-3.05-1.68-4.36-4.75-4.71
	c-0.87-0.1-1.76-0.08-2.63-0.08c-10,0.02-19.99,0.07-29.99,0.05c-1.43,0-2.88-0.19-4.28-0.5c-8.23-1.83-12.96-7.95-13-16.91
	c-0.06-11.44-0.04-22.88-0.04-34.32c0-42.96,0.01-85.92,0.05-128.88c0-2.07,0.12-4.18,0.55-6.19c1.39-6.67,6.28-11.02,13.51-12.14
	c1.97-0.3,3.98-0.48,5.97-0.48c85.28-0.02,170.56-0.02,255.84,0c2.31,0,4.66,0.15,6.91,0.61c7.79,1.6,12.45,7.19,12.81,15.48
	c0.25,5.83,0.23,11.68,0.23,17.51c-0.05,37.04-0.13,74.08-0.17,111.12c0,1.99,0.12,4,0.41,5.96c0.36,2.48,1.88,4.01,4.42,4.36
	c1.1,0.15,2.23,0.25,3.34,0.25c10.8-0.08,21.59-0.19,32.39-0.28c2.24-0.02,4.48-0.05,6.72,0c4.54,0.1,6.77,2.02,7.47,6.46
	c0.21,1.33,0.29,2.7,0.29,4.05c-0.02,28.88-0.08,57.76-0.08,86.64c0,30.72,0.07,61.44,0.09,92.16c0,1.43-0.12,2.88-0.36,4.29
	c-0.53,3.08-2.36,5.04-5.47,5.58c-1.72,0.3-3.49,0.45-5.24,0.45c-20.08-0.01-40.16-0.08-60.24-0.09c-25.92-0.02-51.84,0-77.76,0
	C345.97,509.84,345.97,509.85,345.97,509.86z M347.19,498.54c0,0.03,0,0.06,0,0.09c0.88,0,1.76,0,2.64,0
	c20.88-0.02,41.75-0.08,62.63-0.05c21.04,0.03,42.07,0.14,63.11,0.19c1.35,0,2.72-0.03,4.06-0.23c2.67-0.41,3.62-1.33,4.1-3.93
	c0.21-1.17,0.3-2.38,0.29-3.57c-0.07-20.88-0.24-41.75-0.23-62.62c0.02-33.03,0.16-66.07,0.23-99.1c0-1.43-0.14-2.87-0.39-4.28
	c-0.32-1.84-1.5-3.01-3.36-3.27c-1.66-0.23-3.34-0.38-5.01-0.38c-46.23,0.04-92.46,0.16-138.69,0.16c-38.55,0-77.1-0.12-115.66-0.17
	c-1.68,0-3.37-0.04-5.03,0.11c-4.2,0.39-5.64,1.91-5.8,6.11c-0.08,2.16-0.03,4.32-0.03,6.48c0.03,32.87,0.07,65.75,0.08,98.62
	c0,19.28-0.08,38.55-0.09,57.83c0,1.51,0.16,3.03,0.42,4.51c0.35,1.96,1.7,3.04,3.6,3.37c1.25,0.21,2.54,0.32,3.81,0.32
	c6.64-0.01,13.28-0.09,19.92-0.09c35.51-0.04,71.02-0.06,106.54-0.09C345.27,498.54,346.23,498.54,347.19,498.54z M167.98,166.83
	c-0.1,0.14-0.19,0.27-0.29,0.41c1.18,1.03,2.31,2.12,3.54,3.09c38.07,29.72,76.15,59.42,114.24,89.12c1.01,0.78,2.05,1.53,3.15,2.18
	c2.41,1.41,4.89,1.39,7.29-0.02c1.17-0.69,2.28-1.49,3.34-2.32c18.72-14.61,37.42-29.26,56.14-43.86
	c20.05-15.64,40.13-31.24,60.19-46.86c0.57-0.44,1.09-0.96,1.95-1.73C333.98,166.83,250.98,166.83,167.98,166.83z M386.46,309.56
	c0.12-1.26-0.77-1.91-1.48-2.63c-17.41-17.66-34.83-35.31-52.24-52.96c-0.28-0.28-0.56-0.58-0.85-0.85
	c-2.28-2.13-3.8-2.23-6.37-0.37c-0.78,0.56-1.51,1.18-2.27,1.77c-8.37,6.57-16.73,13.14-25.11,19.69
	c-4.13,3.23-7.35,3.38-11.32,0.31c-8.35-6.46-16.61-13.03-24.91-19.55c-1.07-0.84-2.15-1.67-3.29-2.4c-1.9-1.21-3.83-1.08-5.59,0.27
	c-1.26,0.97-2.43,2.08-3.55,3.22c-16.27,16.53-32.5,33.11-48.79,49.62c-11.35,11.5-22.79,22.9-34.2,34.34
	c-0.95,0.95-1.56,1.96-0.94,3.5c0.77,0,1.48,0,2.19,0c6.48-0.02,12.95,0.05,19.41,0.72c2.2,0.23,4.5,0.12,6.68-0.25
	c3.76-0.64,5.75-2.88,6.04-6.69c0.16-2.21,0.05-4.48-0.21-6.69c-0.59-5.02-0.97-10.02-0.21-15.06c0.49-3.25,1.63-4.54,4.88-4.9
	c2.3-0.26,4.62-0.32,6.94-0.32c55.11-0.02,110.23-0.02,165.34-0.02c1.76,0,3.52,0.11,5.27,0.15
	C383.46,310.49,385.06,310.53,386.46,309.56z M155.86,335.46c1.07-1.05,1.85-1.8,2.61-2.56c27.99-28.35,55.98-56.7,83.96-85.05
	c0.67-0.68,1.36-1.37,1.92-2.14c1.38-1.88,1.22-3.29-0.58-4.78c-1.54-1.27-3.18-2.43-4.75-3.66
	c-26.75-20.84-53.49-41.69-80.23-62.54c-0.88-0.69-1.76-1.07-2.92-0.33C155.86,227.89,155.86,281.43,155.86,335.46z M429.03,173.06
	c-1.77,1.07-3.12,1.73-4.29,2.63c-27.57,21.35-55.11,42.73-82.65,64.11c-0.69,0.54-1.39,1.1-1.96,1.75
	c-1.28,1.46-1.27,2.51-0.05,4.05c0.3,0.37,0.64,0.71,0.98,1.05c3.12,3.11,6.22,6.22,9.35,9.31c13.99,13.84,28.08,27.58,41.19,42.27
	c1.12,1.25,2.35,2.4,3.58,3.54c8.2,7.52,17.82,10.34,28.79,8.58c0.86-0.14,1.73-0.3,2.57-0.54c1.33-0.39,2.22-1.27,2.43-2.68
	c0.15-0.94,0.28-1.9,0.27-2.85c-0.05-3.68-0.25-7.35-0.25-11.03c0-38.8,0.02-77.59,0.03-116.39
	C429.03,175.84,429.03,174.81,429.03,173.06z"/>
<path class="st0" d="M473.11,409.88c0,18.8,0.01,37.6-0.02,56.4c0,1.75-0.14,3.52-0.48,5.23c-0.53,2.72-2.38,4.31-5.05,4.81
	c-1.48,0.28-3.02,0.37-4.53,0.37c-22.48,0.03-44.96,0.04-67.43,0.03c-1.59,0-3.21-0.1-4.77-0.4c-2.75-0.53-4.63-2.18-5.17-5
	c-0.3-1.56-0.45-3.17-0.45-4.75c0.01-33.68,0.06-67.36,0.09-101.04c0-4.08-0.09-8.16-0.1-12.24c-0.01-7.34,2.47-9.87,9.76-9.84
	c13.52,0.05,27.04,0.21,40.56,0.23c9.2,0.01,18.4-0.17,27.6-0.21c1.51-0.01,3.04,0.15,4.52,0.42c2.7,0.5,4.46,2.14,5,4.85
	c0.31,1.55,0.45,3.17,0.46,4.75C473.12,372.28,473.11,391.08,473.11,409.88z M461.96,407.11c0-1.29,0-1.98,0-2.67
	c0.02-14.96,0.04-29.91,0.05-44.87c0-0.64,0.01-1.29-0.08-1.92c-0.27-1.73-1.06-2.53-2.8-2.76c-1.03-0.14-2.07-0.17-3.11-0.17
	c-17.83-0.02-35.67-0.03-53.5-0.02c-0.96,0-1.92,0.03-2.87,0.17c-2,0.32-2.96,1.3-3.27,3.26c-0.1,0.63-0.09,1.28-0.09,1.91
	c0.01,18.55,0.04,37.11,0.05,55.66c0,3.52,0.04,7.04-0.02,10.56c-0.02,1.4,0.54,2.07,1.94,2.15c0.24-0.21,0.51-0.39,0.72-0.62
	c3.88-4.15,7.71-8.33,11.63-12.44c1.37-1.44,2.8-2.89,4.44-3.98c2.35-1.56,4.88-1.41,7.16,0.31c1.01,0.76,1.97,1.66,2.72,2.68
	c3.08,4.18,5.33,3.59,8.49,0.25c4.12-4.36,8.38-8.58,12.59-12.86c0.39-0.4,0.8-0.78,1.24-1.13c2.62-2.06,5.04-2.08,7.63-0.02
	c0.81,0.65,1.52,1.42,2.28,2.12C458.6,404.08,460.05,405.38,461.96,407.11z M429.13,465.44
	C429.13,465.44,429.13,465.44,429.13,465.44c9.12-0.01,18.23-0.03,27.35,0c4.55,0.01,5.62-1.01,5.52-5.67
	c-0.09-4.48-0.37-8.95-0.34-13.43c0.03-5.27,0.21-10.55,0.49-15.81c0.21-3.98-0.95-7.42-3.59-10.34c-1.71-1.9-3.52-3.72-5.36-5.49
	c-1.66-1.6-2.62-1.57-4.32,0.02c-2.16,2.02-4.34,4.03-6.39,6.15c-1.21,1.25-2.33,2.65-3.25,4.13c-1.35,2.18-1.19,3.56,0.63,5.37
	c1.41,1.41,3.05,2.57,4.53,3.91c1,0.91,2,1.85,2.83,2.9c1.06,1.33,1.11,2.87,0.06,4.21c-1.02,1.31-2.15,2.59-3.43,3.65
	c-1.58,1.32-2.97,1.2-4.56-0.06c-0.44-0.35-0.82-0.76-1.21-1.16c-4.82-4.91-9.63-9.82-14.45-14.72c-0.67-0.68-1.38-1.34-2.13-1.93
	c-2.36-1.85-3.96-2.01-6.23-0.06c-5.34,4.58-10.59,9.28-14.89,14.91c-4.28,5.61-5.58,11.91-4.11,18.8c0.79,3.71,1.93,4.63,5.74,4.62
	C411.06,465.43,420.1,465.44,429.13,465.44z"/>
<path class="st0" d="M363.35,409.87c0-14,0.01-27.99,0-41.99c-0.01-10-0.05-20-0.05-29.99c0-0.79,0.14-1.59,0.25-2.38
	c0.22-1.75,1.36-2.64,2.96-3.05c0.46-0.12,0.95-0.13,1.43-0.16c5.14-0.3,6.64,1.11,6.64,6.25c-0.01,47.67-0.02,95.34-0.03,143
	c0,0.16,0.01,0.32,0,0.48c-0.07,1.92,0.14,4.06-1.9,5.09c-2.39,1.2-4.98,1.18-7.41,0.03c-0.69-0.33-1.29-1.23-1.54-2
	c-0.34-1.04-0.42-2.2-0.42-3.31c-0.01-23.35,0.01-46.71,0.02-70.06c0-0.64,0-1.28,0-1.92C363.31,409.87,363.33,409.87,363.35,409.87
	z"/>
<path class="st0" d="M286.55,426.48c19.99,0,39.98,0,59.96,0c5.03,0,6.3,1.28,6.19,6.23c-0.08,3.8-1.41,5.19-5.27,5.22
	c-7.92,0.05-15.83,0.01-23.75,0.01c-30.94-0.02-61.88-0.04-92.82-0.05c-1.68,0-3.36,0.07-5.04,0.07c-3.35-0.01-4.62-1.13-5.06-4.45
	c-0.07-0.55-0.09-1.12-0.07-1.67c0.17-4.08,1.56-5.37,5.64-5.37c20.07,0.01,40.14,0,60.2,0
	C286.55,426.47,286.55,426.48,286.55,426.48z"/>
<path class="st0" d="M286.71,415.75c-19.6,0-39.19,0-58.79-0.01c-1.28,0-2.56-0.08-3.82-0.25c-1.7-0.23-2.78-1.29-3.01-2.96
	c-0.19-1.4-0.25-2.87-0.08-4.27c0.29-2.41,1.25-3.31,3.67-3.71c0.86-0.14,1.75-0.15,2.63-0.15c39.68-0.01,79.35-0.02,119.02-0.02
	c5.08,0,6.43,1.4,6.33,6.42c-0.07,3.51-1.21,4.78-4.76,4.9c-3.36,0.11-6.72,0.03-10.08,0.03c-17.04,0-34.08,0-51.11,0
	C286.71,415.73,286.71,415.74,286.71,415.75z"/>
<path class="st0" d="M286.82,393.58c-19.84,0-39.68,0-59.52-0.01c-1.11,0-2.24-0.07-3.34-0.22c-1.62-0.22-2.64-1.25-2.87-2.81
	c-0.2-1.4-0.25-2.87-0.09-4.28c0.29-2.57,1.48-3.65,4.03-3.93c0.71-0.08,1.44-0.04,2.16-0.04c39.68,0,79.36,0,119.03,0
	c5.37,0,6.65,1.35,6.43,6.73c-0.13,3.08-1.3,4.3-4.4,4.52c-0.88,0.06-1.76,0.03-2.64,0.03
	C326.02,393.58,306.42,393.58,286.82,393.58z"/>
<path class="st0" d="M276.04,460.05c-15.83,0-31.66,0-47.5,0c-0.64,0-1.28,0-1.92,0c-4.38-0.04-5.95-1.63-5.83-5.98
	c0.02-0.72,0.12-1.44,0.26-2.14c0.37-1.82,1.35-2.75,3.25-3c0.95-0.13,1.91-0.12,2.87-0.12c17.51-0.01,35.02,0.02,52.53-0.01
	c14.55-0.03,29.1-0.14,43.66-0.19c1.43,0,2.87,0.13,4.29,0.34c1.59,0.23,2.65,1.24,2.85,2.82c0.19,1.48,0.27,3.03,0.07,4.5
	c-0.35,2.56-1.59,3.57-4.16,3.76c-0.8,0.06-1.6,0.02-2.4,0.02C308.02,460.05,292.03,460.05,276.04,460.05z"/>
<path class="st0" d="M275.95,360.13c8.48,0,16.96,0,25.43,0c0.64,0,1.28-0.01,1.92,0c1.94,0.03,4.08-0.08,4.95,2.08
	c1.02,2.52,1.09,5.2-0.36,7.62c-0.39,0.66-1.35,1.15-2.14,1.35c-1.06,0.28-2.21,0.27-3.33,0.27c-17.67,0.01-35.35,0.01-53.02,0.01
	c-0.64,0-1.28,0.04-1.92,0c-3.27-0.22-4.53-1.51-4.74-4.81c-0.32-5.03,1.07-6.51,6.09-6.52
	C257.88,360.13,266.92,360.13,275.95,360.13z"/>
<path class="st0" d="M226.49,371.33c-0.37,0.05-0.61,0.1-0.84,0.12c-3.05,0.21-4.34-0.8-4.63-3.8c-0.13-1.34-0.15-2.72,0.01-4.05
	c0.23-1.98,1.25-3.06,3.21-3.32c1.49-0.2,3.04-0.23,4.54-0.09c1.97,0.19,3.06,1.25,3.26,3.24c0.16,1.58,0.16,3.21-0.06,4.78
	c-0.34,2.45-1.67,3.38-4.18,3.27C227.31,371.45,226.84,371.37,226.49,371.33z"/>
<path class="st0" d="M352.53,454.81c0.01,0.19,0.07,0.67,0.08,1.14c0.06,2.42-0.63,3.44-2.97,3.81c-1.64,0.26-3.33,0.3-4.99,0.23
	c-1.61-0.07-2.69-1.01-2.91-2.67c-0.25-1.88-0.25-3.81-0.18-5.71c0.05-1.33,0.96-2.28,2.23-2.47c1.79-0.27,3.65-0.47,5.44-0.3
	c2.49,0.23,3.4,1.48,3.41,4.02C352.63,453.41,352.57,453.97,352.53,454.81z"/>
<path class="st0" d="M440.04,382.53c-0.04,9.04-7.63,16.64-16.49,16.52c-8.9-0.11-16.35-7.8-16.3-16.8
	c0.06-9.06,7.56-16.53,16.54-16.46C432.76,365.86,440.09,373.41,440.04,382.53z M423.74,387.59c2.8,0.03,5.21-2.37,5.2-5.17
	c-0.01-2.92-2.46-5.33-5.39-5.33c-2.89,0.01-5.01,2.19-5.12,5.25C418.32,385.37,420.54,387.56,423.74,387.59z"/>
</svg>
