<?xml version="1.0" encoding="utf-8"?>
<!-- Generator: Adobe Illustrator 23.0.1, SVG Export Plug-In . SVG Version: 6.00 Build 0)  -->
<svg version="1.1" id="Слой_1" xmlns="http://www.w3.org/2000/svg" xmlns:xlink="http://www.w3.org/1999/xlink" x="0px" y="0px"
	 viewBox="0 0 643 652" style="enable-background:new 0 0 643 652;" xml:space="preserve">
<style type="text/css">
	.st0{fill-rule:evenodd;clip-rule:evenodd;fill:#008DD2;}
</style>
<path class="st0" d="M322.56,625.92c-168.22,0.06-306.33-136.1-306.32-306.4c0.01-170.59,138.51-306.52,306.57-306.4
	C491.4,13.24,629.16,149.94,629.03,319.9C628.9,488.94,491.7,625.93,322.56,625.92z M26.38,319.41
	C26.33,483.04,158.79,615.79,322.53,615.9c164.5,0.11,296.37-133.39,296.49-295.89c0.13-163.88-132.24-296.66-296-296.82
	C159.28,23.03,26.43,155.69,26.38,319.41z"/>
<path class="st0" d="M200.21,260.75c0-25.36-0.04-50.71,0.04-76.07c0.01-3.98,0.16-8.03,0.87-11.94
	c2.02-11.07,10.49-19.07,21.69-20.84c2.2-0.35,4.45-0.53,6.68-0.53c43.59-0.01,87.18-0.01,130.78,0.08c3.09,0.01,6.25,0.4,9.24,1.16
	c10.27,2.63,16.91,10.5,18.09,21.17c0.25,2.3,0.4,4.62,0.4,6.94c0.03,52.39,0.05,104.78-0.01,157.17c0,3.5-0.31,7.06-1.04,10.47
	c-2.29,10.71-9.16,16.91-19.78,18.97c-3.04,0.59-6.18,0.81-9.29,0.93c-4.23,0.16-8.48,0.04-12.72,0.05c-1.52,0-3.04,0.06-4.56,0.06
	c-5.81,0-10.36,2.26-13.42,7.32c-1.36,2.26-2.86,4.43-4.24,6.68c-1.76,2.86-1.68,4.14,0.53,6.67c6.69,7.64,13.42,15.25,20.13,22.87
	c4.17,4.74,8.44,9.41,12.47,14.28c2.24,2.71,4.9,3.82,8.34,3.86c3.51,0.04,7.04,0.22,10.51,0.73c8.21,1.21,15.52,4.53,21.37,10.48
	c3.83,3.9,8.06,4.72,13.12,3.18c11.76-3.59,23.56-7.08,35.34-10.61c18.29-5.48,36.58-10.95,54.87-16.42
	c1.3-0.39,2.62-0.76,3.95-0.99c2.02-0.34,2.83,0.27,3.13,2.28c0.17,1.1,0.25,2.23,0.26,3.34c0.03,2.64-0.02,5.28-0.01,7.92
	c0.05,9.12,0.06,18.23,0.18,27.35c0.09,6.49-1.52,8.85-7.79,10.44c-18.43,4.67-36.88,9.26-55.32,13.88
	c-8.21,2.06-16.4,4.25-24.65,6.12c-5.32,1.21-8.94,4.08-11.41,8.93c-6.8,13.35-17.67,21.65-32.24,24.99
	c-25.74,5.91-52.28-12.41-55.91-38.46c-0.83-5.93-0.52-11.8,0.81-17.63c0.23-1.01,0.51-2.02,0.66-3.04c0.56-3.68-0.49-6.91-2.6-9.93
	c-7.08-10.17-14.19-20.33-21.11-30.61c-9.41-14-18.63-28.13-27.98-42.17c-1.46-2.19-3.06-4.31-4.86-6.22
	c-3.08-3.26-7.01-4.99-11.49-5.3c-2.39-0.17-4.79-0.2-7.18-0.13c-7.52,0.23-15.03,0.5-22.49-0.79c-3.41-0.59-6.69-1.56-9.75-3.2
	c-7.99-4.27-12.37-11-12.93-19.97c-0.46-7.34-0.61-14.7-0.63-22.06c-0.08-20.48-0.03-40.95-0.03-61.43
	C200.24,260.75,200.23,260.75,200.21,260.75z M375.28,259.73c-0.02,0-0.04,0-0.06,0c0-26.63,0.01-53.27-0.03-79.9
	c0-2.3-0.19-4.65-0.63-6.91c-0.86-4.46-3.65-7.25-8.13-8.03c-2.43-0.42-4.92-0.59-7.39-0.59c-41.59-0.03-83.18-0.03-124.77-0.02
	c-2.64,0-5.29-0.06-7.92,0.11c-8.35,0.56-13.17,5.54-13.54,13.87c-0.06,1.36-0.06,2.72-0.06,4.08
	c-0.04,51.83-0.09,103.65-0.12,155.48c0,1.6,0.06,3.21,0.25,4.79c0.61,5.07,3.47,8.71,7.69,11.27c2.86,1.74,5.21,0.2,5.29-3.13
	c0.06-2.31,0.09-4.66,0.53-6.91c1.68-8.69,6.38-14.9,15.13-17.47c2.05-0.6,4.22-1,6.36-1.12c7.74-0.43,15.5-0.83,23.25-1.01
	c20.71-0.49,41.43-0.22,62.13,0.54c3.67,0.13,7.37,0.3,10.98,0.9c7.88,1.31,13.36,5.77,16.23,13.3c0.48,1.27,0.98,2.56,1.21,3.88
	c0.52,3.06,0.95,6.15,1.29,9.23c0.25,2.25,1.46,3.29,3.69,2.86c0.46-0.09,0.93-0.26,1.34-0.5c3.33-1.92,5.86-4.56,6.59-8.41
	c0.49-2.57,0.66-5.23,0.67-7.86C375.3,312.04,375.28,285.89,375.28,259.73z M400.3,476.37c0.03-18.93-14.72-33.6-33.86-33.67
	c-18.97-0.07-34.44,14.7-34.49,32.93c-0.05,19.67,14.82,34.36,34.78,34.37C385.14,510.01,400.27,494.86,400.3,476.37z
	 M300.72,355.27c11.87,0.09,28.5,0.21,45.13,0.33c2.93,0.02,4.55-1.27,4.81-4.18c0.12-1.32,0-2.74-0.39-4
	c-0.51-1.66-1.31-3.26-2.14-4.8c-1.4-2.61-3.64-4.29-6.5-4.9c-2.01-0.42-4.12-0.6-6.18-0.6c-27.59-0.04-55.18-0.03-82.78-0.02
	c-1.2,0-2.4-0.01-3.6,0.09c-7.41,0.63-12.59,7.44-11.19,14.69c0.58,3,2.03,4.07,5.06,3.78c1.67-0.16,3.34-0.37,5.02-0.38
	C263.96,355.26,279.96,355.27,300.72,355.27z M411.31,461.79c0.09,0.96,0.14,1.92,0.27,2.87c0.35,2.45,0.64,4.92,1.15,7.34
	c0.64,2.97,2.03,3.82,5.04,3.35c0.87-0.14,1.72-0.38,2.57-0.6c21.38-5.72,42.76-11.4,64.36-16.26c2.38-0.54,4.73-1.51,6.9-2.64
	c2.66-1.39,3.67-3.87,3.44-6.86c-0.19-2.54-0.33-5.09-0.53-7.64c-0.13-1.67-0.18-3.37-0.49-5.01c-0.4-2.08-1.45-2.92-3.57-2.68
	c-1.97,0.22-3.93,0.71-5.83,1.27c-20.68,6.13-41.35,12.28-62.01,18.47c-2.6,0.78-5.15,1.72-7.67,2.72
	C412.43,457.12,411.26,459.09,411.31,461.79z M299.27,392.46c-1.78-0.14-3,0.49-3.59,1.78c-0.63,1.38,0.02,2.44,0.84,3.5
	c1.41,1.83,2.86,3.65,4.12,5.58c8.05,12.31,16.04,24.66,24.11,36.95c0.91,1.38,2.07,2.66,3.35,3.7c1.5,1.24,3.29,1.19,4.89,0.03
	c0.9-0.65,1.74-1.42,2.49-2.23c2.02-2.18,4.07-4.31,6.99-5.3c0.3-0.1,0.56-0.3,0.82-0.49c1.64-1.17,2.01-2.38,1.04-4.13
	c-0.57-1.04-1.34-1.98-2.14-2.87c-2.82-3.16-5.73-6.25-8.53-9.43c-6.55-7.45-13.11-14.89-19.56-22.42
	c-2.82-3.29-6.29-4.79-10.55-4.68C302.13,392.49,300.7,392.46,299.27,392.46z M297.1,368.31c0,0,0-0.01,0-0.01
	c-2.31,0-4.63,0-6.94,0c-3.11,0-6.22-0.06-9.33,0.03c-2.26,0.06-3.23,1.84-2.14,3.81c0.27,0.48,0.64,0.91,1,1.34
	c1.87,2.28,4.23,3.9,6.97,4.89c7.36,2.67,14.7,2.5,21.93-0.5c2.46-1.02,4.62-2.53,6.25-4.69c0.52-0.69,1-1.46,1.28-2.27
	c0.41-1.16,0.06-1.88-1.11-2.23c-0.9-0.27-1.88-0.34-2.82-0.35C307.15,368.29,302.12,368.31,297.1,368.31z"/>
<path class="st0" d="M293.31,169.97c36.52-0.13,68.11,25.75,74.54,61.76c6.51,36.45-14.45,68.12-44.34,80.75
	c-40.26,17.02-87.12-2.77-100.73-45.82c-13.86-43.83,13.61-83.69,51.74-94.11C280.96,170.79,287.52,169.9,293.31,169.97z
	 M293.61,305.83c9.22-0.11,18.08-1.91,26.53-5.68c27.74-12.35,42.2-41.99,34.57-70.82c-9.89-37.35-50.72-56.89-86.16-41.22
	c-24.43,10.8-41.36,36.73-36.06,66.62C237.72,284.28,263.46,305.88,293.61,305.83z"/>
<path class="st0" d="M356.93,182.19c-3.83,0.03-6.34-2.31-6.34-5.91c0-3.76,2.36-6.11,6.08-6.19c3.99-0.09,6.02,2.9,6.22,5.92
	C363.12,179.29,360.21,182.16,356.93,182.19z"/>
<path class="st0" d="M294.01,293.7c-27.75-0.06-49.83-22.13-49.69-49.66c0.14-27.58,22.31-49.42,50.08-49.31
	c27.64,0.11,49.67,22.24,49.59,49.82C343.9,271.88,321.65,293.76,294.01,293.7z M294.84,281.2c0.93-0.06,2.62-0.09,4.28-0.3
	c1.5-0.19,2.99-0.51,4.46-0.88c20.74-5.23,32.92-26.94,26.38-47c-5.97-18.34-25.47-29.23-44.44-24.83
	c-19.78,4.58-32.13,23.82-28.04,43.67C260.99,268.93,276.33,281.22,294.84,281.2z"/>
<path class="st0" d="M293.4,213.4c0.43,0.06,1.23,0.13,2,0.29c2.96,0.63,4.45,2.52,4.65,5.83c0.16,2.7-1.18,4.7-3.92,5.62
	c-0.98,0.33-2.02,0.45-3.04,0.65c-1.18,0.23-2.37,0.36-3.53,0.65c-7.79,2-12.21,7.15-13.8,14.91c-0.32,1.56-0.54,3.16-1.04,4.67
	c-0.99,3.01-3.08,4.4-5.94,4.16c-3.36-0.27-5.51-2.02-5.7-5.35c-0.15-2.59,0.15-5.29,0.74-7.82
	C266.8,224.24,278.93,213.86,293.4,213.4z"/>
</svg>
