<?xml version="1.0" encoding="utf-8"?>
<!-- Generator: Adobe Illustrator 23.0.1, SVG Export Plug-In . SVG Version: 6.00 Build 0)  -->
<svg version="1.1" id="Слой_1" xmlns="http://www.w3.org/2000/svg" xmlns:xlink="http://www.w3.org/1999/xlink" x="0px" y="0px"
	 viewBox="0 0 643 652" style="enable-background:new 0 0 643 652;" xml:space="preserve">
<style type="text/css">
	.st0{fill-rule:evenodd;clip-rule:evenodd;fill:#008DD2;}
</style>
<path class="st0" d="M322.97,625.92c-169.44,0-306.49-137.08-306.55-306.45C16.36,150.89,153.16,13.14,323.09,13.12
	c169.17-0.02,306.62,136.85,306.7,306.35C629.86,488.84,492.61,625.93,322.97,625.92z M26.38,319.38
	C26.24,482.94,158.74,615.76,322.49,615.9c164.5,0.14,296.38-133.35,296.53-295.85c0.14-163.88-132.2-296.67-295.97-296.86
	C159.32,23,26.52,155.59,26.38,319.38z"/>
<path class="st0" d="M316.85,445.06c54.39,0,108.78,0,163.16,0c2.32,0,4.64,0.05,6.96,0.12c0.79,0.02,1.59,0.13,2.37,0.3
	c2.79,0.61,3.95,1.83,4.31,4.7c0.23,1.82,0.37,3.67,0.38,5.5c0.03,12.24,0.03,24.47,0,36.71c0,1.67-0.15,3.36-0.37,5.02
	c-0.36,2.72-1.57,4.01-4.25,4.43c-1.81,0.28-3.66,0.41-5.49,0.41c-15.68,0.03-31.35,0.03-47.03,0.03c-94.78,0-189.56,0-284.34-0.01
	c-2.79,0-5.6-0.07-8.37-0.37c-3.01-0.33-4.21-1.61-4.59-4.62c-0.22-1.74-0.22-3.51-0.22-5.27c-0.01-12.88-0.01-25.75,0.04-38.63
	c0.01-1.5,0.24-3.03,0.55-4.5c0.36-1.7,1.54-2.79,3.22-3.2c1-0.25,2.04-0.43,3.07-0.48c2.24-0.1,4.48-0.13,6.72-0.13
	C207.6,445.05,262.22,445.06,316.85,445.06z M255.4,490.8c0-0.01,0-0.01,0-0.02c32.31,0,64.62,0,96.94-0.01c1.27,0,2.57,0,3.82-0.23
	c2.65-0.49,3.85-1.9,4.02-4.6c0.08-1.27-0.02-2.56-0.03-3.84c-0.01-5.51-0.01-11.02-0.03-16.54c0-1.6,0.11-3.21-0.11-4.78
	c-0.33-2.33-1.4-3.35-3.73-3.74c-1.33-0.22-2.71-0.26-4.06-0.26c-34.79,0.03-69.58,0.11-104.38,0.12c-29.67,0-59.35-0.08-89.02-0.12
	c-1.2,0-2.41,0-3.59,0.14c-3.26,0.38-4.47,1.71-4.65,4.98c-0.03,0.48,0.01,0.96,0.05,1.44c0.43,6.39,0.54,12.78-0.02,19.17
	c-0.09,1.03-0.11,2.08-0.03,3.12c0.24,3.09,1.69,4.66,4.75,5.07c1.18,0.16,2.39,0.12,3.59,0.12
	C191.09,490.8,223.25,490.8,255.4,490.8z M427.05,490.78c16.47,0,32.94,0,49.41,0c5.07,0,6.23-1.23,6.18-6.21
	c-0.06-6.47-0.04-12.94-0.05-19.41c0-1.28,0.08-2.56-0.01-3.84c-0.2-2.64-1.36-3.92-3.95-4.33c-1.18-0.19-2.39-0.21-3.58-0.21
	c-21.35,0.03-42.69,0.1-64.04,0.12c-10.95,0.01-21.91-0.1-32.86-0.11c-5.63-0.01-6.93,1.4-6.83,6.95c0.08,4.79,0.07,9.59,0.08,14.39
	c0,2.64-0.13,5.28-0.05,7.91c0.09,2.96,1.48,4.38,4.4,4.68c0.87,0.09,1.76,0.05,2.64,0.05
	C394.59,490.78,410.82,490.78,427.05,490.78z"/>
<path class="st0" d="M247.15,319.71c0-21.6-0.03-43.2,0.03-64.8c0.01-3.02,0.26-6.08,0.78-9.05c0.83-4.72,3.74-7.7,8.46-8.69
	c2.02-0.43,4.11-0.75,6.17-0.76c36-0.05,72-0.04,107.99-0.01c1.83,0,3.68,0.2,5.48,0.54c5.62,1.05,8.67,4.3,9.55,10.21
	c0.3,1.97,0.46,3.98,0.46,5.97c0.03,44.24,0.03,88.47,0,132.71c0,2.07-0.17,4.16-0.45,6.21c-0.95,6.78-4.61,10.29-11.65,10.83
	c-4.7,0.36-9.43,0.36-14.14,0.39c-6,0.04-12-0.04-18-0.07c-0.32,0-0.64,0.01-0.96-0.01c-3.73-0.25-6.16,1.39-7.75,4.79
	c-3.16,6.73-6.51,13.36-9.81,20.03c-0.5,1-1.02,2-1.68,2.9c-2.67,3.6-7.24,3.6-9.95,0.02c-0.43-0.57-0.83-1.18-1.14-1.83
	c-3.14-6.38-6.26-12.77-9.39-19.16c-0.21-0.43-0.4-0.87-0.6-1.31c-1.78-3.82-4.83-5.63-9-5.56c-1.68,0.03-3.36,0.23-5.03,0.21
	c-9.04-0.08-18.07-0.2-27.1-0.31c-0.48-0.01-0.96-0.07-1.43-0.16c-6.51-1.2-10.08-5.11-10.51-11.81c-0.26-4.07-0.29-8.15-0.3-12.23
	C247.13,359.07,247.15,339.39,247.15,319.71z M316.66,414.72c0.47-0.88,0.75-1.36,1-1.86c2.41-4.87,4.86-9.72,7.2-14.62
	c1.65-3.45,4.05-5.94,7.92-6.65c1.25-0.23,2.54-0.27,3.82-0.27c10.4,0.02,20.8,0.08,31.19,0.12c0.8,0,1.61,0.01,2.4-0.09
	c2.6-0.35,4-1.64,4.51-4.25c0.23-1.17,0.36-2.38,0.35-3.57c-0.03-8.24-0.16-16.48-0.15-24.71c0.03-34.23,0.11-68.47,0.14-102.7
	c0-1.59-0.15-3.2-0.4-4.77c-0.31-1.93-1.51-3.18-3.46-3.5c-1.33-0.22-2.7-0.35-4.05-0.35c-33.67-0.02-67.35-0.02-101.03,0
	c-1.19,0-2.4,0.07-3.58,0.27c-2.55,0.44-3.76,1.73-4.04,4.33c-0.14,1.35-0.12,2.71-0.12,4.07c0.02,22.8,0.06,45.59,0.06,68.39
	c0,19.92-0.07,39.83-0.08,59.75c0,5.71,1.45,7.13,7.07,7.12c0.48,0,0.96-0.01,1.44-0.01c10.24-0.03,20.48,0,30.71-0.09
	c5.25-0.05,8.73,2.26,10.88,7.04c2.26,5.02,4.83,9.91,7.27,14.85C315.94,413.64,316.21,414.01,316.66,414.72z"/>
<path class="st0" d="M208.85,323.86c2.72-5.52,5.3-10.75,7.87-15.98c0.49-1,0.92-2.05,1.5-3c1.31-2.15,3.25-3.55,5.71-4.05
	c2.62-0.53,5.26-0.46,7.84,0.28c2.71,0.77,4.14,2.76,4.07,5.49c-0.07,2.5-1.45,4.36-4.2,4.77c-3.36,0.5-5.12,2.51-6.5,5.34
	c-3.42,7.05-6.92,14.05-10.49,21.03c-0.71,1.4-1.71,2.73-2.85,3.81c-2.04,1.92-4.39,1.89-6.45-0.02c-1.03-0.96-1.96-2.15-2.59-3.41
	c-3.1-6.22-6.23-12.43-9.06-18.77c-2.72-6.1-5.13-7.69-11.77-7.61c-9.83,0.11-19.67,0.05-29.51-0.05c-1.73-0.02-3.49-0.42-5.18-0.86
	c-3.92-1.02-6.32-3.66-7.22-7.56c-0.41-1.78-0.64-3.63-0.64-5.46c-0.03-46-0.03-91.99-0.01-137.99c0-1.51,0.14-3.04,0.43-4.52
	c1.15-5.94,4.31-8.89,10.31-9.65c1.9-0.24,3.82-0.39,5.74-0.39c35.52-0.02,71.03-0.03,106.55,0.02c2.38,0,4.79,0.33,7.12,0.84
	c4.04,0.89,6.53,3.58,7.53,7.55c0.4,1.61,0.66,3.31,0.67,4.97c0.09,19.04,0.12,38.07,0.15,57.11c0,1.44-0.04,2.89-0.23,4.31
	c-0.41,3.03-2.2,4.64-5.09,4.73c-2.92,0.09-4.88-1.33-5.46-4.3c-0.35-1.79-0.41-3.65-0.41-5.48c-0.01-16.72,0.03-33.44,0.04-50.15
	c0-1.2,0.02-2.41-0.14-3.59c-0.3-2.29-1.52-3.86-3.9-4.24c-1.25-0.2-2.54-0.34-3.81-0.33c-16.8,0.06-33.6,0.2-50.39,0.2
	c-16.72,0-33.44-0.15-50.15-0.2c-1.27,0-2.55,0.13-3.8,0.35c-2.05,0.35-3.25,1.67-3.57,3.69c-0.23,1.49-0.39,3.02-0.38,4.53
	c0.06,18.56,0.25,37.11,0.24,55.67c-0.01,23.68-0.17,47.35-0.24,71.03c0,1.35,0.11,2.72,0.32,4.05c0.49,2.96,1.99,4.35,4.95,4.62
	c1.19,0.11,2.4,0.05,3.6,0.04c9.76-0.06,19.51-0.17,29.27-0.18c6.4-0.01,9.76,2.49,12.37,8.36c2.14,4.81,4.64,9.47,6.99,14.19
	C208.19,323.24,208.39,323.38,208.85,323.86z"/>
<path class="st0" d="M424.81,323.99c2.78-5.55,5.35-10.7,7.92-15.84c0.18-0.36,0.34-0.72,0.49-1.09c1.86-4.54,5.26-6.58,10.14-6.5
	c5.44,0.09,10.88,0.01,16.32,0.02c5.2,0.02,10.4,0.07,15.6,0.09c0.88,0,1.77,0.02,2.63-0.09c2.94-0.37,4.24-1.66,4.63-4.6
	c0.11-0.87,0.08-1.76,0.08-2.64c0-42.95,0-85.91-0.02-128.86c0-1.51-0.15-3.03-0.43-4.51c-0.29-1.54-1.37-2.55-2.91-2.84
	c-1.33-0.25-2.69-0.42-4.04-0.42c-12.08,0.02-24.16,0.14-36.23,0.13c-21.68-0.01-43.35-0.11-65.03-0.14c-1.35,0-2.71,0.16-4.04,0.41
	c-1.63,0.32-2.73,1.38-3.02,3.04c-0.24,1.41-0.37,2.85-0.37,4.28c-0.01,17.28,0.02,34.55,0,51.83c0,1.59-0.1,3.21-0.46,4.75
	c-0.61,2.56-2.38,3.74-5.14,3.75c-2.75,0.02-4.47-1.19-5.13-3.75c-0.28-1.07-0.39-2.21-0.39-3.32c-0.02-19.2-0.02-38.39,0.02-57.59
	c0-1.67,0.2-3.35,0.49-5c0.96-5.58,4.08-8.62,9.67-9.41c1.89-0.27,3.82-0.41,5.74-0.42c35.51-0.02,71.03-0.02,106.54,0
	c1.67,0,3.36,0.16,5.02,0.35c6.41,0.75,9.91,4.19,10.75,10.62c0.24,1.82,0.38,3.66,0.38,5.5c0.03,44.55,0.04,89.11,0,133.66
	c0,2.62-0.32,5.28-0.84,7.84c-0.82,4.03-3.36,6.66-7.38,7.67c-1.62,0.41-3.3,0.77-4.95,0.79c-10,0.11-19.99,0.11-29.99,0.14
	c-0.56,0-1.12-0.03-1.68-0.05c-4.03-0.14-6.82,1.55-8.53,5.3c-3.02,6.62-6.21,13.15-9.36,19.71c-0.55,1.15-1.14,2.31-1.89,3.33
	c-2.71,3.65-7.33,3.47-9.77-0.35c-0.47-0.74-0.86-1.53-1.25-2.32c-3.29-6.66-6.58-13.33-9.86-20c-0.25-0.5-0.51-1-0.78-1.49
	c-1.46-2.67-3.55-4.43-6.66-4.95c-2.4-0.4-3.31-1.61-3.57-4.11c-0.25-2.47,0.74-4.59,2.8-5.3c3.06-1.05,6.25-1.49,9.45-0.78
	c2.96,0.66,4.73,2.8,6.03,5.42c2.52,5.08,5.08,10.15,7.63,15.22C423.76,322.16,424.17,322.83,424.81,323.99z"/>
<path class="st0" d="M199.18,289.08c-9.52,0-19.04,0.01-28.55-0.01c-1.19,0-2.41-0.05-3.58-0.26c-3.33-0.59-4.94-2.48-5.07-5.97
	c-0.16-4.43,0.41-8.8,1.8-13c5.91-17.8,18.33-28.45,36.45-32.48c11.28-2.51,21.9-0.17,31.87,5.47c0.42,0.24,0.83,0.49,1.22,0.76
	c3.44,2.42,3.48,6.96,0.09,9.54c-1.01,0.77-2.18,1.09-3.39,0.74c-1.45-0.43-2.9-0.91-4.26-1.56c-6.33-3.06-12.96-4.47-19.99-3.96
	c-13.85,1.01-26.25,10.03-30.4,23.73c-1.31,4.34-0.32,5.74,4.28,5.83c2.32,0.04,4.63-0.17,6.95-0.18
	c13.6-0.02,27.19-0.03,40.79-0.01c1.19,0,2.4,0.14,3.57,0.36c2.86,0.55,4.9,2.87,4.89,5.42c-0.01,2.57-2.02,4.71-5.02,5.26
	c-0.78,0.14-1.59,0.19-2.38,0.2c-9.76,0.01-19.51,0.01-29.27,0.01C199.18,289,199.18,289.04,199.18,289.08z"/>
<path class="st0" d="M434.18,289.1c-9.36,0-18.71,0.02-28.07-0.02c-1.51-0.01-3.05-0.12-4.52-0.43c-2.7-0.58-3.94-2.32-3.96-5.21
	c-0.02-2.84,1.25-4.62,3.95-5.23c1.39-0.31,2.85-0.46,4.28-0.45c15.67,0.03,31.35,0.11,47.02,0.14c1.19,0,2.41-0.09,3.57-0.32
	c1.58-0.32,2.3-1.38,2.1-2.98c-0.12-0.94-0.38-1.88-0.7-2.78c-4.47-12.62-13.49-20.12-26.4-22.92c-8.07-1.75-15.89-0.6-23.3,3.15
	c-1.41,0.72-2.91,1.35-4.44,1.74c-2.33,0.58-4.04-0.27-5.28-2.3c-1.41-2.31-1.5-4.44,0.07-6.21c1.04-1.17,2.34-2.19,3.69-3
	c6.68-4.03,14.02-5.68,21.76-5.68c6.22-0.01,12.26,1.04,18.04,3.37c15.59,6.29,24.49,18.15,28.16,34.23c0.62,2.71,0.93,5.53,1,8.3
	c0.1,4.1-1.71,5.98-5.79,6.5c-0.87,0.11-1.75,0.12-2.63,0.12c-9.52,0.01-19.03,0.01-28.55,0.01
	C434.18,289.11,434.18,289.1,434.18,289.1z"/>
<path class="st0" d="M208.52,225.01c-14.78-0.04-28.07-11.59-28.04-28.38c0.03-17.01,13.94-28.73,28.19-28.62
	c14.54,0.11,28.44,12.32,28.48,28.56C237.18,212.35,224.18,225.16,208.52,225.01z M225.32,196.62
	c-0.12-12.91-11.02-18.71-21.01-16.13c-7.6,1.97-12.77,8.77-12.6,16.37c0.16,7.4,6.36,14.86,13.82,16.42
	c1.76,0.37,3.68,0.49,5.46,0.24C219.32,212.32,225.3,205.19,225.32,196.62z"/>
<path class="st0" d="M424.66,225.02c-15.69,0.01-28.48-12.71-28.47-28.3c0.02-15.47,13.02-28.66,28.29-28.69
	c15.56-0.03,28.32,12.79,28.34,28.47C452.83,212.4,440.38,225.01,424.66,225.02z M408.01,196.62c0.03,7.88,4.67,14.24,11.93,16.4
	c4.12,1.22,8.05,0.81,11.83-1.19c7.08-3.73,11.05-11.6,9.46-18.76c-1.87-8.46-9.98-14.05-18.88-13.04
	C413.68,181.02,407.97,187.63,408.01,196.62z"/>
<path class="st0" d="M421.26,473.81c-0.03-3.61,2.31-6,5.93-6.05c3.41-0.05,5.81,2.33,5.9,5.84c0.08,3.36-2.65,6.17-5.97,6.14
	C423.73,479.7,421.29,477.23,421.26,473.81z"/>
<path class="st0" d="M390.44,473.71c0.01-3.51,2.4-5.97,5.8-6c3.26-0.03,5.89,2.65,5.84,5.98c-0.05,3.69-2.23,6.01-5.69,6.02
	C392.72,479.73,390.43,477.42,390.44,473.71z"/>
<path class="st0" d="M452.36,473.71c-0.01-3.5,2.38-5.98,5.75-5.99c3.3,0,5.88,2.63,5.84,5.95c-0.04,3.65-2.25,5.98-5.68,6.03
	C454.63,479.74,452.37,477.45,452.36,473.71z"/>
<path class="st0" d="M316.52,380.39c-12.55,0-25.11,0.01-37.66-0.01c-1.35,0-2.72-0.09-4.04-0.36c-2.43-0.5-3.83-2.09-4.4-4.51
	c-0.7-2.97-0.25-5.91,0.25-8.81c3.51-20.19,20.23-36.38,40.59-39c14.23-1.83,26.5,2.84,36.85,12.54
	c8.34,7.81,13.39,17.42,14.82,28.82c0.22,1.73,0.26,3.52,0.11,5.26c-0.31,3.65-2.34,5.61-5.99,6c-0.87,0.09-1.76,0.07-2.64,0.07
	C341.79,380.39,329.16,380.39,316.52,380.39z M316.33,368.65c9.51,0,19.02,0.01,28.53-0.01c1.11,0,2.25-0.01,3.34-0.19
	c1.85-0.31,2.58-1.17,2.15-3.01c-0.51-2.24-1.07-4.56-2.14-6.57c-6.61-12.35-17.09-19.34-31.01-19.63
	c-13.65-0.28-24.17,6.29-31.3,17.95c-1.27,2.08-2.06,4.5-2.73,6.87c-0.94,3.29,0.04,4.46,3.42,4.58c0.48,0.02,0.96,0,1.44,0
	C297.47,368.65,306.9,368.65,316.33,368.65z"/>
<path class="st0" d="M345.1,287.58c0.1,15.3-12.78,28.32-28.15,28.45c-15.69,0.13-28.68-12.65-28.76-28.29
	c-0.08-15.36,12.73-28.27,28.14-28.37C332.15,259.26,344.99,271.86,345.1,287.58z M333.54,287.74c-0.01-9.2-7.76-17.02-16.89-17.02
	c-9.12-0.01-16.95,7.85-16.94,17c0,9.22,7.76,16.87,17.04,16.81C325.94,304.47,333.55,296.87,333.54,287.74z"/>
</svg>
