<?xml version="1.0" encoding="utf-8"?>
<!-- Generator: Adobe Illustrator 23.0.1, SVG Export Plug-In . SVG Version: 6.00 Build 0)  -->
<svg version="1.1" id="Слой_1" xmlns="http://www.w3.org/2000/svg" xmlns:xlink="http://www.w3.org/1999/xlink" x="0px" y="0px"
	 viewBox="0 0 643 652" style="enable-background:new 0 0 643 652;" xml:space="preserve">
<style type="text/css">
	.st0{fill-rule:evenodd;clip-rule:evenodd;fill:#008DD2;}
</style>
<path class="st0" d="M322.49,625.92C153.49,625.86,16.41,488.69,16.37,319.61C16.32,150.37,153.65,13.08,322.82,13.13
	C491.5,13.18,629.21,150,629.06,319.81C628.9,489.09,491.79,625.94,322.49,625.92z M26.38,319.46
	C26.43,483.26,159.15,616,322.81,615.94c163.5-0.06,296.15-132.71,296.2-296.2C619.06,155.89,486.44,23.16,322.73,23.2
	C159.05,23.23,26.33,155.91,26.38,319.46z"/>
<path class="st0" d="M192.82,318.45c0-46.08-0.02-92.15,0.03-138.23c0-3.75,0.15-7.55,0.8-11.22c2.06-11.8,12.98-21.18,24.97-21.41
	c11.51-0.22,23.04-0.17,34.56-0.17c36.96,0.02,73.91,0.08,110.87,0.09c4.7,0,9.26,0.57,13.54,2.59
	c8.48,4.01,13.17,10.89,14.81,19.95c0.41,2.27,0.52,4.61,0.52,6.92c0.02,14.08-0.04,28.16-0.02,42.23c0,1.74,0.18,3.51,0.52,5.22
	c0.58,2.95,2.49,4.84,5.38,5.49c1.93,0.43,3.95,0.62,5.93,0.62c20.48,0.01,40.96-0.04,61.43-0.06c4.09,0,8.14,0.24,12.08,1.53
	c11.09,3.64,17.58,12.1,17.85,23.77c0.32,13.99,0.61,27.99,0.59,41.99c-0.03,21.2-0.33,42.39-0.53,63.59
	c-0.08,8.21-2.87,15.21-9.43,20.37c-4.72,3.71-10.21,5.68-16.2,5.84c-9.43,0.24-18.87,0.37-28.31,0.37
	c-12.64,0-25.28-0.19-37.91-0.23c-1.82-0.01-3.68,0.18-5.46,0.55c-2.92,0.62-4.81,2.5-5.39,5.45c-0.34,1.71-0.5,3.48-0.5,5.22
	c-0.01,19.92,0.01,39.84,0.04,59.75c0.01,4.09-0.21,8.17-1.23,12.14c-3.02,11.72-10.76,18.25-23.31,19.9c-3,0.39-6.06,0.49-9.09,0.5
	c-44.24,0.03-88.47,0.04-132.71-0.02c-3.9,0-7.85-0.28-11.69-0.91c-11.61-1.9-19.42-9.84-21.2-21.42c-0.53-3.46-0.85-7-0.86-10.5
	c-0.06-46.63-0.04-93.27-0.04-139.91C192.83,318.45,192.83,318.45,192.82,318.45z M375.96,284.52c0-0.02,0-0.03,0-0.05
	c-31.83,0-63.66-0.01-95.48,0.03c-2.05,0-4.14,0.34-6.15,0.79c-2.72,0.61-4.47,2.48-5.16,5.14c-0.43,1.68-0.66,3.46-0.66,5.2
	c-0.01,20.39,0.02,40.79,0.13,61.18c0.01,2.53,0.39,5.11,0.96,7.58c1.09,4.68,4.12,7.58,8.78,8.89c2.97,0.83,5.98,0.96,9.02,0.96
	c45.58,0.02,91.17,0.04,136.75,0.05c14.16,0,28.31,0,42.46-0.12c2.45-0.02,4.94-0.43,7.32-1.04c4.04-1.03,6.71-3.73,7.69-7.77
	c0.62-2.54,1.01-5.2,1.02-7.81c0.12-20.79,0.15-41.58,0.15-62.38c0-1.66-0.24-3.35-0.64-4.96c-0.62-2.51-2.28-4.29-4.8-4.88
	c-2.08-0.49-4.26-0.78-6.39-0.78C439.29,284.5,407.62,284.52,375.96,284.52z M206.64,308.58c0.03,0,0.06,0,0.09,0c0,3.2,0,6.4,0,9.6
	c-0.04,28.23-0.1,56.47-0.1,84.7c0,2.14,0.22,4.32,0.67,6.41c0.71,3.23,2.83,5.26,6.02,6.2c2.73,0.8,5.51,0.83,8.32,0.82
	c31.59-0.1,63.18-0.2,94.78-0.27c16.32-0.03,32.63,0.03,48.95-0.02c2.38-0.01,4.78-0.26,7.14-0.62c3.56-0.54,5.87-2.74,6.35-6.26
	c0.55-4.02,0.69-8.11,0.88-12.17c0.05-1.08-0.34-2.21-0.63-3.28c-0.74-2.79-2.52-4.69-5.33-5.26c-2.33-0.48-4.74-0.75-7.12-0.75
	c-27.03-0.03-54.07,0.03-81.1,0c-2.79,0-5.63-0.12-8.35-0.66c-9.13-1.82-15.92-6.75-19.62-15.52c-1.94-4.59-2.41-9.41-2.41-14.32
	c0-32.07-0.01-64.14,0.02-96.22c0-2.39,0.08-4.82,0.46-7.17c1.48-9.27,6.04-16.38,14.76-20.47c3.6-1.69,7.37-2.67,11.33-2.74
	c6.4-0.11,12.8-0.14,19.19-0.14c20.88-0.01,41.75,0.04,62.62-0.02c3.1-0.01,6.22-0.31,9.29-0.76c3.38-0.49,5.57-2.67,5.99-6
	c0.53-4.18,0.64-8.42,0.8-12.64c0.04-1.09-0.34-2.21-0.65-3.28c-0.76-2.58-2.48-4.34-5.06-4.95c-2-0.47-4.1-0.74-6.16-0.75
	c-8.88-0.04-17.76,0.09-26.63,0.08c-40.71-0.04-81.42-0.12-122.13-0.13c-2.06,0-4.15,0.29-6.16,0.73c-3.01,0.64-4.93,2.64-5.58,5.62
	c-0.42,1.93-0.62,3.95-0.62,5.93C206.63,245.72,206.64,277.15,206.64,308.58z M292.87,477.96c0,0.01,0,0.02,0,0.03
	c1.36,0,2.72,0,4.08,0c21.43-0.01,42.86-0.03,64.29-0.04c2.89,0,5.75-0.26,8.52-1.13c4.46-1.4,7.44-4.36,8.65-8.85
	c0.63-2.37,1.03-4.87,1.09-7.32c0.17-7.35,0.15-14.71,0.14-22.07c0-1.26-0.25-2.55-0.57-3.77c-0.62-2.36-2.25-3.86-4.57-4.45
	c-1.38-0.35-2.83-0.54-4.25-0.54c-16.95-0.04-33.91-0.02-50.86-0.02c-0.64,0-1.28-0.02-1.92,0.04c-4.33,0.41-6.49,2.32-7.38,6.55
	c-0.16,0.74-34.36,1.53-34.75-0.91c-0.48-3.02-2.34-4.82-5.37-5.33c-1.1-0.18-2.21-0.33-3.32-0.33
	c-16.87-0.02-33.75-0.02-50.62,0.01c-1.26,0-2.54,0.18-3.79,0.42c-2.91,0.56-4.64,2.34-5.17,5.26c-0.17,0.94-0.35,1.89-0.35,2.84
	c-0.02,7.28-0.1,14.56,0.08,21.83c0.07,2.85,0.53,5.73,1.2,8.51c1.03,4.33,3.95,6.98,8.22,8.21c3.11,0.9,6.29,1.07,9.5,1.07
	C248.09,477.96,270.48,477.96,292.87,477.96z M375.61,243.59c0,0.01,0,0.02,0,0.03c-28.87,0-57.75,0-86.62,0
	c-1.76,0-3.53-0.09-5.28,0.03c-4.97,0.34-9.56,1.66-12.34,6.2c-3.41,5.58-3.72,11.63-1.89,17.79c0.65,2.2,2.35,3.67,4.65,4.04
	c1.47,0.23,3.01,0.1,4.51,0.03c1.51-0.07,3.01-0.4,4.52-0.4c9.04,0,18.08,0.09,27.11,0.09c52.55,0,105.1-0.02,157.64-0.01
	c2.07,0,4.14,0.38,6.21,0.43c4.29,0.11,6.64-1.57,7.61-4.21c1.9-5.15,2.08-10.34-0.15-15.43c-1.76-4.03-4.68-6.9-9.14-7.72
	c-2.58-0.47-5.22-0.84-7.83-0.84C434.96,243.57,405.29,243.59,375.61,243.59z M293.82,188.29c0,0.02,0,0.05,0,0.07
	c24.08,0,48.15,0.02,72.23-0.03c2.3,0,4.65-0.17,6.9-0.62c5.09-1.04,7.6-4.31,7.06-9.47c-0.31-2.91-0.99-5.85-1.96-8.61
	c-1.41-4.01-4.41-6.53-8.53-7.75c-3.28-0.97-6.62-1.01-9.98-1.01c-42.47,0.01-84.94,0.01-127.42,0.02c-3.44,0-6.88-0.09-10.31,0.1
	c-2.05,0.11-4.17,0.44-6.1,1.12c-4.58,1.62-7.72,4.69-8.71,9.66c-0.86,4.34-0.42,8.61,0.65,12.82c0.5,1.97,1.92,3.36,3.97,3.77
	c1.38,0.27,2.83,0.3,4.25,0.28c1.43-0.02,2.86-0.33,4.29-0.33C244.71,188.29,269.27,188.29,293.82,188.29z"/>
<path class="st0" d="M438.21,333.34c2.87,0,5.75-0.01,8.62,0.01c0.8,0,1.6,0.05,2.39,0.17c5.46,0.79,6.29,5.16,5.26,8.87
	c-0.68,2.45-2.73,3.55-5.06,3.78c-4.12,0.41-8.27,0.75-12.41,0.79c-3.34,0.03-6.7-0.33-10.02-0.73c-5.49-0.66-6.51-4.21-5.59-8.57
	c0.47-2.23,2.16-3.57,4.38-3.9c2.04-0.3,4.13-0.33,6.2-0.39C434.05,333.3,436.13,333.35,438.21,333.34
	C438.21,333.35,438.21,333.35,438.21,333.34z"/>
<path class="st0" d="M376.52,347.22c-4.31-0.38-7.98-0.62-11.63-1.07c-1.3-0.16-2.73-0.58-3.78-1.32c-2.46-1.75-2.21-4.45-1.8-7.01
	c0.36-2.23,2.03-3.67,4.46-4.08c0.94-0.16,1.91-0.29,2.86-0.29c5.91-0.05,11.82-0.1,17.73-0.08c1.35,0,2.73,0.16,4.04,0.46
	c2.77,0.62,4.3,2.86,4.35,6.11c0.04,3.09-1.39,5.36-4.24,5.84C384.34,346.47,380.11,346.8,376.52,347.22z"/>
<path class="st0" d="M310.1,444.8c0,3.86-3.13,6.99-6.99,6.99h-21.03c-3.86,0-6.99-3.13-6.99-6.99v-11.41
	c0-3.86,3.13-6.99,6.99-6.99h21.03c3.86,0,6.99,3.13,6.99,6.99V444.8z"/>
</svg>
