<?xml version="1.0" encoding="utf-8"?>
<!-- Generator: Adobe Illustrator 23.0.1, SVG Export Plug-In . SVG Version: 6.00 Build 0)  -->
<svg version="1.1" id="Слой_1" xmlns="http://www.w3.org/2000/svg" xmlns:xlink="http://www.w3.org/1999/xlink" x="0px" y="0px"
	 viewBox="0 0 643 652" style="enable-background:new 0 0 643 652;" xml:space="preserve">
<style type="text/css">
	.st0{fill-rule:evenodd;clip-rule:evenodd;fill:#008DD2;}
</style>
<path class="st0" d="M322.87,625.92c-169.37,0-306.54-137.23-306.42-306.56C16.56,149.99,153.88,13.01,323.19,13.13
	c169.07,0.12,306.46,137.13,306.34,306.68C629.41,488.99,492.24,625.92,322.87,625.92z M322.71,23.2
	C159.03,23.24,26.3,155.95,26.38,319.47c0.08,163.82,132.8,296.54,296.45,296.46c163.51-0.08,296.14-132.73,296.18-296.22
	C619.05,155.87,486.42,23.15,322.71,23.2z"/>
<path class="st0" d="M343.93,351.66c-23.44,0-46.87,0.01-70.31-0.02c-1.42,0-2.87-0.2-4.25-0.52c-1.51-0.35-2.39-1.48-2.86-2.96
	c-1.42-4.52,0.84-7.99,5.56-8.12c5.44-0.16,10.88-0.08,16.32-0.08c37.6,0.03,75.19,0.07,112.79,0.1c1.91,0,3.86,0.02,5.74-0.28
	c3.12-0.5,4.43-1.96,4.17-5.09c-0.27-3.33-0.82-6.67-1.62-9.91c-8-32.24-33.47-57.74-65.98-66.2
	c-47.54-12.36-97.02,15.78-110.62,62.98c-1.08,3.75-1.73,7.63-2.47,11.47c-0.21,1.08-0.19,2.25-0.04,3.34
	c0.3,2.23,1.55,3.43,3.81,3.63c1.43,0.13,2.87-0.02,4.31-0.01c2.8,0.02,5.59,0.05,8.39,0.11c0.63,0.01,1.27,0.15,1.89,0.28
	c3.79,0.81,5.38,3.29,4.54,7.03c-0.47,2.08-1.72,3.39-3.77,3.9c-0.69,0.17-1.42,0.24-2.13,0.24c-7.6,0.03-15.2,0.03-22.8,0.03
	c-0.72,0-1.45-0.02-2.15-0.16c-2.67-0.51-4.25-2.09-4.72-4.76c-0.19-1.1-0.31-2.23-0.26-3.34c0.62-13.79,3.38-27.1,9.07-39.73
	c4.85-10.77,11.47-20.32,19.93-28.56c13.09-12.75,28.15-22.31,45.71-27.7c15.54-4.77,31.27-5.27,47.17-1.99
	c11.04,2.27,21.51,6.11,31.45,11.37c24.84,13.15,41.05,33.35,48.92,60.27c2.38,8.15,4.04,16.43,4.31,24.98
	c0.22,7.26-1.96,9.77-9.29,9.79c-7.04,0.02-14.08-0.11-21.12-0.12c-16.56-0.02-33.12-0.01-49.67-0.01
	C343.93,351.63,343.93,351.65,343.93,351.66z"/>
<path class="st0" d="M221.1,488.57c-0.85-0.29-2.59-0.66-4.13-1.45c-2.91-1.49-5.7-3.22-8.54-4.85c-3.05-1.75-6.06-3.58-9.17-5.2
	c-5.77-3.02-11.68-3.13-17.52-0.24c-3.5,1.73-6.89,3.72-10.32,5.59c-3.23,1.76-6.39,3.65-9.71,5.21c-1.45,0.68-3.24,1.04-4.85,0.94
	c-4.35-0.26-6.82-3.31-6.2-7.64c1.21-8.38,2.59-16.74,3.9-25.11c0.69-4.4-0.56-8.33-3.54-11.46c-5.46-5.73-11.18-11.21-16.79-16.81
	c-1.6-1.6-2.84-3.44-3.54-5.63c-0.58-1.81-0.14-3.38,1.25-4.56c2.15-1.83,4.47-3.31,7.44-3.54c4.86-0.36,9.7-0.92,14.55-1.25
	c7.84-0.53,14.05-3.98,18.71-10.23c2.61-3.49,4.29-7.47,5.7-11.57c0.81-2.34,1.59-4.7,2.55-6.97c1.39-3.27,3.75-5.43,7.32-6.34
	c2.15-0.55,3.94-0.18,5.64,1.05c1.99,1.44,3.37,3.36,4.41,5.58c1.29,2.74,2.7,5.43,4.01,8.16c1.17,2.45,2.41,4.88,3.38,7.41
	c2.84,7.37,8.39,11.12,16.01,11.84c7.1,0.67,14.11,1.79,21.04,3.42c1.53,0.36,3.07,0.97,4.39,1.8c2.2,1.37,2.87,3.47,1.78,5.83
	c-0.75,1.64-1.8,3.24-3.05,4.53c-5.28,5.46-10.68,10.81-16.04,16.19c-0.68,0.68-1.38,1.33-2.06,2.02c-2.7,2.74-3.36,6.03-2.73,9.74
	c1.4,8.27,2.73,16.55,4.08,24.83c0.08,0.47,0.1,0.95,0.11,1.43C229.37,485.83,226.48,488.74,221.1,488.57z M165.68,473
	c0.78-0.57,1.27-0.92,1.75-1.28c1.98-1.49,3.9-3.07,5.94-4.46c6.98-4.75,14.69-5.96,22.91-4.47c5.45,0.99,10.28,3.4,14.84,6.46
	c0.68,0.45,1.35,0.91,2.02,1.37c-2-8.59-3.04-16.91-0.23-25.29c2.81-8.36,8.71-14.29,16.06-19.64c-1.03-0.18-1.47-0.29-1.91-0.33
	c-1.83-0.12-3.68-0.16-5.5-0.34c-10.87-1.08-19.66-5.78-25.87-14.93c-2.26-3.32-4.01-6.9-5.42-10.66c-0.26-0.68-0.62-1.32-1.14-2.41
	c-0.39,0.96-0.58,1.38-0.74,1.81c-0.81,2.26-1.51,4.56-2.43,6.77c-3.13,7.53-8.46,12.89-16.06,15.92c-3.43,1.37-7,2.23-10.69,2.55
	c-2.75,0.24-5.5,0.4-8.62,0.62c0.74,0.99,1.22,1.81,1.86,2.47c2.11,2.18,4.27,4.32,6.42,6.46c1.98,1.97,4.06,3.85,5.95,5.91
	c2.07,2.24,3.22,4.99,3.34,8.04c0.1,2.71,0.13,5.45-0.2,8.13c-0.62,5.15-1.52,10.27-2.28,15.41
	C165.62,471.6,165.68,472.12,165.68,473z"/>
<path class="st0" d="M489.94,481.49c0.46,4.77-3.92,8.31-8.77,6.66c-2.25-0.76-4.39-1.93-6.46-3.11c-3.68-2.09-7.25-4.38-10.91-6.51
	c-2.84-1.65-5.84-2.98-9.1-3.57c-3.64-0.66-7.22-0.26-10.57,1.22c-3.5,1.55-6.88,3.37-10.25,5.17c-3.45,1.84-6.77,3.94-10.29,5.65
	c-1.67,0.82-3.63,1.26-5.5,1.41c-2.61,0.21-4.45-1.18-5.2-3.71c-0.4-1.34-0.66-2.86-0.47-4.22c1.23-8.46,2.49-16.91,3.99-25.32
	c0.78-4.37-0.4-7.73-3.57-10.78c-5.7-5.49-11.25-11.14-16.78-16.8c-1.27-1.3-2.39-2.83-3.22-4.43c-1.52-2.93-0.72-5.26,2.2-6.81
	c1.18-0.63,2.5-1.07,3.8-1.42c6.27-1.71,12.65-2.51,19.15-2.85c7.17-0.38,12.77-3.9,16.63-9.93c1.5-2.34,2.73-4.89,3.76-7.47
	c1.9-4.78,4.41-9.22,7.12-13.56c0.54-0.87,1.24-1.68,2-2.37c2.57-2.36,5.39-2.31,7.86,0.19c0.94,0.95,1.76,2.09,2.4,3.27
	c3.71,6.89,7.36,13.82,11.02,20.74c0.34,0.64,0.65,1.28,0.96,1.93c1.66,3.49,4.47,5.16,8.25,5.74c8.68,1.33,17.34,2.84,26,4.33
	c1.08,0.19,2.19,0.57,3.14,1.11c3.14,1.76,3.94,5.79,1.8,8.69c-0.38,0.51-0.82,0.98-1.27,1.43c-6.16,6.16-12.27,12.38-18.53,18.45
	c-3.19,3.08-4.12,6.49-3.29,10.85c1.52,8,2.66,16.08,3.95,24.12C489.89,480.2,489.89,480.85,489.94,481.49z M476.35,472.17
	c-0.97-3.54-1.94-6.5-2.57-9.53c-2.41-11.56,0.35-21.72,8.69-30.19c2.07-2.1,4.44-3.9,6.67-5.83c0.45-0.39,0.9-0.79,1.54-1.35
	c-1.1,0-1.88-0.02-2.65,0c-12.99,0.37-23.42-4.41-30.47-15.55c-2.17-3.42-3.77-7.2-5.63-10.82c-0.31-0.6-0.59-1.21-0.97-1.97
	c-1.17,2.99-2.11,5.79-3.34,8.44c-4.45,9.59-11.82,15.78-22.12,18.21c-3.63,0.86-7.41,1.1-11.12,1.6c-0.81,0.11-1.63,0.13-2.45,0.19
	c0.63,0.97,1.31,1.49,2,2.01c3.32,2.53,6.38,5.33,8.94,8.65c5.33,6.9,7.73,14.67,6.59,23.35c-0.46,3.54-1.48,7.01-2.24,10.52
	c-0.1,0.48-0.16,0.96-0.31,1.88C443.63,458.49,459.95,459.39,476.35,472.17z"/>
<path class="st0" d="M281.9,481.32c0.6-4.28,1.13-8.56,1.81-12.82c0.75-4.73,1.59-9.46,2.45-14.17c0.68-3.71-0.45-6.74-3.12-9.34
	c-4.3-4.18-8.57-8.4-12.82-12.63c-1.7-1.69-3.39-3.41-4.95-5.22c-1.08-1.26-2.12-2.63-2.86-4.11c-1.37-2.73-0.63-5.03,2-6.53
	c1.16-0.67,2.46-1.19,3.76-1.51c5.36-1.29,10.72-2.43,16.31-2.45c8.83-0.03,15.62-4.04,20.37-11.48c2.21-3.46,3.74-7.22,5.08-11.09
	c0.91-2.63,1.92-5.26,3.16-7.75c1.14-2.3,3.04-3.88,5.67-4.42c3.53-0.72,6.61,0.12,8.76,3.03c1.26,1.71,2.15,3.73,2.97,5.7
	c0.88,2.13,1.37,4.44,2.25,6.57c1.04,2.5,2.14,5.01,3.53,7.33c4.5,7.45,11.28,11.42,19.88,12.09c5.75,0.45,11.49,0.77,17.05,2.4
	c1.37,0.4,2.76,0.87,3.98,1.59c2.47,1.45,3.23,3.78,1.98,6.39c-0.71,1.49-1.7,2.92-2.85,4.1c-5.34,5.51-10.79,10.93-16.2,16.38
	c-0.79,0.79-1.63,1.54-2.39,2.36c-2.26,2.46-3.01,5.27-2.43,8.63c1.5,8.74,2.88,17.5,4.21,26.27c0.52,3.44-0.74,5.88-3.44,7.24
	c-1.83,0.93-3.76,0.93-5.58,0.16c-2.27-0.96-4.5-2.06-6.65-3.29c-3.47-1.98-6.84-4.14-10.29-6.16c-2.91-1.7-5.98-3.06-9.33-3.65
	c-4.08-0.72-8-0.01-11.69,1.71c-3.32,1.55-6.53,3.37-9.75,5.12c-3.23,1.75-6.38,3.65-9.66,5.3c-1.39,0.7-3,1.15-4.56,1.32
	c-3.57,0.39-5.81-1.41-6.45-4.93C281.96,482.77,281.96,482.04,281.9,481.32z M360.08,425.6c-9.06-0.22-17.57-1.61-24.95-6.98
	c-7.4-5.38-11.45-13.08-14.65-21.97c-0.46,1.25-0.75,1.95-0.99,2.67c-1.29,3.97-2.98,7.75-5.33,11.22
	c-4.11,6.06-9.69,10.09-16.74,12.1c-4.27,1.22-8.63,1.58-13.05,1.48c-1.03-0.02-2.06,0-3.16,0c-0.12,0.45-0.2,0.83-0.33,1.2
	c-0.67,1.81-0.23,3.07,1.45,4.24c3.4,2.39,6.62,5.03,9.92,7.56c4.65,3.57,7.01,8.21,6.58,14.12c-0.11,1.51-0.26,3.04-0.65,4.5
	c-1.25,4.68-1.35,9.48-1.77,14.25c-0.1,1.13,0.07,2.17,1,3.08c0.67-0.6,1.23-1.18,1.86-1.64c2.71-1.97,5.3-4.16,8.19-5.81
	c6-3.42,12.49-4.22,19.25-2.77c5.97,1.28,11.22,4.09,16.23,7.46c0.61,0.41,1.24,0.79,2.42,1.53
	C338.88,452.44,343.48,437.12,360.08,425.6z"/>
<path class="st0" d="M321.93,231.54c-22.08-0.84-39.6-8.97-51.31-27.11c-22.23-34.42-3.26-80.53,37-89.53
	c28.65-6.4,58.06,9.1,68.5,35.99c13.34,34.36-7.25,72.65-44.28,79.56C328.31,231.1,324.7,231.24,321.93,231.54z M368.02,172.54
	c0.01-26.07-20.96-46.93-47.24-46.97c-26.21-0.05-47.34,20.85-47.38,46.87c-0.04,26.03,21.05,47.1,47.15,47.11
	C346.94,219.56,368,198.7,368.02,172.54z"/>
<path class="st0" d="M322.1,199.47c-7.61-0.13-14.47-2.06-20.14-7.26c-0.82-0.75-1.62-1.57-2.24-2.48c-1.72-2.53-1.3-5.28,1.02-7.57
	c2.02-1.99,4.47-2.23,6.97-0.59c1.07,0.7,2.02,1.57,3.05,2.32c6.86,5,13.53,4.89,20.26-0.31c0.95-0.73,1.85-1.55,2.86-2.17
	c2.49-1.52,4.97-1.16,6.95,0.9c2.23,2.33,2.7,4.98,0.79,7.34c-1.53,1.9-3.4,3.62-5.39,5.05
	C332.03,197.73,327.39,199.82,322.1,199.47z"/>
</svg>
