<?xml version="1.0" encoding="utf-8"?>
<!-- Generator: Adobe Illustrator 23.0.1, SVG Export Plug-In . SVG Version: 6.00 Build 0)  -->
<svg version="1.1" id="Слой_1" xmlns="http://www.w3.org/2000/svg" xmlns:xlink="http://www.w3.org/1999/xlink" x="0px" y="0px"
	 viewBox="0 0 643 652" style="enable-background:new 0 0 643 652;" xml:space="preserve">
<style type="text/css">
	.st0{fill-rule:evenodd;clip-rule:evenodd;fill:#008DD2;}
</style>
<path class="st0" d="M322.46,625.92C153.98,625.89,16.24,489.29,16.34,319.36c0.1-170.02,138.06-306.18,306.22-306.24
	C491.33,13.07,629.2,149.9,629.03,319.81C628.87,489.11,491.77,625.94,322.46,625.92z M26.38,319.35
	C26.17,482.86,158.7,615.73,322.46,615.9c164.42,0.17,296.29-133.19,296.55-295.58C619.28,156.3,486.95,23.41,323.08,23.2
	C159.35,22.98,26.59,155.5,26.38,319.35z"/>
<g>
	<path class="st0" d="M292.07,189.01c-0.82-1.18-1.31-1.9-1.81-2.61c-3.22-4.56-6.15-9.27-7.85-14.64
		c-1.04-3.27-1.69-6.61-1.57-10.06c0.03-1.03,0.19-2.07,0.47-3.06c0.55-1.92,1.84-3.15,3.79-3.7c2.21-0.61,4.4-0.38,6.62-0.03
		c5.01,0.79,9.83,2.2,14.35,4.54c4.27,2.22,7.92,5.2,10.89,9.01c0.55,0.7,1.09,1.41,1.71,2.04c1.91,1.94,3.21,1.95,5.12,0.09
		c0.48-0.46,0.93-0.96,1.34-1.49c6.49-8.28,15.27-12.45,25.42-14.12c1.46-0.24,2.95-0.41,4.42-0.41c4.5,0.03,6.7,2.2,6.86,6.67
		c0.16,4.52-0.86,8.83-2.47,13.02c-1.52,3.97-3.68,7.6-6.2,11.01c-0.48,0.65-0.97,1.3-1.44,1.93c0.7,1.5,1.94,1.9,3.34,1.9
		c8.9,0.02,17.8,0.04,26.7,0.01c3.56-0.01,7.12-0.18,10.68-0.2c1.4-0.01,2.82,0.06,4.2,0.28c3.3,0.54,5.15,2.4,5.64,5.69
		c0.22,1.46,0.3,2.96,0.29,4.43c-0.08,33.38-0.18,66.77-0.26,100.15c0,1.62,0.13,3.26,0.38,4.86c0.43,2.78,2.25,4.27,4.95,4.65
		c1.54,0.21,3.1,0.3,4.65,0.3c24.55-0.06,49.11-0.16,73.66-0.21c1.62,0,3.26,0.15,4.87,0.39c2.84,0.42,4.17,1.86,4.49,4.68
		c0.02,0.15,0.03,0.29,0.04,0.44c0.17,6,0.36,12,0.5,18c0.08,3.66-0.82,7.07-3.06,10.01c-0.81,1.06-0.62,2-0.2,3.1
		c0.81,2.15,1.71,4.29,2.22,6.51c1.78,7.8,0.14,14.87-4.97,21.05c-1.22,1.48-2.58,2.87-4.01,4.16
		c-19.6,17.81-39.24,35.57-58.83,53.39c-3.39,3.09-7.33,4.26-11.81,4.23c-10.39-0.07-20.77-0.05-31.16-0.06
		c-23.74-0.02-47.48,0.01-71.22-0.1c-5.13-0.02-9.49,1.47-13.61,4.52c-7.03,5.21-14.29,10.1-21.45,15.12
		c-0.61,0.43-1.23,0.84-1.8,1.31c-2.13,1.74-2.98,3.99-1.9,6.53c1.1,2.58,0.23,4.33-1.58,6.11c-8.73,8.57-17.41,17.21-26.12,25.81
		c-0.58,0.57-1.2,1.11-1.86,1.59c-2.74,1.97-5.47,2.05-8.27,0.19c-0.98-0.65-1.9-1.43-2.74-2.26
		c-27.43-27.01-54.86-54.04-82.26-81.08c-0.99-0.98-1.89-2.1-2.64-3.28c-1.39-2.21-1.35-4.53,0.07-6.71
		c0.72-1.11,1.62-2.13,2.55-3.06c7.9-7.83,15.82-15.65,23.78-23.43c1.21-1.18,2.57-2.25,4.03-3.11c2.58-1.52,5.13-1.17,7.46,0.67
		c0.75,0.59,1.4,1.32,2.07,2.01c0.46,0.48,0.85,1.03,1.31,1.51c2.84,2.97,5.42,2.84,8.02-0.4c0.69-0.87,1.3-1.8,1.97-2.69
		c6.09-8.2,13.79-14.24,23.57-17.45c6.63-2.17,13.47-2.91,20.41-2.59c5.18,0.24,10.35,0.88,15.53,1.03
		c5.48,0.17,10.98-0.04,16.47-0.05c6.23-0.01,12.46-0.12,18.68,0.09c8.44,0.28,16.54-1.31,24.4-4.18c6.05-2.21,12-4.7,17.99-7.08
		c0.25-0.1,0.46-0.28,0.62-0.73c-0.78,0-1.56,0-2.34,0c-58.24,0-116.47,0-174.71,0c-2,0-4.01,0.01-6.01-0.07
		c-1.11-0.04-2.22-0.21-3.3-0.43c-1.85-0.37-3.04-1.51-3.42-3.37c-0.23-1.16-0.43-2.34-0.44-3.52c-0.04-6.3-0.03-12.61,0-18.92
		c0-1.03,0.16-2.07,0.35-3.09c0.53-2.77,1.77-4.03,4.54-4.43c1.83-0.26,3.69-0.42,5.54-0.42c24.7,0.02,49.41,0.08,74.11,0.12
		c1.26,0,2.53-0.03,3.77-0.18c2.66-0.32,3.97-1.54,4.46-4.18c0.21-1.16,0.23-2.36,0.23-3.54c-0.02-15.5-0.08-31.01-0.08-46.51
		c-0.01-18.92,0.01-37.83,0.05-56.75c0-1.77,0.2-3.55,0.47-5.3c0.26-1.7,1.38-2.77,3.06-3.14c0.94-0.2,1.9-0.38,2.85-0.39
		c5.41-0.09,10.83-0.16,16.24-0.18c8.75-0.03,17.51-0.01,26.26-0.01C289.97,189.01,290.78,189.01,292.07,189.01z M357.38,423.4
		c0-0.03,0-0.06,0-0.09c7.86,0,15.73-0.05,23.59,0.01c7.93,0.07,15.87,0.14,23.8,0.42c8.54,0.29,15.81-2.48,22.09-8.22
		c16.25-14.87,32.56-29.68,48.83-44.53c1.32-1.2,2.65-2.38,3.87-3.68c2.46-2.62,4.05-5.68,4.2-9.33
		c0.36-8.64-7.99-15.89-16.67-14.54c-4.12,0.64-7.45,2.69-10.52,5.4c-13.63,12.02-27.31,23.98-40.94,36
		c-3.27,2.89-6.99,4.3-11.35,4.3c-23.74-0.04-47.47-0.03-71.21-0.04c-0.89,0-1.78-0.07-2.65-0.2c-1.74-0.27-2.9-1.33-3.1-3.04
		c-0.2-1.67-0.23-3.41,0.04-5.07c0.33-2.07,1.6-3.03,3.7-3.23c1.1-0.1,2.22-0.08,3.33-0.05c5.59,0.18,11.1-0.46,16.56-1.62
		c9.73-2.06,19.06-5.52,28.57-8.34c2.67-0.79,4.65-2.58,5.82-5.16c2.35-5.19,0.31-14.33-8.29-16.08c-3.29-0.67-6.34,0.08-9.35,1.19
		c-2.29,0.84-4.51,1.88-6.78,2.79c-26.96,10.87-54.95,16.67-84.05,17.03c-10.25,0.13-20.44-0.83-30.65-1.52
		c-14.94-1-27.52,3.92-37.24,15.58c-1.42,1.7-2.95,3.31-4.46,4.93c-1.51,1.62-1.67,2.98-0.36,4.77c0.61,0.83,1.35,1.58,2.08,2.31
		c17.9,17.66,35.81,35.31,53.72,52.96c0.63,0.62,1.29,1.22,2.01,1.75c1.38,1.02,2.88,1.1,4.4,0.32c0.59-0.3,1.17-0.65,1.71-1.03
		c9.14-6.47,18.33-12.87,27.38-19.46c4.25-3.1,8.82-4.59,14.08-4.56C325.49,423.46,341.44,423.4,357.38,423.4z M313.49,308.91
		c-1.61-2.35-2.94-4.47-4.44-6.45c-13.97-18.35-27.98-36.68-41.97-55.02c-0.76-1-1.49-2.04-2.1-3.14c-1.63-2.93-1.46-5.82,0.37-8.62
		c0.37-0.56,0.78-1.08,1.18-1.62c4.31-5.67,8.7-11.27,12.91-17.01c2.71-3.71,6.19-5.64,10.77-5.56c3.56,0.06,7.12,0.14,10.68,0.26
		c9.12,0.3,18.24,0.72,27.34-0.25c4.72-0.51,9.43-1.13,14.19-0.87c9.32,0.52,17.46,3.79,24.18,10.35c4.35,4.24,7.7,9.2,10.4,14.61
		c0.33,0.66,0.6,1.36,0.84,2.06c0.95,2.76,0.7,5.41-0.89,7.88c-0.64,1-1.36,1.94-2.08,2.88c-14.43,18.84-28.86,37.68-43.29,56.52
		c-0.92,1.19-1.29,2.45-0.6,4.11c0.78,0,1.58,0,2.38,0c17.28,0.02,34.57,0.04,51.85,0.05c0.81,0,1.64,0.01,2.44-0.1
		c1.82-0.25,2.8-1.14,3.14-2.94c0.2-1.08,0.28-2.21,0.28-3.31c0.02-32.12,0.02-64.24,0.02-96.36c0-4.94-1.09-6.04-5.99-6.04
		c-42.58,0-85.16,0.01-127.74,0.01c-0.74,0-1.49-0.01-2.22,0.07c-2.07,0.23-3.07,1.15-3.37,3.2c-0.15,1.02-0.17,2.07-0.17,3.1
		c0.03,21.51,0.09,43.02,0.1,64.54c0.01,10.61-0.05,21.22-0.08,31.82c-0.01,4.77,0.79,6.06,5.89,6.03
		c17.8-0.09,35.61-0.06,53.41-0.08C311.63,309.02,312.34,308.97,313.49,308.91z M321.32,332.16c0,0.01,0,0.02,0,0.02
		c51.33,0,102.66,0,153.99,0c1.19,0,2.38,0.03,3.55-0.11c3.5-0.43,4.95-2.1,4.96-5.62c0-0.89-0.02-1.79-0.16-2.66
		c-0.46-2.8-1.72-3.82-4.56-3.7c-2.29,0.09-4.58,0.38-6.88,0.38c-30.56,0-61.12-0.05-91.68-0.06
		c-70.39-0.02-140.78-0.03-211.18-0.05c-2.15,0-4.3-0.04-6.45,0.01c-2.25,0.05-3.29,0.81-3.73,3.04c-0.29,1.5-0.37,3.1-0.26,4.63
		c0.13,1.87,1.27,3.25,3.12,3.6c1.88,0.35,3.82,0.5,5.73,0.5C218.96,332.16,270.13,332.16,321.32,332.16z M182.15,386.12
		c-1.81,1.74-3.41,3.28-5.02,4.8c-3.39,3.2-6.8,6.39-10.18,9.6c-0.8,0.76-1.61,1.54-2.3,2.41c-1.55,1.96-1.7,4.12-0.32,6.19
		c0.94,1.41,2.05,2.73,3.26,3.92c13.82,13.54,27.72,27.01,41.51,40.58c7.71,7.59,15.79,14.82,22.4,23.46
		c0.93,1.22,2.14,2.27,3.36,3.22c3.14,2.44,5.88,2.48,9.19,0.23c0.92-0.62,1.8-1.32,2.57-2.11c1.55-1.59,3.02-3.27,4.52-4.9
		c1.86-2.02,3.63-4.12,5.6-6.02c3.57-3.45,3.66-4.73,0.15-8.18c-23.58-23.19-47.15-46.37-70.74-69.54
		C184.94,388.58,183.64,387.48,182.15,386.12z M388.06,376.74c2.84,0.42,5.09,0.72,7.33,1.09c5.52,0.89,10.65,0.39,14.79-3.93
		c0.1-0.11,0.23-0.19,0.34-0.28c11.06-9.63,22.11-19.27,33.16-28.91c0.22-0.19,0.33-0.52,0.54-0.85c-16.76,0-33.32,0-50.23,0
		C400.45,356.19,398.64,367.03,388.06,376.74z M321.19,285.96c0.37-0.61,0.51-0.78,0.59-0.98c3.38-9.17,7.72-18.33,11.04-27.51
		c0.65-1.8,1.13-3.7,1.39-5.59c0.55-3.95-0.88-5.66-4.82-6.09c-0.44-0.05-0.89-0.11-1.33-0.1c-3.33,0.06-8.52,0.1-11.85,0.21
		c-2.37,0.08-4.73,0.23-7.1,0.41c-2.16,0.16-2.88,1.2-2.32,3.28c0.19,0.71,0.46,1.41,0.72,2.1c3.67,9.85,8.26,19.7,11.93,29.56
		C319.97,282.69,320.51,284.13,321.19,285.96z M364.15,245.97c-1.41,0.14-2.29,0.27-3.16,0.29c-0.89,0.02-1.78-0.03-2.67-0.11
		c-4.5-0.4-9.35,0.09-11.14,4.21c-0.35,0.82-0.72,1.63-1.02,2.46c-2.37,6.47-4.73,12.94-7.09,19.41c-0.4,1.09-0.78,2.18-1.16,3.27
		c-1.91,1.5-5.79,11.17-5.66,11.25C340.61,277.76,358.28,257.19,364.15,245.97z M311.75,286c-2.85-7.67-13-26.89-15.86-34.5
		c-0.39-1.03-0.92-2.02-1.48-2.97c-0.98-1.66-2.46-2.49-4.42-2.43c-2.67,0.09-8.19-0.19-10.86,0.69c0.48,0.68,0.83,1.23,1.22,1.75
		c6.14,8.07,15.29,17.13,21.43,25.19c0.27,0.35,8.18,12.94,8.46,13.27C310.87,287.72,311.09,286.76,311.75,286z M337.26,223.88
		c1.85,2.98,5.46,6.95,7.75,8.62c3.82,2.78,15.64,3,19.88,0.45c-1.46-4.47-5.04-7.87-9.79-9.16
		C350.57,222.54,342.05,223.22,337.26,223.88z M305.39,223.91c-3.83-0.28-11.35-0.66-14.89-0.76c-2.92-0.08-5.52,0.92-7.48,3.24
		c-1.82,2.16-3.55,4.09-4.78,6.61C286.28,236.26,300.08,233.71,305.39,223.91z M314.31,187.49c-2.46-9.12-10-17.9-21.05-20.28
		C296.73,177.64,303.25,184.72,314.31,187.49z M349.05,167.53c-4.25,0.74-10.57,4.11-13.91,7.66c-1.5,1.59-2.76,3.47-3.83,5.38
		c-1.08,1.94-1.5,4.13-1.21,6.4C337.53,186.4,346.84,176.87,349.05,167.53z M311.74,234.05c4.86,0,12.37,0,17.31,0
		c-2.15-2.51-3.98-4.79-6.43-6.46c-1.36-0.93-2.55-0.87-3.65,0.13C317.09,229.43,313.03,231.68,311.74,234.05z"/>
	<path class="st0" d="M210.97,240.47c-0.01-2.74,0.02-5.49-0.04-8.23c-0.04-2.22-0.55-2.76-2.69-3c-1.54-0.17-3.1-0.32-4.65-0.4
		c-1.88-0.1-3.06,0.9-3.72,2.59c-0.74,1.86-0.6,3.78-0.38,5.71c0.11,0.94,0.24,1.89,0.41,3.12c-3.19,0.06-6.21,0.23-9.21,0.13
		c-1.61-0.05-2.7-1.21-2.85-2.93c-0.16-1.83-0.16-3.72,0.1-5.53c0.3-2.11,1.57-2.99,3.75-3.02c0.81-0.01,1.63,0.1,2.44,0.15
		c4.04,0.22,5.92-1.77,5.51-5.83c-0.07-0.66-0.21-1.32-0.21-1.99c-0.02-2.11,0.79-3.23,2.88-3.54c1.74-0.26,3.55-0.38,5.31-0.25
		c2.61,0.19,3.64,1.56,3.49,4.16c-0.06,1.11-0.23,2.22-0.19,3.33c0.1,2.59,1.39,3.93,4,4.12c1.03,0.07,2.07-0.09,3.1-0.13
		c2.91-0.11,4.17,0.79,4.58,3.64c0.22,1.59,0.22,3.26-0.02,4.84c-0.33,2.15-1.52,3.06-3.69,3.09c-2.22,0.03-4.45-0.1-6.67-0.15
		c-0.44-0.01-0.89,0.04-1.33,0.06L210.97,240.47z"/>
	<path class="st0" d="M442.75,177.83c2.91-0.17,5.55-0.43,8.2-0.43c2.56,0,3.79,1.2,3.98,3.8c0.12,1.54,0.05,3.12-0.18,4.64
		c-0.31,2.11-1.5,3.01-3.7,3.04c-1.26,0.02-2.52-0.12-3.78-0.07c-2.94,0.12-4.28,1.61-4.18,4.56c0.04,1.04,0.19,2.07,0.17,3.1
		c-0.04,1.99-0.79,3.23-2.68,3.56c-2.08,0.36-4.26,0.42-6.38,0.3c-1.49-0.08-2.43-1.16-2.48-2.69c-0.11-3.01-0.03-6.04-0.03-9.27
		c1.21,0.1,2.08,0.22,2.95,0.24c1.77,0.04,3.56,0.18,5.32,0c1.94-0.2,2.71-1.09,2.93-3.04c0.14-1.24,0.08-2.51,0.06-3.76
		C442.93,180.56,442.83,179.3,442.75,177.83z"/>
	<path class="st0" d="M431.7,177.78c0,3.33,0,6.65,0,10.21c-2.35,0.43-4.56,0.95-6.81,1.21c-1.96,0.23-3.57-0.71-4.23-2.56
		c-0.58-1.64-0.97-3.42-1.04-5.16c-0.09-2.41,1.33-3.8,3.74-4.15c0.44-0.06,0.89-0.09,1.33-0.05c2.36,0.17,4.71,0.38,7.06,0.57
		L431.7,177.78z"/>
	<path class="st0" d="M431.76,177.85c-0.06-2.36-0.12-4.72-0.18-7.08c-0.08-3.31,0.98-4.6,4.31-4.86c1.38-0.11,2.81,0.01,4.17,0.27
		c2.11,0.39,3.24,1.72,3.14,3.91c-0.1,2.42-0.51,4.82-0.8,7.41c-2.83,0-5.48-0.02-8.12,0.01c-0.87,0.01-1.73,0.17-2.6,0.27
		C431.7,177.78,431.76,177.85,431.76,177.85z"/>
	<path class="st0" d="M210.89,240.39c0.07,2.21,0.12,4.43,0.23,6.64c0.15,2.97-0.8,4.34-3.7,4.73c-1.44,0.19-2.96,0.17-4.39-0.06
		c-2.7-0.42-3.75-1.91-3.59-4.66c0.02-0.29,0.06-0.59,0.1-0.88c0.25-1.82,0.49-3.64,0.77-5.7c3.6,0,7.13,0,10.66,0L210.89,240.39z"
		/>
	<path class="st0" d="M147.15,194.71c0-0.74-0.02-1.47,0.01-2.21c0.07-2.02,0.96-3.28,2.95-3.55c1.73-0.23,3.54-0.21,5.28-0.01
		c1.88,0.22,3.05,1.54,3.3,3.39c0.2,1.52,0.23,3.1,0.07,4.63c-0.2,1.91-1.36,3.08-3.3,3.34c-1.59,0.22-3.24,0.28-4.85,0.14
		c-2.41-0.2-3.38-1.37-3.45-3.75C147.14,196.03,147.16,195.37,147.15,194.71C147.16,194.71,147.15,194.71,147.15,194.71z"/>
	<path class="st0" d="M489.56,160.43c0.65-0.03,1.09-0.07,1.53-0.08c3.06-0.04,4.35,1.08,4.49,4.16c0.06,1.39-0.09,2.8-0.29,4.19
		c-0.25,1.72-1.32,2.94-3.06,2.98c-2.04,0.05-4.11-0.16-6.12-0.51c-1.47-0.26-2.19-1.53-2.24-2.95c-0.06-1.54-0.03-3.11,0.23-4.62
		c0.44-2.55,1.53-3.33,4.14-3.25C488.73,160.36,489.25,160.41,489.56,160.43z"/>
	<path class="st0" d="M211.14,165.63c-0.08,1.05-0.12,1.79-0.2,2.52c-0.29,2.39-1.28,3.48-3.69,3.6c-1.6,0.08-3.24-0.11-4.84-0.37
		c-1.71-0.29-2.85-1.46-2.9-3.18c-0.05-1.97,0.13-3.98,0.5-5.92c0.3-1.58,1.29-2.06,2.97-2c1.1,0.04,2.2,0.12,3.29,0.08
		c3.46-0.14,4.88,1.2,4.89,4.69C211.17,165.36,211.14,165.65,211.14,165.63z"/>
	<path class="st0" d="M443.36,234.64c-0.81,0-1.63,0.03-2.44-0.01c-1.49-0.06-2.7-0.79-2.94-2.24c-0.32-2.01-0.43-4.09-0.35-6.13
		c0.05-1.23,1-2.17,2.23-2.51c2.01-0.56,4.06-0.81,6.14-0.4c1.45,0.29,2.46,1.1,2.66,2.6c0.21,1.6,0.4,3.23,0.35,4.85
		c-0.08,2.66-1.43,3.85-4.1,3.86c-0.52,0-1.03-0.04-1.55-0.07C443.36,234.61,443.36,234.62,443.36,234.64z"/>
	<path class="st0" d="M179,395.55c1.63,1.49,3.12,2.79,4.55,4.16c3.58,3.42,7.14,6.87,10.71,10.31c2.44,2.35,2.61,4.1,0.49,6.77
		c-0.82,1.03-1.76,2.01-2.8,2.83c-1.63,1.28-3.03,1.21-4.64-0.06c-0.58-0.45-1.09-1-1.62-1.51c-3.81-3.72-7.61-7.46-11.42-11.18
		c-1.34-1.31-1.61-2.12-0.71-3.49C175.26,400.78,177.09,398.28,179,395.55z"/>
</g>
</svg>
