<?xml version="1.0" encoding="utf-8"?>
<!-- Generator: Adobe Illustrator 23.0.1, SVG Export Plug-In . SVG Version: 6.00 Build 0)  -->
<svg version="1.1" id="Слой_1" xmlns="http://www.w3.org/2000/svg" xmlns:xlink="http://www.w3.org/1999/xlink" x="0px" y="0px"
	 viewBox="0 0 643 652" style="enable-background:new 0 0 643 652;" xml:space="preserve">
<style type="text/css">
	.st0{fill-rule:evenodd;clip-rule:evenodd;fill:#008DD2;}
</style>
<path class="st0" d="M323.15,625.92C153.52,625.93,16.43,488.85,16.42,319.4C16.4,150.86,153.19,13.13,323.17,13.12
	c168.9-0.02,306.73,136.49,306.76,306.54C629.95,488.94,492.67,625.92,323.15,625.92z M26.38,319.34
	c-0.22,163.5,132.3,296.38,296.08,296.56c164.42,0.17,296.29-133.19,296.56-295.57C619.29,156.3,486.96,23.41,323.09,23.2
	C159.35,22.98,26.6,155.48,26.38,319.34z"/>
<path class="st0" d="M351.55,281.16c0,1.15,0,1.86,0,2.57c0,14.8,0.03,29.6-0.04,44.4c-0.01,1.68,0.48,2.8,1.8,3.84
	c8.84,7,17.59,14.12,26.45,21.1c2.67,2.1,3.94,4.58,3.87,8.02c-0.15,7.36-0.04,14.72-0.05,22.08c0,0.56,0.02,1.12-0.02,1.68
	c-0.34,5.11-4.98,7.99-9.62,5.84c-4.28-1.98-8.45-4.19-12.67-6.29c-11.08-5.54-22.17-11.05-33.22-16.66
	c-1.61-0.82-2.85-0.79-4.45,0.02c-14.69,7.42-29.43,14.76-44.15,22.12c-0.86,0.43-1.71,0.89-2.62,1.18
	c-4.28,1.36-8.42-1.47-8.71-5.95c-0.1-1.59-0.04-3.2-0.04-4.8c0-6.48,0.1-12.96-0.04-19.44c-0.07-3.27,1.12-5.63,3.65-7.62
	c8.85-6.99,17.6-14.1,26.46-21.09c1.47-1.16,2.03-2.37,2.02-4.24c-0.07-14.72-0.04-29.44-0.04-44.16c0-0.87,0-1.73,0-3.06
	c-1.02,0.41-1.72,0.64-2.38,0.96c-14.23,7.1-28.46,14.21-42.69,21.31c-2.93,1.46-5.86,2.93-8.8,4.38c-1.53,0.75-3.12,1.23-4.86,0.79
	c-2.64-0.66-4.37-2.27-4.99-4.93c-0.23-1-0.3-2.06-0.3-3.09c-0.02-7.04,0.07-14.08-0.04-21.12c-0.06-3.52,1.26-6.02,4.15-8.08
	c19.23-13.67,38.38-27.46,57.6-41.14c1.66-1.18,2.39-2.37,2.38-4.5c-0.09-11.6-0.41-23.22,0.17-34.79
	c0.55-10.87,4.62-20.67,11.81-29.01c1.95-2.26,4.27-4.12,7-5.36c6.67-3.01,12.65-1.5,18,3.1c4.98,4.28,8.09,9.85,10.5,15.85
	c2.65,6.6,4.01,13.43,3.91,20.58c-0.13,10.16,0,20.32-0.06,30.48c-0.01,1.51,0.44,2.51,1.63,3.45
	c17.43,13.8,34.82,27.66,52.25,41.47c2.5,1.98,3.81,4.29,3.74,7.58c-0.14,7.6-0.01,15.2-0.06,22.8c-0.03,3.8-2.49,6.52-6.03,6.85
	c-1.66,0.16-3.13-0.42-4.56-1.21c-10.4-5.8-20.82-11.59-31.23-17.38c-4.54-2.53-9.08-5.05-13.63-7.57
	C353.1,281.83,352.52,281.61,351.55,281.16z M395.98,290.5c0-3.06-0.08-5.54,0.03-8c0.07-1.52-0.48-2.5-1.66-3.44
	c-17.49-13.85-34.92-27.77-52.42-41.61c-2.47-1.95-3.55-4.26-3.53-7.42c0.1-11.92,0.03-23.83,0.04-35.75
	c0.01-7.66-2.34-14.62-6.34-21.06c-0.88-1.41-1.99-2.72-3.19-3.87c-2.25-2.12-4-2.06-6.28,0.07c-0.87,0.81-1.68,1.73-2.35,2.71
	c-4.47,6.57-7.03,13.79-7.06,21.79c-0.04,12.16-0.06,24.31,0.02,36.47c0.02,3.11-1.18,5.35-3.66,7.09
	c-4.64,3.27-9.24,6.59-13.86,9.89c-14.95,10.71-29.9,21.42-44.87,32.1c-1.1,0.78-1.58,1.63-1.52,2.98c0.09,2.16,0.01,4.32,0.04,6.48
	c0.01,0.52,0.13,1.05,0.23,1.85c0.84-0.35,1.49-0.58,2.11-0.88c13.3-6.64,26.59-13.28,39.88-19.92c4-2,7.97-4.07,12.03-5.96
	c3.94-1.83,8.05-0.06,9.27,3.94c0.32,1.04,0.3,2.21,0.3,3.32c0.02,20.23-0.05,40.47,0.07,60.7c0.02,3.47-1.17,5.9-3.85,8
	c-8.81,6.91-17.49,13.99-26.27,20.92c-1.4,1.11-2.03,2.27-1.93,4.06c0.14,2.31,0.02,4.64,0.05,6.96c0.01,0.6,0.15,1.19,0.27,2.04
	c0.9-0.4,1.56-0.65,2.18-0.97c6.29-3.13,12.59-6.27,18.88-9.42c6.43-3.22,12.9-6.37,19.27-9.7c2.75-1.44,5.29-1.46,7.97,0.01
	c2.03,1.12,4.13,2.1,6.21,3.13c10.72,5.36,21.44,10.72,32.16,16.07c0.59,0.29,1.24,0.47,2.18,0.81c0-3.12-0.15-5.84,0.05-8.54
	c0.16-2.18-0.69-3.52-2.34-4.83c-8.61-6.78-17.09-13.71-25.72-20.46c-2.75-2.15-4-4.62-3.98-8.18c0.12-20.15,0.06-40.31,0.06-60.46
	c0-0.72-0.03-1.44,0.03-2.16c0.34-3.9,3.98-6.65,7.82-5.81c1.07,0.23,2.12,0.71,3.09,1.24c13.91,7.71,27.81,15.45,41.71,23.17
	C392.53,288.69,394,289.44,395.98,290.5z"/>
<path class="st0" d="M174.11,135.31c8.16-0.1,15.49,2.35,22.22,6.72c1.3,0.84,2.19,0.75,3.4-0.07c4.91-3.34,10.38-5.5,16.22-6.17
	c13.02-1.51,24.53,2.01,34.12,11.19c5.33,5.1,9.02,11.14,10.85,18.32c2.54,9.95,0.8,19.22-4.54,27.81
	c-1.71,2.75-3.87,5.32-6.21,7.58c-8.79,8.51-17.74,16.87-26.63,25.28c-6.74,6.38-13.47,12.77-20.26,19.09
	c-0.97,0.91-2.13,1.77-3.36,2.19c-2.56,0.87-4.85,0.11-6.81-1.76c-5.1-4.85-10.23-9.67-15.35-14.5
	c-10.24-9.66-20.44-19.37-30.73-28.98c-5.56-5.19-9.8-11.15-11.75-18.59c-2.24-8.51-1.75-16.85,2.15-24.76
	c5.88-11.92,15.48-19.32,28.38-22.35C168.51,135.68,171.34,135.63,174.11,135.31z M198.08,231.86c0.71-0.65,1.36-1.21,1.99-1.8
	c7.15-6.75,14.31-13.5,21.46-20.27c6.8-6.43,13.69-12.77,20.34-19.34c8.16-8.06,9.32-20.28,2.8-29.63
	c-9.61-13.8-28.09-16.05-40.51-5.9c-0.74,0.61-1.45,1.27-2.22,1.83c-2.62,1.91-5.35,1.9-7.98-0.04c-0.77-0.57-1.46-1.24-2.21-1.85
	c-5.6-4.52-12.02-6.59-19.17-6.15c-7.53,0.46-13.91,3.59-18.94,9.18c-6.21,6.9-8.19,14.85-5.13,23.79c1.41,4.11,4.01,7.4,7.14,10.36
	c13.63,12.82,27.22,25.69,40.84,38.54C196.94,230.99,197.45,231.35,198.08,231.86z"/>
<path class="st0" d="M517.67,429.78c0.05,8.37-2.51,14.55-7.67,19.44c-7.78,7.37-15.78,14.5-23.69,21.73
	c-2.77,2.54-5.54,5.08-8.34,7.58c-3.57,3.19-6.69,3.25-10.19,0.07c-10.42-9.46-20.81-18.95-31.19-28.46
	c-4.64-4.25-7.58-9.44-8.37-15.75c-1.17-9.39,1.78-17.34,9.05-23.27c10.1-8.23,21.36-9.47,33.23-4.05c1.67,0.76,2.87,0.92,4.59,0.05
	c12.54-6.35,28.38-3.04,36.96,7.66C515.81,419.48,517.89,424.84,517.67,429.78z M472.8,465.37c0.77-0.64,1.33-1.07,1.86-1.55
	c6.74-6.13,13.47-12.26,20.2-18.41c2.01-1.83,4.08-3.6,5.97-5.55c5.42-5.59,4.93-13.86-1.03-18.85c-5.93-4.96-15-5.53-21.1-0.71
	c-4.27,3.38-7.62,3.22-11.75,0.01c-6.37-4.97-15.65-4.26-21.64,1.16c-2.61,2.36-4.02,5.29-4.16,8.85
	c-0.17,4.21,1.43,7.59,4.52,10.38c7.58,6.87,15.13,13.76,22.7,20.65C469.77,462.64,471.19,463.92,472.8,465.37z"/>
<path class="st0" d="M319.17,448.73c0-20.56-0.01-41.11,0.01-61.67c0-1.27,0.05-2.58,0.35-3.8c0.72-2.96,3.36-4.97,6.29-4.97
	c2.92,0,5.52,2,6.29,4.96c0.24,0.91,0.33,1.89,0.33,2.84c0.02,41.83,0.02,83.66-0.01,125.49c0,1.1-0.16,2.25-0.49,3.29
	c-0.81,2.57-3.09,4.17-5.75,4.21c-3.16,0.05-5.5-1.28-6.39-3.98c-0.46-1.41-0.6-2.98-0.6-4.47
	C319.16,490,319.17,469.36,319.17,448.73z"/>
<path class="st0" d="M389.54,218.75c-0.04-3.51,2.67-6.27,6.54-6.72c1.9-0.22,3.84-0.34,5.66-0.87c7.5-2.16,12.77-8.92,13.27-16.75
	c0.07-1.11,0.2-2.24,0.51-3.3c0.79-2.67,3.37-4.55,6.1-4.59c2.7-0.04,5.38,1.81,6.22,4.44c0.33,1.05,0.5,2.19,0.54,3.29
	c0.32,9.46,8.54,17.51,17.82,17.73c3.19,0.08,5.82,1.12,7.13,4.28c1.46,3.55-0.45,7.52-4.13,8.61c-0.99,0.29-2.04,0.44-3.07,0.48
	c-7.32,0.26-15.19,5.45-17.37,14.74c-0.31,1.31-0.28,2.7-0.42,4.05c-0.31,2.92-1.55,5.19-4.47,6.24c-3.42,1.23-7.2-0.54-8.31-3.99
	c-0.36-1.12-0.48-2.35-0.56-3.53c-0.57-9.09-7.78-16.55-16.86-17.43c-1.35-0.13-2.72-0.23-4.02-0.59
	C391.44,224.09,389.57,221.5,389.54,218.75z M427.02,218.56c-1.65-1.59-3.62-3.49-5.28-5.1c-1.68,1.63-3.65,3.54-5.31,5.14
	c1.7,1.72,3.62,3.66,5.26,5.31C423.33,222.25,425.27,220.31,427.02,218.56z"/>
<path class="st0" d="M191.48,359.17c3.27-0.06,5.96,2.21,6.54,5.51c0.43,2.43,0.51,4.98,1.32,7.28c2.42,6.89,7.36,11.03,14.58,12.36
	c1.18,0.22,2.38,0.31,3.57,0.44c3.67,0.4,6.35,3.26,6.24,6.66c-0.11,3.49-2.8,6.21-6.52,6.41c-2.58,0.14-5.1,0.5-7.46,1.57
	c-6.55,2.97-10.42,7.98-11.37,15.16c-0.14,1.03-0.19,2.07-0.35,3.1c-0.54,3.48-3.21,5.78-6.59,5.72c-3.29-0.06-5.98-2.58-6.43-5.99
	c-0.25-1.89-0.35-3.83-0.82-5.67c-1.96-7.67-8.88-13.29-16.83-13.81c-0.8-0.05-1.61-0.03-2.39-0.17c-3.2-0.54-5.55-3.39-5.5-6.59
	c0.05-3.23,2.46-5.85,5.75-6.36c2.44-0.37,4.96-0.57,7.27-1.35c7.26-2.46,12.12-9.17,12.44-16.87c0.09-2.07,0.52-3.96,2.03-5.46
	C188.21,359.86,189.71,359.18,191.48,359.17z M197.17,390.83c-1.72-1.69-3.67-3.61-5.31-5.22c-2.04,2.07-3.93,3.98-5.73,5.8
	c1.68,1.61,3.68,3.53,5.55,5.32C193.32,394.96,195.21,392.94,197.17,390.83z"/>
<path class="st0" d="M249.36,384.91c0,18.54,0.01,37.09-0.02,55.63c0,1.26-0.09,2.58-0.44,3.78c-0.85,2.95-3.47,4.7-6.53,4.58
	c-2.88-0.12-5.32-2.1-5.97-5c-0.24-1.08-0.31-2.21-0.31-3.33c-0.02-37.17-0.02-74.34,0-111.51c0-1.19,0.1-2.41,0.4-3.55
	c0.7-2.69,3.22-4.62,5.97-4.75c2.7-0.13,5.46,1.62,6.31,4.28c0.43,1.34,0.56,2.82,0.56,4.23
	C249.38,347.82,249.36,366.37,249.36,384.91z"/>
<path class="st0" d="M409.11,384.95c0,18.54,0,37.09,0,55.63c0,0.88,0.04,1.77-0.07,2.63c-0.41,3.3-3.29,5.74-6.65,5.69
	c-3.3-0.05-5.92-2.42-6.3-5.73c-0.11-0.95-0.11-1.92-0.11-2.87c0-36.93,0-73.86,0-110.79c0-0.88,0-1.76,0.08-2.63
	c0.32-3.5,3.13-6.14,6.5-6.12c3.46,0.02,6.33,2.83,6.53,6.4c0.04,0.8,0.02,1.6,0.02,2.4C409.11,348.02,409.11,366.49,409.11,384.95z
	"/>
<path class="st0" d="M351.19,451.81c0-15.51,0.01-31.02-0.01-46.53c0-1.63,0.13-3.18,1-4.61c1.5-2.45,4.37-3.63,7.27-2.97
	c2.45,0.56,4.43,2.78,4.75,5.42c0.12,1.03,0.14,2.07,0.14,3.11c0.01,30.46,0.01,60.92,0,91.38c0,1.04-0.01,2.08-0.13,3.11
	c-0.39,3.29-3.07,5.71-6.31,5.76c-3.26,0.05-6.22-2.49-6.64-5.75c-0.11-0.87-0.07-1.76-0.07-2.63
	C351.19,482.67,351.19,467.24,351.19,451.81z"/>
<path class="st0" d="M300.44,452.02c0,15.27,0,30.54,0,45.81c0,0.88,0.03,1.76-0.05,2.64c-0.32,3.42-3.26,6.07-6.62,6.02
	c-3.32-0.04-6.06-2.59-6.38-5.97c-0.08-0.87-0.07-1.76-0.07-2.64c0-30.62,0-61.24,0-91.85c0-0.88-0.01-1.76,0.08-2.63
	c0.35-3.43,3-5.81,6.45-5.83c3.38-0.01,6.17,2.42,6.53,5.77c0.1,0.95,0.07,1.92,0.07,2.88
	C300.44,421.49,300.44,436.76,300.44,452.02z"/>
<path class="st0" d="M249.33,471.2c0,1.12,0.08,2.24-0.01,3.36c-0.3,3.54-3.01,6.24-6.33,6.39c-3.29,0.16-6.34-2.32-6.72-5.89
	c-0.28-2.6-0.28-5.29,0.02-7.89c0.4-3.51,3.24-5.83,6.54-5.78c3.36,0.05,6.12,2.66,6.47,6.21c0.12,1.19,0.02,2.4,0.02,3.59H249.33z"
	/>
<path class="st0" d="M409.09,471.31c0,1.12,0.06,2.24-0.01,3.35c-0.21,3.41-3.06,6.2-6.39,6.3c-3.32,0.1-6.36-2.55-6.59-6
	c-0.17-2.54-0.17-5.12,0-7.66c0.24-3.38,3.09-5.9,6.4-5.91c3.35-0.01,6.31,2.69,6.56,6.08
	C409.16,468.74,409.08,470.03,409.09,471.31L409.09,471.31z"/>
</svg>
