<?xml version="1.0" encoding="utf-8"?>
<!-- Generator: Adobe Illustrator 23.0.1, SVG Export Plug-In . SVG Version: 6.00 Build 0)  -->
<svg version="1.1" id="Слой_1" xmlns="http://www.w3.org/2000/svg" xmlns:xlink="http://www.w3.org/1999/xlink" x="0px" y="0px"
	 viewBox="0 0 643 652" style="enable-background:new 0 0 643 652;" xml:space="preserve">
<style type="text/css">
	.st0{fill-rule:evenodd;clip-rule:evenodd;fill:#008DD2;}
</style>
<path class="st0" d="M323.02,625.92c-169.46,0-306.5-137.02-306.59-306.41C16.33,150.94,153.1,13.16,323.05,13.12
	c169.16-0.04,306.6,136.8,306.75,306.3C629.94,488.72,492.63,625.92,323.02,625.92z M322.62,23.2
	C159,23.31,26.64,155.62,26.38,319.32c-0.26,163.56,132.56,296.52,296.3,296.61c163.61,0.09,296.46-132.85,296.33-296.55
	C618.88,155.66,486.22,23.08,322.62,23.2z"/>
<path class="st0" d="M380.51,201.77c1.18,0,1.88,0,2.58,0c9.84,0,19.68,0.01,29.52,0.01c4.44,0,5.18-0.73,5.12-5.15
	c-0.13-8.96-0.27-17.92-0.44-26.87c-0.03-1.56-0.2-3.12-0.34-5.21c-1.12,1.4-1.87,2.41-2.68,3.35c-2.14,2.5-4.68,4.5-8.04,4.79
	c-2.03,0.18-4.18,0.02-6.14-0.49c-2.53-0.65-4.99-1.69-7.39-2.76c-13.33-5.96-27.08-10.56-41.4-13.45
	c-16.03-3.24-32.17-4.12-48.45-2.36c-24.43,2.64-46.87,11-67.83,23.6c-3.49,2.1-6.83,4.45-10.31,6.57
	c-1.55,0.95-3.22,1.81-4.95,2.34c-2.85,0.88-5.25-0.21-7.01-2.81c-1.77-2.62-1.91-5.24-0.11-7.57c0.96-1.24,2.19-2.34,3.47-3.26
	c18.37-13.24,38.53-22.65,60.47-28.22c18.11-4.6,36.51-6.5,55.17-5.27c18.64,1.24,36.63,5.48,54.06,12.16
	c3.13,1.2,6.22,2.52,9.32,3.8c0.89,0.36,1.76,0.77,2.65,1.12c3.51,1.35,6.58,0.77,9.13-2.1c0.69-0.78,1.35-1.59,2.09-2.31
	c3.45-3.33,6.89-6.67,10.4-9.94c1.49-1.39,3.26-2.3,5.35-2.46c3.08-0.24,5.52,1.28,6.46,4.22c0.36,1.12,0.54,2.35,0.54,3.53
	c0.04,20.48,0.07,40.96,0.05,61.43c0,4.28-2.12,6.67-6.36,7.33c-1.26,0.2-2.55,0.29-3.82,0.29c-18.96,0.02-37.92,0.03-56.88,0.02
	c-1.27,0-2.57-0.1-3.8-0.4c-5.66-1.38-7.68-7.72-3.66-11.91c2.2-2.3,4.81-4.21,7.25-6.27c0.96-0.81,1.97-1.57,3.19-2.53
	c-1.04-0.53-1.78-0.95-2.54-1.3c-7.93-3.58-16.25-5.74-24.88-6.77c-8.91-1.07-17.83-1.56-26.81-1.05
	c-22.98,1.31-44.35,7.8-63.79,20.1c-31.61,19.99-51.84,48.41-60.19,84.76c-9.5,41.35-0.09,78.9,25.69,112.23
	c18.61,24.07,42.97,39.85,72.59,47.23c14.64,3.65,29.52,4.64,44.53,3.24c35.13-3.29,64.72-17.91,88.42-44.06
	c17.18-18.96,27.69-41.27,32.24-66.44c1.3-7.18,1.72-14.44,2.27-21.69c0.46-6.08,2.3-7.92,8.44-7.99
	c10.08-0.12,20.16-0.12,30.24-0.04c5.3,0.04,7.95,2.79,7.91,8.12c-0.08,9.45-0.98,18.85-2.46,28.17
	c-2.77,17.39-7.8,34.1-15.51,49.96c-9.45,19.44-22.28,36.36-38.04,51.09c-16.49,15.41-34.78,28.15-55.57,37.13
	c-15.89,6.86-32.45,11.11-49.7,12.82c-38.48,3.82-82.96-6.2-115.99-26.24c-25.33-15.37-44.99-36.2-59.56-61.9
	c-10.76-18.97-18.68-39.05-22.9-60.51c-2.76-14.04-3.74-28.19-2.83-42.48c1.85-29.33,11.32-56.24,25.87-81.54
	c1.31-2.29,2.62-4.59,4.09-6.77c1.02-1.51,2.19-2.97,3.52-4.21c2.13-1.96,4.53-2.17,6.86-0.91c2.94,1.6,4.76,4.46,4.15,7.19
	c-0.38,1.66-1.18,3.31-2.11,4.76c-6.24,9.71-11.71,19.82-15.98,30.55c-6.28,15.79-10.11,32.12-11.43,49.08
	c-6.07,78.08,44.52,154.52,127.32,174.49c16.45,3.97,33.13,5.44,50,4.36c72.83-4.67,134.42-56.47,151.46-127.3
	c1.85-7.7,3.1-15.51,3.92-23.39c0.14-1.35,0.44-2.69,0.52-4.04c0.15-2.54-0.73-3.64-3.22-4.26c-0.46-0.11-0.94-0.21-1.42-0.22
	c-2.8-0.06-5.6-0.18-8.4-0.1c-3.69,0.11-4.97,1.26-5.6,4.93c-0.58,3.39-0.97,6.81-1.52,10.2c-3.81,23.35-11.58,45.17-25.3,64.63
	c-13.57,19.24-31.27,33.63-52.18,44.22c-14.71,7.44-30.11,12.87-46.41,15.57c-12.84,2.13-25.74,2.56-38.73,1.29
	c-58.33-5.71-111.06-47.32-127.8-110.56c-4.13-15.61-5.78-31.46-4.63-47.53c2.04-28.81,11.71-54.92,28.97-78.06
	c21.65-29.03,50.06-48.06,85.38-56.51c15.3-3.66,30.82-4.41,46.48-3.25c15.28,1.13,30,4.54,44.05,10.67
	c2.19,0.96,4.38,1.99,6.41,3.24c3.24,1.99,3.81,4.05,2.17,7.51c-0.82,1.73-1.9,3.33-2.9,4.96
	C382.19,199.34,381.49,200.31,380.51,201.77z"/>
<path class="st0" d="M313.79,265.17c0-8.96-0.02-17.91,0.02-26.87c0.01-1.59,0.13-3.21,0.45-4.76c0.6-2.94,2.44-4.6,5.15-4.92
	c3.55-0.41,6.02,0.8,7.4,3.62c0.98,2.01,1.07,4.17,1.07,6.33c0.03,15.28,0.04,30.55,0.06,45.83c0,2.56,0,5.12,0.06,7.67
	c0.08,3.04,1.54,5.31,4.06,6.94c0.4,0.26,0.82,0.51,1.22,0.76c8.57,5.27,12.9,15.08,10.89,24.7c-2.1,10.08-9.98,17.55-20.07,19.02
	c-12.49,1.82-24.28-6.24-26.97-18.45c-0.66-3.01-0.59-6.03-0.04-9.05c0.16-0.87,0.3-1.73,0.45-2.6c0.66-3.94-0.57-7.22-3.41-9.99
	c-4.07-3.96-8.11-7.94-12.1-11.98c-1.23-1.24-2.38-2.61-3.28-4.1c-1.73-2.87-1.2-5.46,1.35-8c2.51-2.5,5.17-3,8.01-1.25
	c1.48,0.91,2.84,2.08,4.08,3.3c4.56,4.49,9.04,9.05,13.57,13.58c0.68,0.68,1.38,1.34,2.13,1.92c1.35,1.02,2.81,1,4.29,0.28
	c1.47-0.71,1.63-1.99,1.63-3.43c-0.03-9.52-0.01-19.03-0.01-28.55C313.81,265.17,313.8,265.17,313.79,265.17z M320.59,329.52
	c5.67,0,9.96-4.25,9.92-9.83c-0.04-5.15-4.36-9.36-9.62-9.37c-6.14-0.01-9.75,3.43-9.77,9.32
	C311.1,325.89,314.58,329.52,320.59,329.52z"/>
<path class="st0" d="M226.78,325.03c0-2-0.16-4.01,0.03-5.99c0.36-3.69,2.48-5.48,6.45-5.73c3.69-0.23,6.1,1.39,6.83,4.96
	c0.56,2.73,0.75,5.54,1.08,8.31c1.4,11.79,4.65,23.02,10.49,33.4c11.06,19.64,27.86,31.66,49.54,37.18
	c6.14,1.56,12.42,2.21,18.71,2.78c0.4,0.04,0.8,0.07,1.19,0.13c4.66,0.74,6.5,3.09,6.07,7.79c-0.29,3.3-1.86,5.11-5.11,5.73
	c-1.17,0.22-2.38,0.32-3.57,0.32c-21.6,0.01-40.54-7.39-57.09-20.99c-16.15-13.28-27.21-29.96-32.42-50.34
	C227.54,336.82,226.72,330.97,226.78,325.03z"/>
<path class="st0" d="M386.38,300.76c-4.7-0.32-9.42-0.44-14.09-1.02c-4.06-0.51-5.61-2.23-6.13-6.21
	c-0.69-5.17-0.8-10.35,0.27-15.51c1.82-8.77,7.13-14.03,15.98-15.69c1.49-0.28,3.01-0.36,4.52-0.53c0.56-0.06,1.12-0.07,1.67-0.17
	c2.41-0.48,3.36-1.55,3.46-3.87c0.13-2.74-0.84-4.42-3.1-5.01c-1.22-0.32-2.52-0.45-3.79-0.48c-3.12-0.08-6.24-0.02-9.36-0.1
	c-1.51-0.04-3.05-0.16-4.52-0.48c-3.23-0.69-5.21-3.34-5.13-6.61c0.09-3.45,1.98-5.84,5.21-6.57c0.31-0.07,0.63-0.16,0.94-0.15
	c5.91,0.09,11.86-0.17,17.73,0.38c9.5,0.9,15.62,7.2,16.41,16.16c0.84,9.52-4.38,17.6-13.26,20.34c-1.74,0.54-3.59,0.69-5.4,0.98
	c-0.63,0.1-1.28,0.05-1.91,0.14c-4.29,0.59-6.12,3.05-5.49,7.35c0.22,1.48,0.79,2.12,2.27,2.37c0.63,0.1,1.27,0.08,1.91,0.09
	c4.4,0.02,8.8-0.01,13.19,0.08c1.42,0.03,2.89,0.18,4.24,0.61c2.71,0.87,4.15,2.88,4.32,5.73c0.17,2.95-0.71,5.51-3.57,6.71
	c-1.72,0.72-3.69,1.06-5.56,1.16c-3.59,0.18-7.19,0.05-10.79,0.05C386.39,300.58,386.38,300.67,386.38,300.76z"/>
<path class="st0" d="M454.69,267.78c0,7.36,0.06,14.72-0.04,22.07c-0.03,1.97-0.3,4.01-0.88,5.88c-0.94,3.03-3.44,4.52-6.67,4.39
	c-3.3-0.13-5.36-1.71-6.21-4.96c-0.32-1.22-0.44-2.51-0.53-3.78c-0.17-2.55-0.22-5.11-0.38-7.67c-0.33-5.1-2.03-6.77-7.17-7.02
	c-3.75-0.19-7.51-0.29-11.26-0.43c-0.32-0.01-0.64-0.04-0.96-0.07c-4.22-0.49-6.17-2.31-6.57-6.58c-0.3-3.26-0.37-6.54-0.41-9.82
	c-0.06-4.56-0.07-9.12,0.05-13.67c0.05-1.9,0.31-3.84,0.86-5.66c0.96-3.2,3.39-4.53,7.14-4.27c3.21,0.22,5.15,1.88,5.73,5.11
	c0.28,1.56,0.35,3.18,0.36,4.77c0.02,3.44-0.09,6.88-0.11,10.31c-0.02,4.46,1.57,6.08,6.01,6.23c0.32,0.01,0.64,0.01,0.96-0.01
	c4.36-0.21,5.86-1.78,5.84-6.12c-0.01-3.92-0.05-7.84-0.07-11.75c0-0.72,0-1.44,0.07-2.16c0.5-5.14,4.8-7.88,9.65-6.11
	c2.6,0.95,3.87,3.04,4.23,5.65c0.26,1.89,0.34,3.82,0.35,5.74c0.04,6.64,0.02,13.27,0.02,19.91H454.69z"/>
<path class="st0" d="M461.42,268.05c0-7.51-0.02-15.02,0.02-22.54c0.01-1.51,0.05-3.06,0.38-4.52c0.69-3.01,2.47-4.47,5.5-4.82
	c3.21-0.38,5.69,0.79,7.03,3.44c1.17,2.33,1.56,4.83,1.34,7.45c-0.13,1.59-0.25,3.19-0.2,4.78c0.11,3.66,1.78,6.43,5.07,8.09
	c1.42,0.71,2.91,1.36,4.44,1.76c8.88,2.32,14,8.17,16.09,16.91c1.26,5.28,1.25,10.62,0.43,15.95c-0.55,3.61-3.08,5.63-6.63,5.61
	c-3.75-0.02-6.59-2.31-6.96-5.92c-0.33-3.17-0.34-6.38-0.49-9.57c-0.22-5-2.79-8.44-7.5-10.02c-2.7-0.9-3.95-0.12-4.15,2.76
	c-0.12,1.67,0.06,3.35,0.03,5.03c-0.06,3.27-0.12,6.55-0.31,9.82c-0.07,1.17-0.36,2.38-0.79,3.48c-1.21,3.11-3.96,4.71-7.22,4.34
	c-3.23-0.36-5.32-2.32-5.89-5.68c-0.2-1.17-0.21-2.39-0.21-3.58c-0.02-7.59-0.01-15.18-0.01-22.78
	C461.41,268.05,461.41,268.05,461.42,268.05z"/>
<path class="st0" d="M230.14,403.02c0.07-4.32,2.78-6.92,7.15-6.84c3.86,0.07,6.93,3.26,6.86,7.12c-0.07,3.71-3.46,6.87-7.28,6.76
	C232.69,409.94,230.08,407.21,230.14,403.02z"/>
<path class="st0" d="M197.09,204.81c-4.3,0.03-7.13-2.73-7.12-6.95c0.01-4.01,2.89-6.88,6.98-6.93c3.68-0.05,6.92,3.09,6.99,6.78
	C204.02,201.62,200.97,204.78,197.09,204.81z"/>
<path class="st0" d="M396.75,403.17c-0.02-4.15,2.73-6.94,6.85-6.95c3.95-0.01,7.05,3.09,6.98,6.98c-0.08,3.83-3.12,6.87-6.88,6.86
	C399.54,410.05,396.77,407.3,396.75,403.17z"/>
<path class="st0" d="M230.16,236.74c0-4.18,2.72-6.97,6.84-7.02c3.9-0.05,7.11,3.1,7.08,6.92c-0.03,3.73-3.19,6.89-6.89,6.9
	C233.01,243.55,230.16,240.79,230.16,236.74z"/>
<path class="st0" d="M313.55,201.96c0.12-4.3,2.64-6.77,6.79-6.66c4.06,0.11,7.02,2.98,6.95,6.73c-0.08,4.17-3.14,7.07-7.29,6.91
	C315.79,208.78,313.43,206.23,313.55,201.96z"/>
<path class="st0" d="M320.32,430.81c3.99-0.03,6.92,2.82,6.92,6.71c0,4.12-2.72,6.79-6.99,6.87c-4.24,0.08-6.71-2.46-6.73-6.94
	C313.51,433.3,316.03,430.84,320.32,430.81z"/>
<path class="st0" d="M202.52,313.18c4.05-0.04,6.94,2.77,6.9,6.69c-0.05,4.05-2.77,6.7-6.88,6.71c-4.25,0.01-6.65-2.39-6.73-6.71
	C195.73,315.68,198.2,313.21,202.52,313.18z"/>
</svg>
