<?xml version="1.0" encoding="utf-8"?>
<!-- Generator: Adobe Illustrator 23.0.1, SVG Export Plug-In . SVG Version: 6.00 Build 0)  -->
<svg version="1.1" id="Слой_1" xmlns="http://www.w3.org/2000/svg" xmlns:xlink="http://www.w3.org/1999/xlink" x="0px" y="0px"
	 viewBox="0 0 61.44 61.44" fill="#ff7f74" style="enable-background:new 0 0 61.44 61.44;" xml:space="preserve">
<path d="M59.99,31.24C59.62,47.61,47.05,60.2,30.9,60.17C14.68,60.14,1.94,47.38,2.01,31.12C2.07,14.8,14.85,2.25,30.96,2.25
	C47.15,2.25,59.68,14.95,59.99,31.24z M57.44,31.24c0.01-14.61-11.82-26.48-26.42-26.5C16.41,4.71,4.51,16.54,4.48,31.13
	C4.46,45.8,16.31,57.69,30.97,57.69C45.57,57.69,57.43,45.84,57.44,31.24z"/>
<path d="M17.8,31.26c0-2.48-0.01-4.96,0-7.44c0.03-3.58,2.2-5.75,5.78-5.76c4.92-0.02,9.84-0.01,14.76,0
	c3.58,0.01,5.75,2.19,5.76,5.78c0.02,4.92,0.02,9.84,0,14.76c-0.01,3.57-2.2,5.75-5.78,5.76c-4.92,0.01-9.84,0.01-14.76,0
	c-3.58-0.01-5.73-2.19-5.76-5.78c-0.01-1.24,0-2.48-0.01-3.72C17.8,33.66,17.8,32.46,17.8,31.26z M38.76,30
	c-0.35,5.88-2.88,8.96-7.47,9.13c-2.09,0.08-3.95-0.56-5.51-1.94c-2.16-1.91-2.89-4.4-2.55-7.27c-1.02,0-1.91,0-2.92,0
	c0,3.01-0.02,5.92,0.01,8.83c0.02,2.06,1.05,3.08,3.13,3.09c4.99,0.02,9.99,0.02,14.98,0c2.14-0.01,3.15-1.03,3.17-3.18
	c0.02-2.16,0.01-4.31,0-6.47c-0.01-2.61-0.02-2.61-2.66-2.32C38.9,29.89,38.87,29.93,38.76,30z M30.97,25.91
	c-3.06-0.01-5.3,2.23-5.31,5.29c-0.01,3.06,2.23,5.3,5.29,5.31c3.06,0.01,5.3-2.23,5.31-5.29C36.27,28.17,34.03,25.92,30.97,25.91z
	 M40.31,26.04c0-1.27,0.03-2.38-0.03-3.49c-0.01-0.24-0.36-0.64-0.58-0.65c-1.14-0.07-2.28-0.03-3.58-0.03
	c0,1.26-0.03,2.4,0.03,3.54c0.01,0.22,0.34,0.59,0.53,0.6C37.86,26.07,39.04,26.04,40.31,26.04z"/>
</svg>
