<?xml version="1.0" encoding="utf-8"?>
<!-- Generator: Adobe Illustrator 23.0.1, SVG Export Plug-In . SVG Version: 6.00 Build 0)  -->
<svg version="1.1" id="Слой_1" xmlns="http://www.w3.org/2000/svg" xmlns:xlink="http://www.w3.org/1999/xlink" x="0px" y="0px"
	 viewBox="0 0 61.44 61.44" fill="#ff7f74" style="enable-background:new 0 0 61.44 61.44;" xml:space="preserve">
<path d="M31.36,2.18c16.15,0.27,29,12.67,29.01,29c0.01,16.32-12.76,28.98-28.95,28.99C15.24,60.18,2.44,47.48,2.46,31.18
	C2.49,14.9,15.21,2.54,31.36,2.18z M4.94,31.2c0,14.61,11.83,26.47,26.43,26.49c14.61,0.02,26.5-11.82,26.52-26.4
	C57.92,16.61,46.06,4.73,31.4,4.73C16.8,4.74,4.95,16.59,4.94,31.2z"/>
<path d="M21.36,21.78c3.11,3.27,6.62,5.24,10.72,5.39c0.55-1.57,0.77-3.09,1.54-4.25c1.53-2.3,4.7-2.88,7.02-1.27
	c1.14,0.8,2.01,0.6,3.06,0.2c0.33-0.12,0.66-0.23,1.22-0.13c-0.59,0.73-1.19,1.45-1.91,2.33c0.87-0.18,1.58-0.33,2.48-0.52
	c-0.3,0.41-0.43,0.74-0.67,0.89c-1.45,0.92-1.58,2.32-1.75,3.89C42.2,36.27,35.44,42,27.43,41.59c-1.81-0.09-3.6-0.63-5.38-1.03
	c-0.5-0.11-0.95-0.46-1.4-0.84c2.48-0.21,4.71-0.89,6.72-2.38c-0.98-0.46-1.98-0.76-2.78-1.33c-0.76-0.55-1.32-1.4-2.16-2.33
	c0.99-0.07,1.56-0.11,2.12-0.15c-2.09-1.13-3.65-2.55-3.78-5.18c0.69,0.13,1.29,0.25,1.89,0.36C20.84,26.67,20.22,24.51,21.36,21.78
	z"/>
</svg>
