<?xml version="1.0" encoding="utf-8"?>
<!-- Generator: Adobe Illustrator 23.0.1, SVG Export Plug-In . SVG Version: 6.00 Build 0)  -->
<svg version="1.1" id="Слой_1" xmlns="http://www.w3.org/2000/svg" xmlns:xlink="http://www.w3.org/1999/xlink" x="0px" y="0px"
	 viewBox="0 0 61.44 61.44" fill="#ff7f74" style="enable-background:new 0 0 61.44 61.44;" xml:space="preserve">
<path d="M30.9,1.93c16.15,0.27,29,12.67,29.01,29c0.01,16.32-12.76,28.98-28.95,28.99C14.78,59.93,1.98,47.22,2.01,30.93
	C2.03,14.65,14.75,2.29,30.9,1.93z M57.44,30.93C57.43,16.34,45.56,4.48,30.96,4.48c-14.6,0-26.47,11.85-26.48,26.45
	C4.47,45.59,16.36,57.47,31.02,57.44C45.62,57.41,57.45,45.55,57.44,30.93z"/>
<path d="M37.38,19.22c0,1.3,0,2.44,0,3.71c-0.78,0-1.49-0.02-2.2,0.01c-1.08,0.05-1.69,0.53-1.67,1.72
	c0.06,3.01-0.32,2.37,2.36,2.44c0.47,0.01,0.95,0,1.56,0c-0.14,1.32-0.27,2.52-0.42,3.83c-1.17,0-2.27,0-3.49,0
	c0,1.62,0,3.12,0,4.62c0,2.04-0.04,4.08,0.02,6.11c0.02,0.86-0.29,1.11-1.11,1.08c-1.27-0.05-2.55-0.01-3.96-0.01
	c0-3.95,0-7.8,0-11.77c-0.92,0-1.7,0-2.56,0c0-1.3,0-2.48,0-3.75c0.23-0.04,0.5-0.11,0.76-0.11c1.9-0.02,1.74,0.24,1.75-1.85
	c0-0.24,0-0.48,0-0.72c0.08-3.71,1.46-5.16,5.15-5.31C34.79,19.17,36.02,19.22,37.38,19.22z"/>
</svg>
