<?xml version="1.0" encoding="utf-8"?>
<!-- Generator: Adobe Illustrator 23.0.1, SVG Export Plug-In . SVG Version: 6.00 Build 0)  -->
<svg version="1.1" id="Слой_1" xmlns="http://www.w3.org/2000/svg" xmlns:xlink="http://www.w3.org/1999/xlink" x="0px" y="0px"
	 viewBox="0 0 44.47 39.23" style="enable-background:new 0 0 44.47 39.23;" xml:space="preserve">
<style type="text/css">
	.st0{fill:#FF7F74;}
	.st1{fill:#73276E;}
</style>
<path class="st1" d="M43.68,3.51L42.4,0.33c-0.1-0.11-0.19-0.19-0.29-0.24C42.02,0.03,41.92,0,41.83,0c-2.05,0.87-4.02,2-5.92,3.38
	c-1.9,1.39-3.62,3.09-5.14,5.1c-1.52,2.01-2.7,4.24-3.53,6.69c-0.83,2.45-1.25,5.17-1.25,8.16c0,2.56,0.37,4.84,1.11,6.85
	c0.74,2.01,1.67,3.68,2.78,5.02c1.12,1.33,2.41,2.34,3.89,3.02c1.47,0.68,2.88,1.02,4.21,1.02c1.67,0,3.16-0.61,4.5-1.83
	c1.33-1.22,2-3,2-5.34c0-0.65-0.06-1.18-0.18-1.59c-0.12-0.41-0.25-0.75-0.39-1.02c-0.14-0.27-0.33-0.54-0.57-0.82
	c-0.24-0.27-0.5-0.62-0.79-1.06c-2.86,0-4.94-0.92-6.25-2.77c-1.31-1.85-1.96-4.16-1.96-6.93c0-3.15,0.83-5.75,2.5-7.79
	c1.67-2.04,3.9-3.96,6.71-5.75C43.83,4.21,43.87,3.94,43.68,3.51L43.68,3.51z M17.7,3.51l-1.36-3.18c-0.1-0.11-0.19-0.19-0.29-0.24
	C15.96,0.03,15.87,0,15.77,0c-2.14,0.87-4.16,2-6.07,3.38c-1.9,1.39-3.56,3.09-4.96,5.1c-1.4,2.01-2.55,4.24-3.43,6.69
	C0.44,17.62,0,20.34,0,23.33c0,2.56,0.37,4.84,1.11,6.85c0.74,2.01,1.69,3.68,2.86,5.02c1.17,1.33,2.45,2.34,3.85,3.02
	c1.4,0.68,2.79,1.02,4.18,1.02c0.86,0,1.65-0.13,2.39-0.41c0.74-0.27,1.43-0.75,2.07-1.43c0.64-0.68,1.13-1.47,1.46-2.37
	c0.33-0.9,0.5-1.89,0.5-2.98c0-0.65-0.05-1.18-0.14-1.59c-0.1-0.41-0.21-0.75-0.36-1.02c-0.14-0.27-0.35-0.54-0.61-0.82
	c-0.26-0.27-0.54-0.62-0.82-1.06c-2.81,0-4.87-0.92-6.17-2.77C9,22.95,8.35,20.63,8.35,17.86c0-3.15,0.82-5.75,2.46-7.79
	c1.64-2.04,3.89-3.96,6.75-5.75C17.84,4.21,17.89,3.94,17.7,3.51L17.7,3.51z"/>
</svg>
