<?xml version="1.0" encoding="utf-8"?>
<!-- Generator: Adobe Illustrator 23.0.1, SVG Export Plug-In . SVG Version: 6.00 Build 0)  -->
<svg version="1.1" id="Слой_1" xmlns="http://www.w3.org/2000/svg" xmlns:xlink="http://www.w3.org/1999/xlink" x="0px" y="0px"
	 viewBox="0 0 2560 636" style="enable-background:new 0 0 2560 636;" xml:space="preserve">
<style type="text/css">
	.st0{fill:#FFFFFF;}
</style>
<path class="st0" d="M1,536c22.25,4.36,44.73,1.83,67.08,1.85c218.14,0.23,436.28,0.16,654.42,0.06
	c30.66-0.01,61.24-1.13,91.69-5.57c57.54-8.39,95.59-40.49,116.73-93.87c1.78-4.48,3.51-8.99,5.19-13.51
	c15.07-40.57,43.96-64.34,86.89-69.75c19.94-2.51,40.16-4.03,60.25-4.05c260.3-0.3,520.6-0.25,780.9-0.3
	c149.15-0.03,298.29-0.07,447.44-0.13c80.99-0.03,161.98-0.12,242.97-0.16c2.15,0,4.29,0.27,6.44,0.42c0,95.32,0,190.63,0,285.98
	c-853.33,0-1706.67,0-2560,0C1,603.32,1,569.66,1,536z"/>
</svg>
