<?xml version="1.0" encoding="utf-8"?>
<!-- Generator: Adobe Illustrator 23.0.1, SVG Export Plug-In . SVG Version: 6.00 Build 0)  -->
<svg version="1.1" id="Слой_1" xmlns="http://www.w3.org/2000/svg" xmlns:xlink="http://www.w3.org/1999/xlink" x="0px" y="0px"
	 viewBox="0 0 314.96 176.38" style="enable-background:new 0 0 314.96 176.38;" xml:space="preserve">
<style type="text/css">
	.st0{fill:#5B1A57;}
	.st1{fill:#1094D5;}
</style>
<path class="st0" d="M182.26,69.99c2.67-4.32,5.43-8.6,6.44-13.73c0.11-0.58,0.23-1.16,0.4-1.72c0.39-1.27,1.15-2.09,2.59-1.82
	c1.45,0.26,2.3,1.19,1.96,2.65c-0.64,2.73-1.25,5.51-2.29,8.09c-1.89,4.67-4.06,9.22-6.16,13.81c-0.65,1.43-1.25,2.94-2.19,4.17
	c-1.47,1.94-1.79,4.04-1.49,6.32c1.36,10.26,2.88,20.5,4.04,30.78c0.39,3.4,0.06,6.92-0.26,10.36c-0.17,1.83-1.4,3.06-3.58,2.75
	c-1.53-0.22-2.49,0.57-2.96,2c-0.39,1.18-0.8,2.36-1.14,3.55c-0.74,2.56-0.46,3.25,2.02,4.24c3.89,1.56,7.83,3,11.74,4.51
	c5.07,1.97,10.12,3.96,15.19,5.93c7.24,2.82,11.41,8.05,12.59,15.74c0.83,5.42-1.69,8.54-7.14,8.54
	c-19.81,0.02-39.63,0.02-59.44,0.02c-2.96,0-4.01-0.62-4.02-2.33c-0.01-1.74,1.01-2.36,3.96-2.36c18.57-0.01,37.14,0,55.7-0.02
	c1.44,0,2.88-0.12,4.31-0.29c1.6-0.19,2.33-1.22,2.04-2.76c-1-5.24-3.41-9.56-8.61-11.63c-8.7-3.48-17.46-6.77-26.17-10.21
	c-1.87-0.74-2.77,0.19-3.68,1.57c-4.47,6.82-10.28,12.12-18.08,14.81c-14.27,4.91-32,2.29-42.75-13.22c-2.6-3.75-3.25-3.87-7.5-2.21
	c-7.38,2.9-14.76,5.78-22.15,8.63c-5.32,2.05-8.61,5.8-9.77,11.39c-0.55,2.64,0.35,3.89,3.08,3.94c4.2,0.07,8.4,0.01,12.6,0.01
	c15.35,0,30.71-0.01,46.06-0.01c0.66,0,1.32-0.02,1.96,0.08c1.28,0.21,2.24,0.8,2.17,2.3c-0.06,1.44-0.97,2.08-2.27,2.25
	c-0.52,0.07-1.05,0.04-1.57,0.04c-19.49,0-38.97,0.01-58.46,0c-7.11,0-9.53-2.96-8.1-9.91c1.37-6.64,5.09-11.47,11.43-13.99
	c8.82-3.51,17.71-6.85,26.58-10.26c0.61-0.24,1.23-0.45,1.82-0.73c2.09-0.98,2.47-1.99,1.6-4.08c-0.33-0.79-0.7-1.56-0.94-2.37
	c-0.69-2.35-1.98-3.76-4.67-3.51c-1.69,0.16-2.16-1.3-2.25-2.46c-0.25-3.38-0.63-6.83-0.26-10.17c1.17-10.55,2.66-21.06,4-31.58
	c0.31-2.4,0.29-4.73-2.02-6.37c-0.43-0.3-0.62-0.99-0.85-1.52c-2.17-4.98-4.33-9.97-6.49-14.96c-2.46-5.7-3.66-11.57-2.86-17.83
	c0.21-1.64-0.1-3.41-0.48-5.04c-1.73-7.46-0.22-14.17,4.46-20.19c2.82-3.63,6.38-3.71,9.15-0.09c2.9,3.8,6.76,4.11,10.8,2.95
	c4.01-1.15,7.88-2.79,11.79-4.29c6.04-2.31,11.92-5.24,18.13-6.92c13.3-3.6,24.06,1.17,32.61,11.49c0.94,1.13,1.63,2.82,1.66,4.26
	c0.1,3.82,1.84,6.5,4.61,8.93c1.47,1.28,2.58,3.06,3.56,4.78c0.69,1.21,0.5,2.59-1.05,3.3c-1.47,0.67-2.37-0.14-3.09-1.28
	c-0.63-1-1.11-2.09-1.81-3.04c-1.44-1.97-3.24-1.86-4.52,0.18c-0.66,1.05-1.48,2.02-2.02,3.12c-0.38,0.77-0.83,1.87-0.56,2.54
	c2.66,6.49,1.98,13.29,2.09,20.02c0.01,0.91,0,1.82,0,2.72C181.93,69.93,182.1,69.96,182.26,69.99z M177.02,71.38
	c-0.03,0-0.07,0-0.1,0c0-3.67,0.06-7.35-0.02-11.02c-0.06-2.55-0.19-5.11-0.51-7.64c-0.35-2.83-1.42-3.38-3.99-2.27
	c-3.08,1.33-6.27,1.83-9.6,1.44c-2.6-0.3-5.25-1.05-7.78-0.76c-6.88,0.8-13.49-0.13-19.94-2.36c-5.43-1.88-9.94-0.77-14.05,3.2
	c-1.54,1.48-3.63,2.45-5.6,3.4c-1.36,0.65-2.08,1.45-2.08,2.96c0.02,9.12-0.08,18.24,0.08,27.36c0.07,4.32,1.41,8.36,3.76,12.06
	c0.64,1.01,1.05,2.21,1.36,3.38c0.48,1.84,1.31,2.61,3.09,1.92c2.17-0.84,4.24-2,6.22-3.24c2.38-1.5,4.55-3.33,6.94-4.82
	c2.91-1.82,5.97-2.14,9.16-0.5c0.64,0.33,1.73,0.35,2.36,0.03c3.34-1.75,6.49-1.3,9.5,0.65c2.25,1.46,4.34,3.18,6.61,4.61
	c1.92,1.22,3.92,2.39,6.02,3.23c1.75,0.7,2.69-0.08,3.23-1.82c0.44-1.42,0.94-2.84,1.62-4.15c1.95-3.74,3.76-7.5,3.73-11.87
	C177,80.56,177.02,75.97,177.02,71.38z M176.02,41.42c0.23,0.07,0.45,0.15,0.68,0.22c1.07-2.13,2.36-4.18,3.16-6.4
	c1.22-3.39,0.68-6.73-1.8-9.38c-6.85-7.33-15.16-11.29-25.24-8.73c-6.04,1.53-11.82,4.17-17.61,6.58
	c-5.2,2.17-10.28,4.63-15.93,5.44c-4.71,0.68-9.03,0.03-12.38-3.8c-1.81-2.08-2.27-2.03-3.96,0.23c-4.88,6.56-3.7,17.08,2.54,22.57
	c4.47,3.94,8.49,3.91,12.86-0.13c5.18-4.8,11.06-6.24,17.79-3.81c6.95,2.51,14.16,2.45,21.38,2.08c1.63-0.08,2.41-1.05,2.48-2.71
	c0.13-3.33-2.01-5.98-5.62-6.77c-3.65-0.81-7.16-0.23-10.61,1.03c-1.45,0.53-2.86,0.78-3.63-1.06c-0.62-1.49,0.01-2.53,2.07-3.34
	c3.4-1.34,6.92-1.95,10.59-1.66c8.15,0.65,12.56,5.77,11.81,13.67c-0.05,0.49,0.65,1.4,1.16,1.55c2.3,0.64,4.05-0.4,4.92-2.71
	c2.08-5.53-0.89-12.86-6.39-14.99c-2.58-1-5.45-1.24-8.2-1.79c-1.26-0.25-2.23-0.96-1.98-2.22c0.16-0.84,1.05-1.58,1.73-2.24
	c0.28-0.27,0.86-0.25,1.32-0.29c8.35-0.71,16.55,5.39,18.22,13.6C175.72,38.02,175.81,39.73,176.02,41.42z M179.09,108.67
	c-0.26-0.15-0.53-0.29-0.79-0.44c-2.34,2.77-4.96,5.35-6.96,8.35c-4.01,6.03-8.72,10.84-16.42,11.46c-1.89,0.15-3.8,0.36-5.69,0.31
	c-5.37-0.14-10.78-0.02-16.09-0.7c-6.48-0.83-10.47-5.4-13.98-10.54c-1.97-2.89-4.49-5.41-6.79-8.08c-0.25-0.29-0.69-0.43-1.22-0.74
	c-0.81,5.02-1.6,9.8-2.35,14.58c-0.2,1.28,0.03,2.67,1.59,2.57c3.43-0.22,4.15,1.98,5.04,4.59c1.34,3.94,3.05,7.77,4.73,11.59
	c0.61,1.4,1.78,2.41,3.48,1.79c1.51-0.55,2.57,0.02,3.81,0.79c3.72,2.31,7.45,4.63,11.33,6.66c3.1,1.62,6.53,1.95,9.95,0.97
	c5.19-1.48,9.52-4.57,13.97-7.47c1.01-0.66,2.53-1.32,3.55-1.03c2.12,0.6,3.2-0.25,3.89-1.9c1.74-4.15,3.44-8.32,4.99-12.54
	c0.95-2.58,1.41-3.16,4.12-3.33c1.73-0.11,2.38-1.08,2.15-2.6C180.68,118.21,179.87,113.44,179.09,108.67z M165.65,115.29
	c-7.25-0.08-13.45-2.66-19.2-6.51c-1.21-0.81-2.2-0.31-3.23,0.41c-3.87,2.68-8.13,4.49-12.73,5.43c-1.9,0.39-3.84,0.59-5.95,0.91
	c0.34,0.6,0.55,1.06,0.84,1.47c3.81,5.29,9.77,7.59,16.06,5.99c2.57-0.65,4.97-0.61,7.53,0.04
	C155.71,124.71,162.99,121.37,165.65,115.29z M170.34,108.34c-5.36-0.36-9.2-3.6-13.19-6.52c-1.16-0.85-2.33-1.7-3.52-2.51
	c-2.07-1.4-4.11-1.53-6.13,0.16c-1.43,1.2-2.89,1.35-4.43,0.09c-2.11-1.73-4.35-1.65-6.53-0.16c-2.32,1.59-4.43,3.55-6.88,4.88
	c-2.77,1.52-5.82,2.53-8.76,3.74c-0.36,0.15-0.76,0.19-1.41,0.35c2.47,1.72,4.88,2.24,7.52,1.99c5.3-0.5,9.96-2.55,14.25-5.62
	c3.3-2.36,4.58-2.34,7.75,0.01c4.02,2.99,8.53,4.82,13.46,5.61C165.33,110.83,167.98,110.29,170.34,108.34z M145.42,160.55
	c7.78-0.1,14.96-2.84,21.13-8.22c0.49-0.43,1.2-1.25,1.07-1.61c-0.24-0.63-1-1.38-1.63-1.46c-0.88-0.12-2.02,0.07-2.72,0.58
	c-4.29,3.14-9.17,5.01-14.11,6.77c-2.56,0.91-5.18,1.06-7.71,0.16c-4.93-1.76-9.89-3.48-14.13-6.71c-1.15-0.88-2.4-1.41-3.81-0.55
	c-1.26,0.77-1.33,1.67-0.2,2.64C129.58,157.46,136.73,160.47,145.42,160.55z M107.76,70.02c0.17-0.02,0.34-0.05,0.51-0.07
	c0.16-3.49,0.5-6.99,0.43-10.48c-0.09-4.03-3.53-7.44-7.49-7.75C101.07,58.69,104.62,64.28,107.76,70.02z"/>
<path class="st1" d="M63.91,62.31c-0.1,0.51-0.45,1.16-0.25,1.51c1.46,2.62,3.03,5.19,4.46,7.6c0-0.01,0.1-0.41,0.25-0.79
	c0.48-1.26,1.32-1.88,2.72-1.47c1.35,0.4,1.72,1.46,1.38,2.6c-0.49,1.63-0.18,2.92,0.76,4.3c2.69,3.98,1.22,9.14-3.22,11.08
	c-1.22,0.53-1.61,1.17-1.69,2.41c-0.32,5-2.28,9.21-6.15,12.49c-1.79,1.52-1.26,3.99,0.88,4.82c5.42,2.1,10.83,4.24,16.23,6.38
	c3.54,1.4,5.62,3.97,6.3,7.74c0.64,3.57-0.9,5.55-4.59,5.57c-7.73,0.04-15.46,0.02-23.2,0.03c-1.29,0-2.58,0-3.87,0
	c-2.43-0.01-3.37-0.6-3.39-2.14c-0.02-1.6,0.86-2.2,3.3-2.2c8.41-0.01,16.81,0,25.22,0c0.73,0,1.46,0,2.32,0
	c-0.25-2.29-1.24-3.92-3.19-4.74c-3.72-1.56-7.52-2.95-11.26-4.47c-1.07-0.43-1.38,0.24-1.86,0.89
	c-6.15,8.33-17.33,10.04-25.57,3.82c-1.39-1.05-2.52-2.5-3.59-3.89c-0.69-0.91-1.3-1.1-2.32-0.68c-3.4,1.38-6.83,2.7-10.24,4.05
	c-2.17,0.86-3.44,2.42-3.8,4.93c0.7,0.04,1.29,0.09,1.87,0.09c8.35,0,16.69,0,25.04,0c2.06,0,2.91,0.64,2.9,2.19
	c-0.01,1.54-0.86,2.16-2.95,2.16c-8.47,0-16.94,0-25.41-0.01c-0.79,0-1.61,0-2.38-0.16c-2.57-0.51-3.72-1.97-3.41-4.59
	c0.46-3.92,2.29-6.95,6.13-8.45c5.41-2.12,10.84-4.22,16.25-6.32c2.24-0.87,2.75-2.34,1.51-4.43c-0.25-0.42-0.56-0.82-0.92-1.14
	c-3.63-3.26-5.36-7.4-5.55-12.2c-0.04-1.07-0.42-1.59-1.42-2.01c-4.79-2.02-6.22-7.25-3.4-11.61c0.56-0.87,0.8-2.14,0.72-3.19
	c-0.5-6.64,0.13-12.93,5.36-17.8c1.28-1.19,2.79-2.39,4.41-2.9c4.65-1.47,9.36-2.95,14.16-3.76c5.02-0.84,9.83,2.47,11.97,7.08
	c0.69,1.49,1.97,2.71,3.01,4.03c1.34,1.72,2.85,3.33,4.02,5.15c0.76,1.17,0.88,2.66-0.77,3.43c-1.67,0.79-2.37-0.35-3.13-1.6
	c-0.86-1.42-1.98-2.68-2.98-4.01C64.35,62.17,64.13,62.24,63.91,62.31z M60.7,66.51c-0.2,0.09-0.41,0.17-0.61,0.26
	c-1.19,0.43-2.37,0.93-3.58,1.27c-4.15,1.17-8.25,0.67-12.33-0.4c-3.23-0.84-4.43-0.27-5.81,2.76c-0.37,0.83-0.77,1.73-0.81,2.61
	c-0.24,5.74-0.85,11.52-0.45,17.22c0.49,6.94,6.44,11.72,13.47,11.72c6.87,0,12.76-4.82,13.22-11.76
	c0.39-5.89-0.04-11.86-0.55-17.76C63.08,70.4,61.59,68.48,60.7,66.51z M60.04,59.78c0.75-1.61,0.5-3.1-0.47-4.45
	c-1.55-2.15-3.75-3.42-6.34-2.97c-4.02,0.7-8.08,1.5-11.91,2.85c-6.88,2.42-9.53,8.06-8.31,17.88c0.35-1.15,0.58-1.94,0.83-2.73
	c1.84-5.79,5.38-8.94,11.93-6.79c1.46,0.48,3.05,0.56,4.58,0.82c0.11-0.2,0.21-0.39,0.32-0.59c-0.48-0.43-0.91-0.94-1.44-1.27
	c-1.16-0.71-1.63-1.64-1.09-2.93c0.56-1.33,1.8-1.42,2.79-0.96c1.16,0.54,2.27,1.41,3.09,2.39c0.62,0.74,0.76,1.88,1.11,2.85
	c1.31-1.98,0.57-4.37-1.68-5.4c-0.72-0.33-1.68-0.34-2.2-0.84c-0.57-0.54-1.1-1.52-1.02-2.24c0.06-0.6,0.95-1.29,1.63-1.58
	c0.54-0.24,1.33-0.03,1.97,0.13C56.9,54.74,58.81,56.83,60.04,59.78z M44.36,105.23c-1.12,3.68-0.79,4.48,2.46,6.01
	c2.29,1.08,4.63,1.08,6.93,0.15c3.35-1.35,3.85-2.52,2.79-6.14C52.49,106.7,48.41,106.6,44.36,105.23z M61.36,111.05
	c-2.99,3.24-6.42,5.41-11.03,5.32c-4.47-0.09-7.97-2.03-10.82-5.38c2.44,4.15,6.2,6.02,10.86,6.09
	C55.14,117.16,58.85,115.13,61.36,111.05z"/>
<path class="st1" d="M286.11,91.23c-0.22,5.63-0.02,11.31-0.76,16.87c-1.18,8.9-10.23,16.26-19.13,16.2
	c-1.55-0.01-3.02-0.19-3.1-2.16c-0.08-1.95,1.4-2.31,2.9-2.5c9.91-1.27,15.15-7.2,15.16-17.18c0-7.67-0.04-15.35,0.06-23.02
	c0.02-1.89-0.65-2.99-2.41-3.49c-5.72-1.64-11.4-3.42-17.17-4.84c-2.48-0.61-3.8-1.56-4.32-4.21c-1.25-6.32-4.08-8.43-10.57-8.43
	c-3.28,0-6.56-0.02-9.84,0.06c-5.2,0.13-7.78,2.26-9.01,7.31c-0.11,0.45-0.28,0.88-0.33,1.33c-0.29,2.47-1.78,3.35-4.12,3.93
	c-5.9,1.46-11.7,3.29-17.55,4.95c-1.55,0.44-2.2,1.34-2.18,3c0.11,8.33,0.07,16.66,0.21,24.98c0.15,8.72,5.83,14.7,14.57,15.56
	c1.29,0.13,2.72,0.11,3.18,1.74c0.51,1.83-0.43,2.91-2.53,2.96c-7.93,0.18-15.79-5.15-18.65-12.99c-0.9-2.48-1.41-5.22-1.46-7.86
	c-0.18-8.72-0.05-17.45-0.11-26.17c-0.01-2.32,0.83-3.96,3.08-4.68c6.04-1.93,12.06-3.92,18.15-5.66c1.87-0.54,2.94-1.4,3.5-3.22
	c2-6.56,5.97-9.68,12.78-9.81c4.78-0.09,9.58-0.1,14.34,0.28c5.24,0.42,8.75,3.54,10.17,8.52c0.81,2.84,2.41,3.86,5.09,4.55
	c5.43,1.41,10.79,3.16,16.1,5c3.31,1.14,3.83,2.28,3.8,5.78c-0.04,4.39-0.01,8.79-0.01,13.18
	C285.99,91.22,286.05,91.22,286.11,91.23z"/>
<path class="st1" d="M214.94,98.01c0.06-15.33,12.43-27.67,27.66-27.59c15.17,0.08,27.57,12.62,27.52,27.81
	c-0.05,15.22-12.51,27.6-27.73,27.56C227.12,125.75,214.88,113.37,214.94,98.01z M242.06,75.22c-13.03,0.5-23.04,11.02-22.52,23.69
	c0.52,12.61,11.28,22.7,23.67,22.19c12.89-0.53,22.67-11.2,22.22-24.24C265.01,84.87,254.09,74.76,242.06,75.22z"/>
<path class="st1" d="M215.27,61.2c0.62,0.65,1.66,1.24,1.73,1.94c0.09,0.84-0.42,2.33-1.04,2.56c-2.88,1.06-5.86,1.85-8.84,2.59
	c-1.27,0.31-2.3-0.47-2.38-1.73c-0.05-0.8,0.4-2.18,0.96-2.39C208.7,63.06,211.8,62.24,215.27,61.2z"/>
<path class="st1" d="M253.07,97.08c0,1.29,0,2.3,0,3.55c-2.77,0-5.48,0-8.49,0c0,2.98,0,5.74,0,8.61c-1.43,0-2.58,0-3.93,0
	c0-2.8,0-5.52,0-8.45c-2.93,0-5.65,0-8.53,0c0-1.28,0-2.34,0-3.61c2.72,0,5.44,0,8.44,0c0-2.95,0-5.72,0-8.58c1.42,0,2.56,0,3.92,0
	c0,2.78,0,5.5,0,8.49C247.44,97.08,250.21,97.08,253.07,97.08z"/>
</svg>
