<?xml version="1.0" encoding="utf-8"?>
<!-- Generator: Adobe Illustrator 23.0.1, SVG Export Plug-In . SVG Version: 6.00 Build 0)  -->
<svg version="1.1" id="Слой_1" xmlns="http://www.w3.org/2000/svg" xmlns:xlink="http://www.w3.org/1999/xlink" x="0px" y="0px"
	 viewBox="0 0 314.96 176.38" style="enable-background:new 0 0 314.96 176.38;" xml:space="preserve">
<style type="text/css">
	.st0{fill:#5B1A57;}
	.st1{fill:#1094D5;}
</style>
<path class="st0" d="M150.08,170.41c1.62-1.01,3.43-1.8,4.82-3.06c8.55-7.7,12.44-17.49,11.52-28.84
	c-0.55-6.82-2.23-13.55-3.32-20.33c-0.46-2.84-0.82-5.71-1.04-8.58c-0.15-2.04,0.72-2.95,2.48-3.06c1.65-0.11,2.66,0.82,2.98,2.7
	c1.18,6.77,2.44,13.53,3.52,20.32c0.41,2.59,1.77,3.95,4.16,4.89c5.17,2.03,10.47,3.89,15.28,6.6c8.53,4.8,12.76,12.7,14.03,22.24
	c0.25,1.86,0.32,3.81,0.04,5.65c-0.59,3.82-3.22,6.25-7.06,6.84c-1.35,0.21-2.74,0.3-4.11,0.3c-46.39,0.01-92.77,0.01-139.16,0
	c-1.37,0-2.76-0.09-4.11-0.3c-4.39-0.7-7.35-3.96-7.27-8.42c0.23-11.98,5.12-21.45,15.87-27.22c4.47-2.4,9.36-4.06,14.12-5.88
	c1.91-0.73,3.02-1.85,3.56-3.8c3.69-13.29,4.85-26.85,3.57-40.53c-0.85-9.05-2.53-18.02-3.88-27.03C74,49,77.69,36.72,86.53,25.89
	c4.22-5.17,9.1-9.54,14.98-12.82c6.31-3.51,13.17-4.29,20.16-4.32c4.71-0.02,9.44,0.29,14.13,0.77c8.85,0.89,15.68,5.68,21.34,12.12
	c3.44,3.91,6.74,8.05,9.43,12.49c5.2,8.58,6.23,18.16,5.05,27.93c-0.89,7.41-2.39,14.74-3.41,22.14c-0.57,4.15-0.75,8.35-1.05,12.54
	c-0.11,1.44-0.33,2.81-1.82,3.41c-2.02,0.81-3.8-0.47-3.69-2.91c0.21-4.71,0.49-9.43,1.09-14.11c1.03-7.99,2.89-15.91,3.39-23.92
	c1.18-19.26-10.01-37.04-27.41-43.46c-4.21-1.56-8.38-1.79-12.66-0.1c-1.19,0.47-2.86,0.65-3.98,0.17
	c-6.56-2.79-12.65-1.16-18.2,2.25c-15.36,9.44-23.34,23.19-22.45,41.4c0.31,6.25,1.63,12.47,2.73,18.66
	c3.02,17.04,2.36,33.9-1.8,50.71c-2.39,9.67-1.96,19.26,2.55,28.39c2.46,4.97,5.85,9.13,10.66,12.02c0.67,0.4,1.44,0.62,2.71,1.14
	c-1.23-2.69-2.19-4.75-3.11-6.82C90.9,154,90.31,144,92.25,133.89c2.94-15.29,3.08-30.6,1.48-46.02
	c-0.66-6.31-1.23-12.67-1.21-19.01c0.02-6.01,1.33-11.93,5.43-16.67c1.76-2.04,3.96-3.85,6.28-5.24
	c5.66-3.39,10.71-7.51,15.41-12.09c3.17-3.08,5.31-3.17,8.37-0.05c4.52,4.6,9.43,8.58,15.11,11.78
	c7.39,4.15,10.89,11.03,11.83,19.33c0.95,8.37-0.24,16.63-1.31,24.88c-1.29,9.95-1.14,19.89-0.05,29.83
	c0.77,7.03,1.97,14.02,2.56,21.07c0.77,9.3-1.34,18.1-5.72,26.34c-0.24,0.46-0.47,0.93-0.68,1.41c-0.05,0.11-0.03,0.26-0.04,0.39
	C149.83,170.03,149.96,170.22,150.08,170.41z M97.82,71.21c0.71,7.9,1.49,16.52,2.24,25.14c0.21,2.48,0.18,5.02,2.06,7
	c1.21,1.28,2.36,2.63,3.68,3.79c10.57,9.27,26.3,9.13,36.79-0.33c3.01-2.71,5.23-5.79,5.03-10.18c-0.09-1.94,0.4-3.91,0.55-5.87
	c0.59-7.63,1.9-15.2,1.37-22.91c-0.48-7.01-2.81-12.77-9.32-16.43c-5.49-3.09-10.53-6.87-14.8-11.56c-1.2-1.32-1.97-1.02-3.21,0.05
	c-3.91,3.36-7.93,6.59-12,9.76c-1.95,1.52-4.29,2.58-6.14,4.2C99.05,58.25,98.16,64.27,97.82,71.21z M150.65,145
	c-0.77,0.44-1.32,0.73-1.85,1.06c-5.82,3.64-12.24,4.44-18.91,3.99c-1.61-0.11-2.97-0.76-2.96-2.74c0.01-1.97,1.32-2.57,2.97-2.69
	c1.24-0.09,2.49-0.09,3.73-0.06c5.24,0.12,9.92-1.36,14.11-4.56c2.86-2.18,2.23-5.02,1.84-7.89c-0.33-2.39-2.2-2.83-4.07-3.33
	c-1-0.27-2-0.62-2.94-1.07c-3.4-1.6-4.98-4.27-4.73-7.83c0.21-2.99-0.19-3.31-2.98-2.24c-5.15,1.97-10.44,2.51-15.84,1.48
	c-2.43-0.46-4.79-1.3-7.18-1.97c-1.46-0.41-2.33-0.08-2.18,1.64c0.04,0.46,0.04,0.92,0.05,1.38c0.11,4.2-1.29,6.23-5.27,7.73
	c-1.16,0.44-2.35,0.84-3.45,1.41c-4.02,2.07-4.77,6.85-1.59,10.03c2.48,2.47,5.5,4.11,8.94,4.61c3.23,0.47,6.52,0.49,9.78,0.72
	c1.58,0.11,2.6,0.79,2.63,2.54c0.03,1.7-0.82,2.69-2.44,2.69c-3.39,0-6.88,0.27-10.15-0.41c-3.78-0.79-7.37-2.48-11.26-3.85
	c0.1,1.57,0.08,3.45,0.35,5.29c0.96,6.57,3.83,12.49,6.61,18.41c0.26,0.56,1.31,1.02,2.03,1.06c2.42,0.13,4.85,0.04,7.28,0.05
	c9.38,0.01,18.76,0.02,28.15,0.04c1.07,0,2.06-0.01,2.59-1.26c1.22-2.89,2.62-5.72,3.78-8.64
	C149.61,155.69,150.91,150.65,150.65,145z M87.8,170.45c-5.55-5.74-9.19-11.88-10.87-19.06c-0.7-2.98-1.09-6.06-1.4-9.11
	c-0.29-2.86-0.38-2.99-2.98-1.98c-2.19,0.86-4.53,1.42-6.59,2.52c-3.44,1.84-7.02,3.62-9.96,6.12c-4.67,3.97-6.8,9.47-7.47,15.55
	c-0.53,4.8,0.34,5.94,5.16,5.97c7.41,0.04,14.83,0,22.24-0.01C79.7,170.45,83.47,170.45,87.8,170.45z M160.15,170.26
	c0.9,0.07,1.4,0.14,1.9,0.14c10.94,0.01,21.89,0.03,32.83,0.02c3.46,0,4.55-1.06,4.3-4.5c-0.63-8.75-4.09-16.03-11.99-20.36
	c-4.59-2.52-9.6-4.27-14.21-6.28c-1.29,5.92-2.17,11.4-3.72,16.7C167.68,161.36,164.32,165.87,160.15,170.26z M148.11,123.46
	c-0.34-4.3-0.66-8.4-0.99-12.62c-2.89,1.17-3.94,2.73-3.83,5.38c0.04,0.91,0.19,1.82,0.24,2.74
	C143.71,122.61,143.89,122.82,148.11,123.46z M100.58,111.05c-0.35,4.15-0.7,8.25-1.06,12.43c4.14-0.72,4.65-1.3,4.72-5.13
	c0.02-0.98,0.04-1.96,0.01-2.94C104.16,112.95,103.26,111.85,100.58,111.05z"/>
<path class="st1" d="M242.62,176.57c-12.35,1.31-24.51-10.44-24.4-24.03c0.1-13.55,10.98-24.5,24.54-24.46
	c13.45,0.03,24.3,10.98,24.41,24.41C267.29,165.48,255.83,177.84,242.62,176.57z M242.69,172.36c10.9,0.01,19.78-8.8,19.82-19.67
	c0.04-11.13-8.85-20.06-19.92-20c-10.9,0.06-19.71,8.89-19.75,19.8C222.8,163.47,231.67,172.35,242.69,172.36z"/>
<path class="st1" d="M235.87,29.57c-3.74-4.44-3.99-8.72-0.82-12.9c3.48-4.58,10.86-4.49,14.31,0.17c2.76,3.72,2.79,7.76-0.07,11.39
	c-0.9,1.14-0.69,1.8,0.33,2.57c4.7,3.55,5.5,8.5,4.9,13.9c-0.21,1.86-1.58,3.03-3.75,3.06c-5.71,0.09-11.41,0.1-17.12,0
	c-2.48-0.04-3.62-1.08-3.94-3.55c-0.7-5.48,0.58-10.28,5.27-13.73c0.21-0.16,0.42-0.32,0.61-0.5
	C235.67,29.92,235.72,29.79,235.87,29.57z M242.12,43.21c2.03,0,4.07-0.04,6.1,0.02c1.23,0.04,1.78-0.41,1.84-1.68
	c0.22-4.63-3.47-8.77-7.89-8.81c-4.5-0.03-8.2,3.95-8.06,8.64c0.04,1.33,0.58,1.88,1.92,1.84C238.05,43.16,240.08,43.2,242.12,43.21
	z M242.12,17.91c-2.54-0.02-4.55,2-4.59,4.62c-0.04,2.68,2.03,4.86,4.6,4.84c2.47-0.02,4.59-2.15,4.64-4.65
	C246.82,20.12,244.71,17.93,242.12,17.91z"/>
<path class="st1" d="M224.11,69.6c9.05,0,18.09-0.01,27.14,0.01c0.77,0,1.71-0.05,2.28,0.34c0.64,0.44,1.27,1.36,1.29,2.09
	c0.01,0.61-0.74,1.47-1.37,1.8c-0.7,0.37-1.65,0.35-2.49,0.35c-17.9,0.01-35.8,0.01-53.69-0.01c-0.84,0-1.81,0.05-2.49-0.33
	c-0.67-0.37-1.44-1.26-1.45-1.93c-0.01-0.69,0.72-1.56,1.36-2.03c0.51-0.36,1.38-0.3,2.09-0.3C205.89,69.6,215,69.6,224.11,69.6z"/>
<path class="st1" d="M224.08,55.02c8.91,0,17.82,0,26.74,0.01c0.78,0,1.7-0.14,2.31,0.22c0.74,0.43,1.65,1.29,1.67,1.99
	c0.02,0.7-0.83,1.66-1.55,2.09c-0.66,0.39-1.65,0.3-2.49,0.3c-17.89,0.01-35.78,0.01-53.67,0.01c-2.84,0-3.83-0.6-3.87-2.24
	c-0.04-1.74,0.99-2.37,3.93-2.37C206.12,55.02,215.1,55.02,224.08,55.02z"/>
<path class="st1" d="M224.08,88.53c-9.05,0-18.1,0-27.15,0c-0.52,0-1.05-0.02-1.57-0.06c-1.3-0.1-2.07-0.81-2.13-2.11
	c-0.06-1.34,0.7-2.08,1.98-2.23c1.04-0.12,2.09-0.18,3.14-0.18c17.44,0.01,34.88,0.02,52.33,0.05c0.85,0,1.84-0.14,2.51,0.24
	c0.73,0.41,1.61,1.36,1.6,2.06c-0.01,0.71-0.91,1.6-1.64,2.04c-0.6,0.36-1.53,0.2-2.32,0.2c-8.92,0.01-17.84,0.01-26.75,0.01
	C224.08,88.54,224.08,88.54,224.08,88.53z"/>
<path class="st1" d="M208.2,46.17c-3.74,0-7.48,0.01-11.22-0.01c-0.71,0-1.63,0.09-2.09-0.29c-0.71-0.58-1.53-1.54-1.52-2.34
	c0-0.64,1.07-1.41,1.83-1.86c0.5-0.29,1.28-0.13,1.94-0.13c7.41-0.02,14.83-0.03,22.24-0.03c0.79,0,1.71-0.17,2.32,0.17
	c0.73,0.42,1.62,1.28,1.66,2c0.04,0.71-0.74,1.79-1.44,2.13c-0.88,0.43-2.04,0.34-3.08,0.35C215.28,46.19,211.74,46.17,208.2,46.17z
	"/>
<path class="st1" d="M207.72,32.49c-3.73,0-7.46,0.02-11.19-0.01c-0.7-0.01-1.57,0.02-2.07-0.36c-0.58-0.44-1.18-1.31-1.16-1.98
	c0.02-0.66,0.68-1.44,1.27-1.89c0.46-0.34,1.25-0.33,1.89-0.33c7.65-0.02,15.31-0.01,22.96-0.01c0.33,0,0.66,0,0.98,0.04
	c1.36,0.18,2.39,0.69,2.34,2.32c-0.05,1.62-1.11,2.17-2.47,2.19C216.1,32.51,211.91,32.48,207.72,32.49
	C207.72,32.48,207.72,32.49,207.72,32.49z"/>
<path class="st1" d="M203.25,99.49c2.35,0,4.71,0.02,7.06-0.01c1.51-0.01,2.66,0.58,2.74,2.14c0.09,1.71-1.15,2.44-2.68,2.46
	c-4.84,0.05-9.68,0.06-14.51-0.01c-1.39-0.02-2.63-0.56-2.63-2.27c0-1.8,1.22-2.3,2.76-2.3C198.41,99.48,200.83,99.49,203.25,99.49z
	"/>
<path class="st1" d="M245.94,99.5c2.09,0,4.19-0.01,6.28,0c1.48,0.01,2.62,0.57,2.67,2.21c0.05,1.66-1.12,2.33-2.55,2.35
	c-4.25,0.07-8.5,0.08-12.75,0.02c-1.46-0.02-2.59-0.78-2.58-2.37c0.01-1.63,1.18-2.2,2.66-2.21
	C241.76,99.49,243.85,99.49,245.94,99.5z"/>
<path class="st1" d="M239.66,142.05v8.58h-8.67v3.7h8.67v8.66h4.07v-8.66h8.67v-3.7h-8.67v-8.58H239.66z"/>
</svg>
