<?xml version="1.0" encoding="utf-8"?>
<!-- Generator: Adobe Illustrator 23.0.1, SVG Export Plug-In . SVG Version: 6.00 Build 0)  -->
<svg version="1.1" id="Слой_1" xmlns="http://www.w3.org/2000/svg" xmlns:xlink="http://www.w3.org/1999/xlink" x="0px" y="0px"
	 viewBox="0 0 314.96 176.38" style="enable-background:new 0 0 314.96 176.38;" xml:space="preserve">
<style type="text/css">
	.st0{fill:#5B1A57;}
	.st1{fill:#1094D5;}
</style>
<path class="st0" d="M99.85,127.87c0,6.72-0.12,13,0.05,19.27c0.08,2.99,0.4,6.05,1.19,8.93c2.61,9.61,10.66,15.42,21.19,15.45
	c17.98,0.05,35.95,0.02,53.93,0.03c0.92,0,1.85-0.03,2.74,0.14c1.23,0.23,1.96,1.02,1.87,2.36c-0.09,1.29-0.74,2.08-2.06,2.2
	c-0.78,0.07-1.57,0.1-2.36,0.1c-17.71,0.01-35.43,0.09-53.14-0.07c-3.55-0.03-7.28-0.44-10.61-1.59
	c-10.32-3.56-15.61-11.48-16.79-21.96c-0.72-6.36-0.48-12.84-0.41-19.26c0.07-6.45-1.17-12.4-4.58-18
	c-4.04-6.64-3.09-14.52,2.29-21.02c1.62-1.95,2.34-3.92,2.26-6.44c-0.14-4.46-0.01-8.92-0.02-13.38c0-2.52-0.63-3.1-3.16-3.09
	c-2.56,0.01-5.12,0.08-7.67-0.05c-4.68-0.24-8.63-3.57-8.85-8.21c-0.33-7.26-0.31-14.55,0.03-21.81c0.2-4.38,4.14-7.57,8.57-7.72
	c2.29-0.07,4.59,0.14,6.88,0.06c3.24-0.11,4.72-1.3,4.85-4.47c0.17-4.19,2.09-7.65,3.97-11.17c0.73-1.37,1.72-2.43,3.46-1.57
	c1.42,0.7,1.45,1.95,0.58,3.93c-1.38,3.16-2.74,6.35-3.79,9.63c-0.8,2.52,0.01,3.39,2.59,3.53c4.4,0.24,5.7-0.7,6.88-4.95
	c1.28-4.62,4.84-7.69,10.05-7.98c6.08-0.33,12.19-0.29,18.29-0.31c9.84-0.04,19.68,0.07,29.52-0.03c2.19-0.02,4.6-0.18,6.51-1.12
	c6.88-3.38,13.67-2.98,20.57-0.32c1.14,0.44,2.29,0.81,3.44,1.22c0.12-0.14,0.23-0.28,0.35-0.42c-0.97-1.18-1.83-2.48-2.94-3.52
	c-3.13-2.94-6.91-4.59-11.2-4.61c-20.67-0.14-41.33-0.26-62-0.19c-3.14,0.01-6.29,0.99-9.4,1.7c-1.41,0.32-2.61,0.55-3.33-1
	c-0.67-1.43-0.16-2.91,1.55-3.45c2.79-0.88,5.68-2.02,8.53-2.04c21.32-0.17,42.65-0.15,63.97-0.05
	c10.08,0.05,19.36,7.17,22.78,17.61c1.79,5.46,3.23,11.08,4.19,16.74c0.53,3.12,0.21,6.59-0.59,9.68
	c-1.13,4.36-1.87,8.69-1.85,13.18c0.02,5.51-0.03,11.02-0.04,16.53c-0.01,2.93,0.51,3.38,3.44,3.42c2.62,0.03,5.27-0.07,7.83,0.36
	c4.18,0.7,7.16,3.88,7.33,8.1c0.27,6.74,0.39,13.51,0.08,20.25c-0.28,6.2-5.06,9.84-11.3,9.27c-1.11-0.1-2.22-0.27-3.33-0.29
	c-3-0.07-4.39,1.23-4.35,4.24c0.07,6.42,0.24,12.85,0.36,19.27c0.1,5.54-0.24,11.01-2.67,16.14c-3.02,6.38-7.6,11.13-14.32,13.53
	c-0.87,0.31-2.3,0.18-2.98-0.36c-1.29-1.04-0.93-2.67,0.49-3.62c0.43-0.29,0.91-0.51,1.39-0.73c8.89-4.04,13.16-11.13,13.37-20.7
	c0.18-8.13,0.1-16.27,0.09-24.4c0-2.44-0.79-3.1-3.25-3.06c-0.66,0.01-1.31,0.02-1.97,0c-3.07-0.11-3.58,0.51-3.58,3.66
	c0.01,4.39,0.18,8.81-0.33,13.15c-0.77,6.56-5.47,10.52-12.09,10.53c-20.47,0.04-40.94,0.03-61.41-0.02
	c-6.78-0.02-11.69-4.63-12.13-11.43c-0.21-3.37-1.53-5.7-4.64-7.1C102.82,129.94,101.63,128.98,99.85,127.87z M165.78,25.65
	c-0.6-0.1-0.79-0.16-0.98-0.16c-14.7,0.02-29.39,0.01-44.09,0.07c-3.48,0.02-5.89,2.06-7.07,5.52c-0.52,1.53,0.06,2.29,1.49,2.51
	c0.9,0.14,1.83,0.09,2.75,0.09c6.69,0.01,13.38,0.01,20.07,0.03c0.85,0,1.72,0.02,2.54,0.19c4.55,0.93,7.45,4.37,7.53,9.26
	c0.13,7.61,0.09,15.22,0.1,22.83c0,4.13,0.05,8.27-0.1,12.4c-0.12,3.24-1.86,5.55-4.86,6.79c-2.73,1.13-5.35,0.75-7.51-1.24
	c-2.21-2.04-4.55-4.07-6.24-6.53c-3.24-4.72-7.57-6.38-13.04-5.93c-2.52,0.21-3.1,0.74-3.12,3.25c-0.04,4.92-0.06,9.84-0.07,14.76
	c0,2.99,0.63,3.41,3.13,1.91c9.49-5.68,19.6,0.15,22.24,9.16c1.78,6.06,0.7,11.81-2.27,17.26c-4,7.33-10.32,12.08-17.59,15.76
	c-1.17,0.59-2.39,1.1-3.5,1.79c-1.94,1.2-2.26,2.5-1.18,4.48c1.65,3.01,4.15,4.58,7.66,4.58c20.08-0.03,40.15-0.01,60.23-0.04
	c4.69-0.01,7.94-2.82,8.24-7.5c0.28-4.31,0.19-8.66,0.07-12.98c-0.02-0.7-0.96-1.85-1.64-1.99c-5.25-1.08-11.36-0.26-15.37,5.34
	c-1.81,2.54-4.06,4.83-6.39,6.91c-4.02,3.58-10.24,1.8-11.94-3.33c-0.46-1.4-0.6-2.96-0.6-4.45c-0.03-10.63-0.04-21.26,0.07-31.88
	c0.07-7.09,3.84-10.7,10.96-10.73c6.43-0.03,12.86-0.01,19.29-0.03c0.85,0,1.7-0.06,2.55-0.15c1.83-0.19,2.9-1.26,3.02-3.05
	c0.14-2.16,0.15-4.32,0.14-6.49c-0.01-1.51-0.87-2.26-2.38-2.26c-0.66,0-1.31,0.02-1.97,0.02c-8.56,0.07-15.58-3.17-20.9-9.88
	c-7.58-9.55-7.93-22.82-1-33.65C164.56,27.48,165.1,26.68,165.78,25.65z M190.74,88.72c-8.79,0-17.58-0.03-26.37,0.01
	c-3.54,0.02-5.33,1.65-5.36,5.11c-0.1,11.02-0.09,22.04-0.1,33.06c0,1.62,0.19,3.23,1.99,3.92c1.88,0.73,3.1-0.42,4.26-1.65
	c2.61-2.77,5.29-5.48,7.78-8.35c2.51-2.89,5.51-4.12,9.34-4.08c11.22,0.12,22.43,0.06,33.65,0.04c4.9-0.01,6.57-1.73,6.59-6.68
	c0.02-4.99,0.02-9.97-0.01-14.96c-0.03-4.74-1.71-6.42-6.38-6.43C207.66,88.71,199.2,88.72,190.74,88.72z M111.72,38.39
	c0,0,0,0.01,0,0.01c-8.53,0-17.06-0.03-25.59,0.01c-3.9,0.02-6.01,1.63-6.12,5.17c-0.19,5.96-0.19,11.94,0.03,17.9
	c0.13,3.49,1.63,4.71,5.09,5.04c1.11,0.11,2.23,0.18,3.34,0.18c10.5-0.03,20.99-0.05,31.49-0.14c3.97-0.03,7.21,1.22,9.84,4.37
	c2.6,3.11,5.49,6.01,8.42,8.82c0.7,0.67,2.28,1.13,3.08,0.8c0.93-0.39,1.51-1.72,2.09-2.73c0.23-0.4,0.11-1.03,0.11-1.55
	c0-10.43,0.03-20.86-0.04-31.29c-0.03-4.91-1.79-6.56-6.74-6.58C128.39,38.37,120.05,38.39,111.72,38.39z M163.52,44.13
	c0.36,2.19,0.54,4.42,1.1,6.56c2.99,11.33,13.98,18.36,24.66,15.89c12.97-3,20.28-17.24,15.57-30.34
	c-3.34-9.28-12.37-15.44-21.31-14.53C172.23,22.85,163.77,32.42,163.52,44.13z M134.85,107.72c-0.18-6.43-1.96-10.42-6.51-12.63
	c-4.44-2.15-8.36-0.88-11.89,2.3c-1.96,1.76-3,1.7-5.22-0.47c-6.26-6.13-15.12-1.59-17.13,4.35c-1.03,3.03-1.07,6.08-0.22,9.09
	c2.57,9.07,9.06,14.62,17.17,18.53c2.34,1.13,4.94,0.74,7.23-0.47c5.84-3.09,10.89-7.16,13.98-13.09
	C133.71,112.56,134.31,109.35,134.85,107.72z M99.89,80.47c0.02,0,0.05,0,0.07,0c0,1.25,0.04,2.49-0.01,3.74
	c-0.16,4.61-0.67,5.63,5.79,4.88c1.94-0.23,2.79-1.21,2.8-3.08c0.01-2.95,0.03-5.9,0.04-8.85c0.01-5.84-0.17-6.01-6.03-5.63
	c-2,0.13-2.62,0.77-2.65,2.85C99.86,76.41,99.89,78.44,99.89,80.47z M203.54,65.22c-5.03,1.1-8.21,4.08-8.79,8.68
	c-0.35,2.74-0.04,5.6,0.23,8.38c0.05,0.56,1.23,1.31,1.97,1.43c1.4,0.23,2.87,0.03,4.31,0.06c1.47,0.02,2.25-0.78,2.26-2.14
	C203.57,76.21,203.54,70.79,203.54,65.22z"/>
<path class="st1" d="M248.93,141.54c-1.44-4.01-2.34-8-1.94-12.18c0.25-2.6,0.76-5.18,1.11-7.78c0.97-7.29,0.08-14.52-0.49-21.78
	c-0.21-2.69,0.18-5.48,0.71-8.15c0.5-2.52,2.22-4.35,4.36-5.85c2.57-1.79,5.04-3.73,7.46-5.73c1.97-1.63,2.95-1.62,4.95,0.04
	c2.26,1.87,4.58,3.69,6.99,5.34c3.32,2.28,5.27,5.37,5.44,9.32c0.14,3.32,0.03,6.7-0.39,9.99c-0.98,7.7-0.37,15.31,0.85,22.91
	c0.71,4.46,0.04,8.75-1.69,12.89c-0.12,0.28-0.16,0.58-0.08,0.93c4.39-3.69,6.2-8.46,5.55-14.07c-0.44-3.76-1.26-7.48-1.91-11.22
	c-0.06-0.32-0.13-0.65-0.13-0.97c-0.02-1.19,0.42-2.11,1.72-2.19c1.28-0.08,1.83,0.73,2.03,1.92c0.49,2.97,0.93,5.96,1.62,8.88
	c0.2,0.83,1.06,1.73,1.85,2.15c2.6,1.37,5.48,2.25,7.93,3.83c4.07,2.61,5.59,6.82,5.87,11.45c0.18,2.94-1.69,4.81-4.64,5
	c-0.65,0.04-1.31,0.03-1.97,0.03c-21.06,0-42.12,0-63.17,0c-0.72,0-1.45,0.03-2.16-0.05c-2.66-0.28-4.37-2.03-4.29-4.71
	c0.16-5.74,2.56-10.25,7.75-12.98c1.85-0.97,3.84-1.69,5.8-2.4c1.23-0.44,1.89-1.14,2.22-2.44c2.3-9.03,2.05-18.08,0.12-27.09
	c-2.46-11.45,1.62-19.71,9.93-25.78c3.16-2.3,6.81-3.03,10.6-3.06c5.26-0.05,10.56-0.06,14.93,3.63c7.7,6.48,11.12,14.5,9.12,24.63
	c-0.79,3.97-1.12,8.04-1.65,12.06c-0.06,0.45-0.1,0.91-0.16,1.37c-0.15,1.13-0.81,2.03-1.92,1.67c-0.7-0.22-1.62-1.3-1.59-1.96
	c0.16-3.33,0.46-6.67,0.97-9.96c0.68-4.41,1.65-8.78,0.55-13.25c-1.47-5.92-4.73-10.6-10.33-13.13c-4.89-2.21-10.37-1.73-15.17-0.42
	c-7.91,2.15-13.25,12-12.1,20.15c0.71,5.06,1.53,10.11,2.02,15.19c0.6,6.28-0.97,12.36-2.03,18.5c-0.9,5.24,0.3,10.03,3.99,14.04
	C247.96,140.77,248.47,141.14,248.93,141.54z M262.54,83.33c-2.09,1.54-4.16,3.39-6.52,4.74c-3.58,2.04-5.02,5.06-4.83,8.96
	c0.19,3.86,0.67,7.71,0.85,11.57c0.11,2.34,1.19,4.09,3.03,5.21c1.76,1.07,3.7,2.1,5.69,2.47c6.86,1.28,12.12-2.94,12.51-9.83
	c0.23-4.11,0.56-8.24,0.32-12.33c-0.09-1.61-1.28-3.51-2.55-4.61C268.41,87.2,265.38,85.35,262.54,83.33z M250.36,133.12
	c0.96,2.66,1.98,5.37,2.92,8.12c0.39,1.15,1.14,1.39,2.25,1.38c4.72-0.03,9.43,0.03,14.15,0.01c0.55,0,1.44-0.06,1.61-0.38
	c1.54-3,3.07-6.02,3.11-9.29c-2.44,0.48-4.77,1.1-7.15,1.35c-1.44,0.15-3.59,0.53-3.69-1.74c-0.11-2.37,1.99-1.95,3.49-1.93
	c2.32,0.03,4.43-0.51,6.21-2.01c1.55-1.31,1.16-3.59-0.76-4.16c-2.64-0.79-4.25-2.25-3.95-5.43c-4.01,1.61-7.85,1.52-11.87-0.06
	c0.24,3.13-1.31,4.6-3.91,5.5c-2.32,0.8-2.49,2.8-0.56,4.36c2.07,1.67,4.53,1.9,7.07,1.8c1.23-0.05,2.31,0.26,2.45,1.68
	c0.15,1.61-1.07,2.09-2.3,1.99C256.6,134.04,253.79,133.58,250.36,133.12z M239.25,129.52c-2.1,0.98-4.27,1.74-6.18,2.92
	c-2.95,1.83-4.5,4.64-4.83,8.14c-0.13,1.45,0.36,2.04,1.83,2.02c3.21-0.04,6.43-0.01,9.64,0c1.47,0,2.95,0,4.4,0
	c-1.15-2.2-2.38-4.09-3.14-6.14C240.18,134.34,239.85,132.05,239.25,129.52z M281.03,142.21c0.37,0.19,0.48,0.29,0.6,0.29
	c4.19,0.04,8.39,0.06,12.58,0.1c2.86,0.02,3.21-0.41,2.59-3.24c-1.1-5.05-5.14-8.54-11.2-9.52
	C285.3,134.34,284.03,138.53,281.03,142.21z"/>
<path class="st1" d="M9.75,93.99c1.31,0,2.29,0,3.26,0c7.81,0,15.62-0.01,23.42-0.01c0.59,0,1.29-0.14,1.74,0.13
	c0.6,0.36,1.46,1.1,1.39,1.57c-0.09,0.64-0.87,1.27-1.48,1.73c-0.3,0.23-0.89,0.07-1.35,0.07c-8.53,0-17.06,0.01-25.59,0
	c-4.48-0.01-5.88-2-4.52-6.28c0.96-3,3.04-4.81,5.9-5.87c3.56-1.32,7.13-2.65,10.69-3.98c0.66-0.25,1.31-0.55,2.04-0.86
	c-0.51-1.37-0.62-2.71-2.54-2.89c-0.54-0.05-1.35-1.64-1.32-2.5c0.11-3.06,0.52-6.12,0.84-9.17c0.3-2.8,0.66-5.6,0.95-8.4
	c0.05-0.5,0.04-1.09-0.17-1.53c-1.18-2.47-2.45-4.9-3.65-7.36c-1.38-2.82-2.06-5.76-1.71-8.95c0.11-1.01-0.2-2.07-0.39-3.1
	c-0.57-3.2,0.4-5.98,2.39-8.42c1.6-1.97,3.48-2.03,5.17-0.13c1.11,1.24,2.4,1.69,3.87,1.19c2.85-0.96,5.67-2.03,8.44-3.19
	c4.25-1.77,8.53-3.05,13.17-1.77c3.28,0.91,6.36,2.65,7.8,5.58c1.28,2.61,2.39,5.18,4.34,7.39c0.72,0.82,0.66,2.03-0.53,2.69
	c-1.2,0.66-1.97-0.03-2.62-0.97c-0.29-0.42-0.59-0.82-0.96-1.35c-1.24,1.15-1.66,2.18-1.12,3.82c0.55,1.68,0.53,3.55,1.12,5.45
	c0.39-1.13,0.84-2.24,1.16-3.39c0.32-1.16,0.89-1.95,2.19-1.69c1.32,0.27,1.72,1.34,1.3,2.41c-1.46,3.7-3.09,7.34-4.59,11.03
	c-0.37,0.92-0.73,1.99-0.63,2.94c0.49,4.49,1.2,8.96,1.71,13.45c0.16,1.41,0.16,2.91-0.17,4.27c-0.18,0.76-1.21,1.3-1.83,1.97
	c-0.56,0.6-1.21,1.19-1.51,1.91c-0.1,0.23,0.71,1.08,1.24,1.29c3.72,1.47,7.47,2.86,11.21,4.27c3.4,1.28,5.51,3.65,6.19,7.27
	c0.56,2.99-0.78,4.82-3.79,4.83c-8.99,0.05-17.98,0.03-26.97,0.03c-1.21,0-2.51-0.01-2.52-1.73c0-1.84,1.39-1.78,2.66-1.78
	c8.07-0.01,16.14,0,24.21,0c0.84,0,1.69,0,2.76,0c-0.02-2.3-0.93-3.95-2.76-4.73c-3.92-1.67-7.92-3.15-11.94-4.54
	c-0.44-0.15-1.43,0.6-1.86,1.17c-6.39,8.32-19.15,9.19-26.39,1.77c-1.02-1.05-1.94-2.71-3.14-2.95c-1.26-0.25-2.8,0.86-4.21,1.4
	c-2.39,0.9-4.79,1.8-7.16,2.73C11.33,89.68,10.1,91.29,9.75,93.99z M53.76,42.15c-1.37,0.27-2.53,0.78-3.64,0.68
	c-4.79-0.44-9.67,0.32-14.39-1.26c-1.2-0.4-2.79-0.39-3.95,0.07c-1.66,0.65-3.11,1.84-4.59,2.89c-0.28,0.2-0.4,0.82-0.37,1.22
	c0.43,6.09-1.58,12.54,2.87,18.14c3.52-0.83,5.91-5.81,10.68-3.72c4.76-2.08,7.32,2.72,11.33,3.84c0.84-2.45,2.1-4.67,2.29-6.98
	c0.35-4.23,0.08-8.51,0.04-12.76C54.01,43.58,53.86,42.9,53.76,42.15z M24.69,73.72c2.13,0,2.59,1.29,3.09,2.74
	c0.8,2.31,0.92,5.29,4.5,5.34c0.34,0,0.66,0.39,1,0.6c1.18,0.71,2.35,1.43,3.55,2.11c2.36,1.32,4.75,1.37,7.12,0.03
	c1.31-0.74,2.59-1.53,3.9-2.28c0.51-0.29,1.13-0.82,1.57-0.71c1.54,0.37,1.95-0.68,2.4-1.67c0.46-1.01,0.94-2.04,1.2-3.11
	c0.4-1.65,1.08-2.94,3.12-3.16c-0.29-1.71-0.55-3.29-0.9-5.35c-3.03,3.08-4.58,7.4-8.95,7.83c-3.88,0.38-7.86,0.37-11.75-0.01
	c-4.39-0.43-5.92-4.77-8.89-7.78C25.3,70.27,25.02,71.85,24.69,73.72z M22.28,30.81c-2.32,3.01-1.83,7.23,1.03,9.33
	c1.42,1.04,2.85,1.29,4.26-0.04c2.82-2.67,5.99-2.9,9.67-1.95c2.91,0.75,6.01,0.74,9.09,1.08c0.15-2.43-1.13-3.02-2.56-3.05
	c-1.34-0.03-2.7,0.55-4.04,0.53c-0.74-0.01-1.92-0.54-2.09-1.09c-0.18-0.57,0.5-1.98,1.02-2.09c2.07-0.46,4.27-0.97,6.32-0.7
	c3.45,0.46,5.34,2.74,5.52,6.51c0.59-0.85,1.04-1.68,1.02-2.51c-0.05-2.05-1.5-3.72-3.5-4.25c-0.88-0.23-1.89-0.13-2.69-0.51
	c-0.64-0.31-1.47-1.12-1.45-1.68c0.02-0.58,0.87-1.5,1.5-1.63c1.04-0.22,2.23-0.11,3.28,0.16c3.25,0.85,5.32,3.03,6.37,6.49
	c1.05-2.09,0.55-3.55-0.85-4.83c-3.45-3.15-7.43-4.13-11.83-2.57c-3.64,1.28-7.15,2.95-10.79,4.22
	C28.3,33.36,25.01,33.61,22.28,30.81z M32.9,71.04c1.51,1.85,3.64,1.91,5.93,1.62c1.07-0.13,2.19-0.13,3.26,0.01
	c2.27,0.28,4.38,0.2,5.9-1.6c-2.37-1.05-4.68-2.08-7.01-3.07c-0.31-0.13-0.77-0.1-1.09,0.03C37.55,69.01,35.24,70.03,32.9,71.04z
	 M42.08,63.52c-0.13,0.29-0.26,0.57-0.4,0.86c2.21,1.01,4.42,2.02,6.63,3.02c0.09-0.21,0.19-0.41,0.28-0.62
	C46.28,66.01,45,62.99,42.08,63.52z M32.98,66.72c0.08,0.16,0.15,0.33,0.23,0.49c2.02-0.96,4.05-1.93,6.3-3.01
	C37.64,62.98,36,63.73,32.98,66.72z M22.75,47.21c0.28-0.1,0.56-0.19,0.84-0.29c-0.46-1.21-0.93-2.43-1.39-3.64
	c-0.28,0.11-0.55,0.21-0.83,0.32C21.83,44.8,22.29,46.01,22.75,47.21z"/>
<path class="st0" d="M173.02,162.81c-1.5,0-3,0.01-4.51,0c-1.62-0.02-2.66-0.76-2.65-2.45c0.01-1.63,1.04-2.26,2.58-2.25
	c3.13,0.02,6.27,0.01,9.41,0.01c1.46,0,2.38,0.63,2.45,2.17c0.07,1.64-0.87,2.41-2.38,2.48c-1.63,0.07-3.27,0.02-4.9,0.02
	C173.02,162.79,173.02,162.8,173.02,162.81z"/>
<path class="st0" d="M130.31,162.76c-1.5,0-3,0.01-4.51,0c-1.52-0.01-2.52-0.6-2.54-2.29c-0.02-1.66,0.85-2.34,2.44-2.34
	c3.13,0.01,6.27-0.01,9.4-0.02c1.59-0.01,2.47,0.75,2.45,2.37c-0.02,1.64-1,2.3-2.54,2.3c-1.57,0-3.14,0-4.7,0
	C130.31,162.77,130.31,162.76,130.31,162.76z"/>
<path class="st0" d="M180.51,99.61c-3.94,0-7.87,0.04-11.81-0.02c-1.53-0.02-2.93-0.4-2.93-2.39c-0.01-1.67,0.88-2.45,3.06-2.46
	c7.81-0.03,15.62-0.03,23.42,0.01c2.12,0.01,3.21,1.09,2.96,2.76c-0.25,1.66-1.47,2.03-2.89,2.04c-3.94,0.02-7.87,0.01-11.81,0.01
	C180.51,99.58,180.51,99.6,180.51,99.61z"/>
<path class="st0" d="M178.18,110.73c-3.14,0-6.29,0.05-9.43-0.02c-1.47-0.04-2.98-0.25-2.99-2.3c-0.01-1.73,0.91-2.52,3.2-2.54
	c5.17-0.03,10.35,0,15.52,0.01c1.11,0,2.23-0.04,3.34,0.02c1.6,0.08,2.82,0.62,2.76,2.56c-0.05,1.86-1.29,2.28-2.79,2.3
	c-3.21,0.04-6.42,0.01-9.63,0.01C178.18,110.75,178.18,110.74,178.18,110.73z"/>
<path class="st0" d="M206.6,99.54c-3.33,0.03-4.29-0.71-3.86-3c0.42-2.27,2.27-1.8,3.73-1.78c1.57,0.02,3.6-0.63,4.17,1.76
	c0.44,1.83-0.36,2.83-2.29,3.02C207.77,99.58,207.18,99.54,206.6,99.54z"/>
<path class="st0" d="M119.9,55.79c4.65,0,9.29-0.01,13.94,0.01c1.41,0.01,2.64,0.35,2.78,2.08c0.12,1.49-0.53,2.38-2.04,2.56
	c-0.39,0.05-0.78,0.06-1.18,0.06c-8.97,0-17.93,0.01-26.9-0.01c-1.17,0-2.43,0.07-2.91-1.41c-0.62-1.88,0.3-3.25,2.37-3.27
	C110.6,55.77,115.25,55.8,119.9,55.79C119.9,55.8,119.9,55.8,119.9,55.79z"/>
<path class="st0" d="M98.61,49.43c-2.62,0-5.25,0.01-7.87,0c-1.6-0.01-2.86-0.44-2.93-2.38c-0.07-1.99,1.24-2.48,2.8-2.49
	c5.44-0.05,10.89-0.04,16.34,0c1.53,0.01,2.71,0.62,2.79,2.38c0.07,1.55-0.94,2.47-2.86,2.5c-2.75,0.05-5.51,0.01-8.27,0.01
	C98.61,49.43,98.61,49.43,98.61,49.43z"/>
<path class="st0" d="M126.86,49.42c-2.29,0-4.58,0-6.87,0c-1.56,0-2.72-0.55-2.88-2.27c-0.15-1.55,0.83-2.56,2.76-2.59
	c4.65-0.08,9.3-0.07,13.94-0.01c1.55,0.02,2.89,0.52,2.84,2.48c-0.05,1.92-1.3,2.39-2.91,2.4c-2.29,0.01-4.58,0-6.87,0
	C126.86,49.43,126.86,49.42,126.86,49.42z"/>
<path class="st0" d="M198.19,37.16c-0.27,0.45-0.63,1.39-1.26,2.08c-4.36,4.71-8.77,9.39-13.19,14.04
	c-1.88,1.98-3.11,1.96-4.94,0.02c-1.89-2-3.76-4.02-5.61-6.06c-0.47-0.52-1.15-1.17-1.14-1.76c0.01-0.93,0.28-2.09,0.9-2.69
	c0.41-0.39,1.81-0.26,2.42,0.16c1.23,0.83,2.2,2.05,3.32,3.05c2.31,2.06,3.28,2.08,5.48-0.16c3.12-3.18,6.14-6.46,9.22-9.68
	c0.45-0.47,0.9-0.97,1.45-1.31C196.4,33.91,198.18,34.9,198.19,37.16z"/>
</svg>
